<?xml version="1.0" encoding="utf-8"?>
<svg xmlns="http://www.w3.org/2000/svg" xmlns:xlink="http://www.w3.org/1999/xlink" width="600" height="400" viewBox="0 0 2400 1600">
<defs>
  <clipPath id="clip390">
    <rect x="0" y="0" width="2400" height="1600"/>
  </clipPath>
</defs>
<path clip-path="url(#clip390)" d="M0 1600 L2400 1600 L2400 0 L0 0  Z" fill="#ffffff" fill-rule="evenodd" fill-opacity="1"/>
<defs>
  <clipPath id="clip391">
    <rect x="257" y="123" width="2097" height="1301"/>
  </clipPath>
</defs>
<path clip-path="url(#clip390)" d="M175.445 1423.18 L2352.76 1423.18 L2352.76 123.472 L175.445 123.472  Z" fill="#ffffff" fill-rule="evenodd" fill-opacity="1"/>
<defs>
  <clipPath id="clip392">
    <rect x="175" y="123" width="2178" height="1301"/>
  </clipPath>
</defs>
<polyline clip-path="url(#clip392)" style="stroke:#000000; stroke-linecap:round; stroke-linejoin:round; stroke-width:2; stroke-opacity:0.1; fill:none" points="506.994,1423.18 506.994,123.472 "/>
<polyline clip-path="url(#clip392)" style="stroke:#000000; stroke-linecap:round; stroke-linejoin:round; stroke-width:2; stroke-opacity:0.1; fill:none" points="1101.71,1423.18 1101.71,123.472 "/>
<polyline clip-path="url(#clip392)" style="stroke:#000000; stroke-linecap:round; stroke-linejoin:round; stroke-width:2; stroke-opacity:0.1; fill:none" points="1696.42,1423.18 1696.42,123.472 "/>
<polyline clip-path="url(#clip392)" style="stroke:#000000; stroke-linecap:round; stroke-linejoin:round; stroke-width:2; stroke-opacity:0.1; fill:none" points="2291.13,1423.18 2291.13,123.472 "/>
<polyline clip-path="url(#clip392)" style="stroke:#000000; stroke-linecap:round; stroke-linejoin:round; stroke-width:2; stroke-opacity:0.1; fill:none" points="175.445,1416.28 2352.76,1416.28 "/>
<polyline clip-path="url(#clip392)" style="stroke:#000000; stroke-linecap:round; stroke-linejoin:round; stroke-width:2; stroke-opacity:0.1; fill:none" points="175.445,1175.57 2352.76,1175.57 "/>
<polyline clip-path="url(#clip392)" style="stroke:#000000; stroke-linecap:round; stroke-linejoin:round; stroke-width:2; stroke-opacity:0.1; fill:none" points="175.445,934.856 2352.76,934.856 "/>
<polyline clip-path="url(#clip392)" style="stroke:#000000; stroke-linecap:round; stroke-linejoin:round; stroke-width:2; stroke-opacity:0.1; fill:none" points="175.445,694.143 2352.76,694.143 "/>
<polyline clip-path="url(#clip392)" style="stroke:#000000; stroke-linecap:round; stroke-linejoin:round; stroke-width:2; stroke-opacity:0.1; fill:none" points="175.445,453.431 2352.76,453.431 "/>
<polyline clip-path="url(#clip392)" style="stroke:#000000; stroke-linecap:round; stroke-linejoin:round; stroke-width:2; stroke-opacity:0.1; fill:none" points="175.445,212.718 2352.76,212.718 "/>
<polyline clip-path="url(#clip390)" style="stroke:#000000; stroke-linecap:round; stroke-linejoin:round; stroke-width:4; stroke-opacity:1; fill:none" points="175.445,1423.18 2352.76,1423.18 "/>
<polyline clip-path="url(#clip390)" style="stroke:#000000; stroke-linecap:round; stroke-linejoin:round; stroke-width:4; stroke-opacity:1; fill:none" points="506.994,1423.18 506.994,1404.28 "/>
<polyline clip-path="url(#clip390)" style="stroke:#000000; stroke-linecap:round; stroke-linejoin:round; stroke-width:4; stroke-opacity:1; fill:none" points="1101.71,1423.18 1101.71,1404.28 "/>
<polyline clip-path="url(#clip390)" style="stroke:#000000; stroke-linecap:round; stroke-linejoin:round; stroke-width:4; stroke-opacity:1; fill:none" points="1696.42,1423.18 1696.42,1404.28 "/>
<polyline clip-path="url(#clip390)" style="stroke:#000000; stroke-linecap:round; stroke-linejoin:round; stroke-width:4; stroke-opacity:1; fill:none" points="2291.13,1423.18 2291.13,1404.28 "/>
<path clip-path="url(#clip390)" d="M476.462 1468.75 L506.138 1468.75 L506.138 1472.69 L476.462 1472.69 L476.462 1468.75 Z" fill="#000000" fill-rule="nonzero" fill-opacity="1" /><path clip-path="url(#clip390)" d="M530.397 1466.95 Q533.753 1467.66 535.628 1469.93 Q537.527 1472.2 537.527 1475.53 Q537.527 1480.65 534.008 1483.45 Q530.49 1486.25 524.008 1486.25 Q521.832 1486.25 519.517 1485.81 Q517.226 1485.39 514.772 1484.54 L514.772 1480.02 Q516.716 1481.16 519.031 1481.74 Q521.346 1482.32 523.869 1482.32 Q528.267 1482.32 530.559 1480.58 Q532.874 1478.84 532.874 1475.53 Q532.874 1472.48 530.721 1470.77 Q528.591 1469.03 524.772 1469.03 L520.744 1469.03 L520.744 1465.19 L524.957 1465.19 Q528.406 1465.19 530.235 1463.82 Q532.064 1462.43 532.064 1459.84 Q532.064 1457.18 530.165 1455.77 Q528.29 1454.33 524.772 1454.33 Q522.851 1454.33 520.652 1454.75 Q518.453 1455.16 515.814 1456.04 L515.814 1451.88 Q518.476 1451.14 520.79 1450.77 Q523.128 1450.39 525.189 1450.39 Q530.513 1450.39 533.614 1452.83 Q536.716 1455.23 536.716 1459.35 Q536.716 1462.22 535.073 1464.21 Q533.429 1466.18 530.397 1466.95 Z" fill="#000000" fill-rule="nonzero" fill-opacity="1" /><path clip-path="url(#clip390)" d="M1071.65 1468.75 L1101.33 1468.75 L1101.33 1472.69 L1071.65 1472.69 L1071.65 1468.75 Z" fill="#000000" fill-rule="nonzero" fill-opacity="1" /><path clip-path="url(#clip390)" d="M1115.45 1481.64 L1131.77 1481.64 L1131.77 1485.58 L1109.82 1485.58 L1109.82 1481.64 Q1112.48 1478.89 1117.07 1474.26 Q1121.67 1469.61 1122.85 1468.27 Q1125.1 1465.74 1125.98 1464.01 Q1126.88 1462.25 1126.88 1460.56 Q1126.88 1457.8 1124.94 1456.07 Q1123.02 1454.33 1119.91 1454.33 Q1117.71 1454.33 1115.26 1455.09 Q1112.83 1455.86 1110.05 1457.41 L1110.05 1452.69 Q1112.88 1451.55 1115.33 1450.97 Q1117.78 1450.39 1119.82 1450.39 Q1125.19 1450.39 1128.39 1453.08 Q1131.58 1455.77 1131.58 1460.26 Q1131.58 1462.39 1130.77 1464.31 Q1129.98 1466.2 1127.88 1468.8 Q1127.3 1469.47 1124.2 1472.69 Q1121.09 1475.88 1115.45 1481.64 Z" fill="#000000" fill-rule="nonzero" fill-opacity="1" /><path clip-path="url(#clip390)" d="M1666.18 1468.75 L1695.85 1468.75 L1695.85 1472.69 L1666.18 1472.69 L1666.18 1468.75 Z" fill="#000000" fill-rule="nonzero" fill-opacity="1" /><path clip-path="url(#clip390)" d="M1706.76 1481.64 L1714.4 1481.64 L1714.4 1455.28 L1706.08 1456.95 L1706.08 1452.69 L1714.35 1451.02 L1719.02 1451.02 L1719.02 1481.64 L1726.66 1481.64 L1726.66 1485.58 L1706.76 1485.58 L1706.76 1481.64 Z" fill="#000000" fill-rule="nonzero" fill-opacity="1" /><path clip-path="url(#clip390)" d="M2291.13 1454.1 Q2287.52 1454.1 2285.69 1457.66 Q2283.89 1461.2 2283.89 1468.33 Q2283.89 1475.44 2285.69 1479.01 Q2287.52 1482.55 2291.13 1482.55 Q2294.77 1482.55 2296.57 1479.01 Q2298.4 1475.44 2298.4 1468.33 Q2298.4 1461.2 2296.57 1457.66 Q2294.77 1454.1 2291.13 1454.1 M2291.13 1450.39 Q2296.94 1450.39 2300 1455 Q2303.08 1459.58 2303.08 1468.33 Q2303.08 1477.06 2300 1481.67 Q2296.94 1486.25 2291.13 1486.25 Q2285.32 1486.25 2282.25 1481.67 Q2279.19 1477.06 2279.19 1468.33 Q2279.19 1459.58 2282.25 1455 Q2285.32 1450.39 2291.13 1450.39 Z" fill="#000000" fill-rule="nonzero" fill-opacity="1" /><path clip-path="url(#clip390)" d="M1191.72 1518.52 L1197.58 1518.52 L1197.58 1568.04 L1191.72 1568.04 L1191.72 1518.52 Z" fill="#000000" fill-rule="nonzero" fill-opacity="1" /><path clip-path="url(#clip390)" d="M1223.65 1536.5 Q1218.94 1536.5 1216.2 1540.19 Q1213.46 1543.85 1213.46 1550.25 Q1213.46 1556.65 1216.17 1560.34 Q1218.9 1564 1223.65 1564 Q1228.33 1564 1231.06 1560.31 Q1233.8 1556.62 1233.8 1550.25 Q1233.8 1543.92 1231.06 1540.23 Q1228.33 1536.5 1223.65 1536.5 M1223.65 1531.54 Q1231.29 1531.54 1235.65 1536.5 Q1240.01 1541.47 1240.01 1550.25 Q1240.01 1559 1235.65 1564 Q1231.29 1568.97 1223.65 1568.97 Q1215.98 1568.97 1211.62 1564 Q1207.29 1559 1207.29 1550.25 Q1207.29 1541.47 1211.62 1536.5 Q1215.98 1531.54 1223.65 1531.54 Z" fill="#000000" fill-rule="nonzero" fill-opacity="1" /><path clip-path="url(#clip390)" d="M1273.17 1549.81 Q1273.17 1543.44 1270.53 1539.94 Q1267.92 1536.44 1263.18 1536.44 Q1258.47 1536.44 1255.83 1539.94 Q1253.22 1543.44 1253.22 1549.81 Q1253.22 1556.14 1255.83 1559.64 Q1258.47 1563.14 1263.18 1563.14 Q1267.92 1563.14 1270.53 1559.64 Q1273.17 1556.14 1273.17 1549.81 M1279.03 1563.62 Q1279.03 1572.72 1274.99 1577.15 Q1270.94 1581.6 1262.6 1581.6 Q1259.52 1581.6 1256.78 1581.13 Q1254.04 1580.68 1251.46 1579.72 L1251.46 1574.03 Q1254.04 1575.43 1256.56 1576.1 Q1259.07 1576.76 1261.68 1576.76 Q1267.44 1576.76 1270.31 1573.74 Q1273.17 1570.75 1273.17 1564.67 L1273.17 1561.77 Q1271.36 1564.92 1268.52 1566.48 Q1265.69 1568.04 1261.75 1568.04 Q1255.19 1568.04 1251.18 1563.05 Q1247.17 1558.05 1247.17 1549.81 Q1247.17 1541.53 1251.18 1536.53 Q1255.19 1531.54 1261.75 1531.54 Q1265.69 1531.54 1268.52 1533.1 Q1271.36 1534.66 1273.17 1537.81 L1273.17 1532.4 L1279.03 1532.4 L1279.03 1563.62 Z" fill="#000000" fill-rule="nonzero" fill-opacity="1" /><path clip-path="url(#clip390)" d="M1318.24 1548.82 Q1314.68 1548.06 1312.77 1545.99 Q1310.86 1543.95 1310.86 1540.99 Q1310.86 1536.5 1314.49 1533.99 Q1318.08 1531.5 1324.32 1531.5 Q1326.74 1531.5 1329.44 1531.89 Q1332.15 1532.27 1335.27 1533.03 L1335.27 1538.35 Q1332.18 1537.42 1329.64 1537.01 Q1327.06 1536.6 1324.8 1536.6 Q1321.01 1536.6 1318.81 1538.06 Q1316.59 1539.53 1316.59 1541.56 Q1316.59 1543.79 1318.75 1545.22 Q1320.88 1546.62 1324.57 1546.62 L1329.51 1546.62 L1329.51 1551.46 L1324.8 1551.46 Q1320.44 1551.46 1318.15 1553.08 Q1315.66 1554.87 1315.66 1557.67 Q1315.66 1560.53 1318.34 1562.31 Q1321.04 1564.1 1325.85 1564.1 Q1328.81 1564.1 1331.51 1563.52 Q1334.22 1562.92 1336.48 1561.74 L1336.48 1567.18 Q1333.61 1568.08 1330.94 1568.52 Q1328.24 1568.97 1325.69 1568.97 Q1318.11 1568.97 1314.01 1566.07 Q1309.9 1563.17 1309.9 1557.67 Q1309.9 1554.23 1312.1 1551.91 Q1314.29 1549.58 1318.24 1548.82 Z" fill="#000000" fill-rule="nonzero" fill-opacity="1" /><polyline clip-path="url(#clip390)" style="stroke:#000000; stroke-linecap:round; stroke-linejoin:round; stroke-width:4; stroke-opacity:1; fill:none" points="175.445,1423.18 175.445,123.472 "/>
<polyline clip-path="url(#clip390)" style="stroke:#000000; stroke-linecap:round; stroke-linejoin:round; stroke-width:4; stroke-opacity:1; fill:none" points="175.445,1416.28 194.343,1416.28 "/>
<polyline clip-path="url(#clip390)" style="stroke:#000000; stroke-linecap:round; stroke-linejoin:round; stroke-width:4; stroke-opacity:1; fill:none" points="175.445,1175.57 194.343,1175.57 "/>
<polyline clip-path="url(#clip390)" style="stroke:#000000; stroke-linecap:round; stroke-linejoin:round; stroke-width:4; stroke-opacity:1; fill:none" points="175.445,934.856 194.343,934.856 "/>
<polyline clip-path="url(#clip390)" style="stroke:#000000; stroke-linecap:round; stroke-linejoin:round; stroke-width:4; stroke-opacity:1; fill:none" points="175.445,694.143 194.343,694.143 "/>
<polyline clip-path="url(#clip390)" style="stroke:#000000; stroke-linecap:round; stroke-linejoin:round; stroke-width:4; stroke-opacity:1; fill:none" points="175.445,453.431 194.343,453.431 "/>
<polyline clip-path="url(#clip390)" style="stroke:#000000; stroke-linecap:round; stroke-linejoin:round; stroke-width:4; stroke-opacity:1; fill:none" points="175.445,212.718 194.343,212.718 "/>
<path clip-path="url(#clip390)" d="M127.501 1402.08 Q123.89 1402.08 122.061 1405.64 Q120.255 1409.19 120.255 1416.32 Q120.255 1423.42 122.061 1426.99 Q123.89 1430.53 127.501 1430.53 Q131.135 1430.53 132.941 1426.99 Q134.769 1423.42 134.769 1416.32 Q134.769 1409.19 132.941 1405.64 Q131.135 1402.08 127.501 1402.08 M127.501 1398.38 Q133.311 1398.38 136.367 1402.98 Q139.445 1407.57 139.445 1416.32 Q139.445 1425.04 136.367 1429.65 Q133.311 1434.23 127.501 1434.23 Q121.691 1434.23 118.612 1429.65 Q115.556 1425.04 115.556 1416.32 Q115.556 1407.57 118.612 1402.98 Q121.691 1398.38 127.501 1398.38 Z" fill="#000000" fill-rule="nonzero" fill-opacity="1" /><path clip-path="url(#clip390)" d="M119.538 1188.91 L127.177 1188.91 L127.177 1162.55 L118.867 1164.21 L118.867 1159.95 L127.13 1158.29 L131.806 1158.29 L131.806 1188.91 L139.445 1188.91 L139.445 1192.85 L119.538 1192.85 L119.538 1188.91 Z" fill="#000000" fill-rule="nonzero" fill-opacity="1" /><path clip-path="url(#clip390)" d="M123.126 948.201 L139.445 948.201 L139.445 952.136 L117.501 952.136 L117.501 948.201 Q120.163 945.446 124.746 940.816 Q129.353 936.164 130.533 934.821 Q132.779 932.298 133.658 930.562 Q134.561 928.803 134.561 927.113 Q134.561 924.358 132.617 922.622 Q130.695 920.886 127.593 920.886 Q125.394 920.886 122.941 921.65 Q120.51 922.414 117.732 923.965 L117.732 919.243 Q120.556 918.108 123.01 917.53 Q125.464 916.951 127.501 916.951 Q132.871 916.951 136.066 919.636 Q139.26 922.321 139.26 926.812 Q139.26 928.942 138.45 930.863 Q137.663 932.761 135.556 935.354 Q134.978 936.025 131.876 939.242 Q128.774 942.437 123.126 948.201 Z" fill="#000000" fill-rule="nonzero" fill-opacity="1" /><path clip-path="url(#clip390)" d="M132.316 692.789 Q135.672 693.507 137.547 695.775 Q139.445 698.044 139.445 701.377 Q139.445 706.493 135.927 709.294 Q132.408 712.095 125.927 712.095 Q123.751 712.095 121.436 711.655 Q119.144 711.238 116.691 710.382 L116.691 705.868 Q118.635 707.002 120.95 707.581 Q123.265 708.16 125.788 708.16 Q130.186 708.16 132.478 706.423 Q134.792 704.687 134.792 701.377 Q134.792 698.322 132.64 696.609 Q130.51 694.873 126.691 694.873 L122.663 694.873 L122.663 691.03 L126.876 691.03 Q130.325 691.03 132.154 689.664 Q133.982 688.275 133.982 685.683 Q133.982 683.021 132.084 681.609 Q130.209 680.174 126.691 680.174 Q124.769 680.174 122.57 680.59 Q120.371 681.007 117.732 681.886 L117.732 677.72 Q120.394 676.979 122.709 676.609 Q125.047 676.238 127.107 676.238 Q132.431 676.238 135.533 678.669 Q138.635 681.076 138.635 685.197 Q138.635 688.067 136.992 690.058 Q135.348 692.025 132.316 692.789 Z" fill="#000000" fill-rule="nonzero" fill-opacity="1" /><path clip-path="url(#clip390)" d="M129.862 440.225 L118.056 458.674 L129.862 458.674 L129.862 440.225 M128.635 436.151 L134.515 436.151 L134.515 458.674 L139.445 458.674 L139.445 462.563 L134.515 462.563 L134.515 470.711 L129.862 470.711 L129.862 462.563 L114.26 462.563 L114.26 458.049 L128.635 436.151 Z" fill="#000000" fill-rule="nonzero" fill-opacity="1" /><path clip-path="url(#clip390)" d="M118.543 195.438 L136.899 195.438 L136.899 199.374 L122.825 199.374 L122.825 207.846 Q123.843 207.499 124.862 207.336 Q125.88 207.151 126.899 207.151 Q132.686 207.151 136.066 210.323 Q139.445 213.494 139.445 218.911 Q139.445 224.489 135.973 227.591 Q132.501 230.67 126.181 230.67 Q124.005 230.67 121.737 230.299 Q119.492 229.929 117.084 229.188 L117.084 224.489 Q119.168 225.623 121.39 226.179 Q123.612 226.735 126.089 226.735 Q130.093 226.735 132.431 224.628 Q134.769 222.522 134.769 218.911 Q134.769 215.299 132.431 213.193 Q130.093 211.086 126.089 211.086 Q124.214 211.086 122.339 211.503 Q120.487 211.92 118.543 212.799 L118.543 195.438 Z" fill="#000000" fill-rule="nonzero" fill-opacity="1" /><path clip-path="url(#clip390)" d="M14.479 850.303 L14.479 844.447 L64.0042 844.447 L64.0042 850.303 L14.479 850.303 Z" fill="#000000" fill-rule="nonzero" fill-opacity="1" /><path clip-path="url(#clip390)" d="M32.4621 818.379 Q32.4621 823.09 36.1542 825.827 Q39.8145 828.564 46.212 828.564 Q52.6095 828.564 56.3017 825.859 Q59.9619 823.122 59.9619 818.379 Q59.9619 813.7 56.2698 810.963 Q52.5777 808.226 46.212 808.226 Q39.8781 808.226 36.186 810.963 Q32.4621 813.7 32.4621 818.379 M27.4968 818.379 Q27.4968 810.74 32.4621 806.38 Q37.4273 802.019 46.212 802.019 Q54.9649 802.019 59.9619 806.38 Q64.9272 810.74 64.9272 818.379 Q64.9272 826.05 59.9619 830.41 Q54.9649 834.739 46.212 834.739 Q37.4273 834.739 32.4621 830.41 Q27.4968 826.05 27.4968 818.379 Z" fill="#000000" fill-rule="nonzero" fill-opacity="1" /><path clip-path="url(#clip390)" d="M45.7664 768.854 Q39.4007 768.854 35.8996 771.496 Q32.3984 774.106 32.3984 778.848 Q32.3984 783.559 35.8996 786.201 Q39.4007 788.811 45.7664 788.811 Q52.1003 788.811 55.6014 786.201 Q59.1026 783.559 59.1026 778.848 Q59.1026 774.106 55.6014 771.496 Q52.1003 768.854 45.7664 768.854 M59.58 762.998 Q68.683 762.998 73.1071 767.04 Q77.5631 771.082 77.5631 779.421 Q77.5631 782.509 77.0857 785.246 Q76.6401 787.983 75.6852 790.561 L69.9879 790.561 Q71.3884 787.983 72.0568 785.469 Q72.7252 782.954 72.7252 780.344 Q72.7252 774.583 69.7015 771.719 Q66.7096 768.854 60.6303 768.854 L57.7339 768.854 Q60.885 770.668 62.4446 773.501 Q64.0042 776.334 64.0042 780.281 Q64.0042 786.837 59.0071 790.848 Q54.01 794.858 45.7664 794.858 Q37.491 794.858 32.4939 790.848 Q27.4968 786.837 27.4968 780.281 Q27.4968 776.334 29.0564 773.501 Q30.616 770.668 33.7671 768.854 L28.3562 768.854 L28.3562 762.998 L59.58 762.998 Z" fill="#000000" fill-rule="nonzero" fill-opacity="1" /><path clip-path="url(#clip390)" d="M16.4842 736.548 L16.4842 696.349 L21.895 696.349 L21.895 713.218 L64.0042 713.218 L64.0042 719.679 L21.895 719.679 L21.895 736.548 L16.4842 736.548 Z" fill="#000000" fill-rule="nonzero" fill-opacity="1" /><path clip-path="url(#clip390)" d="M828.507 44.2197 Q831.14 45.1109 833.611 48.0275 Q836.123 50.9442 838.634 56.0483 L846.938 72.576 L838.148 72.576 L830.411 57.061 Q827.413 50.9847 824.577 48.9997 Q821.782 47.0148 816.921 47.0148 L808.009 47.0148 L808.009 72.576 L799.826 72.576 L799.826 12.096 L818.299 12.096 Q828.669 12.096 833.773 16.4305 Q838.877 20.7649 838.877 29.5149 Q838.877 35.2267 836.204 38.994 Q833.57 42.7613 828.507 44.2197 M808.009 18.8205 L808.009 40.2903 L818.299 40.2903 Q824.213 40.2903 827.211 37.5762 Q830.249 34.8216 830.249 29.5149 Q830.249 24.2082 827.211 21.5346 Q824.213 18.8205 818.299 18.8205 L808.009 18.8205 Z" fill="#000000" fill-rule="nonzero" fill-opacity="1" /><path clip-path="url(#clip390)" d="M892.228 48.0275 L892.228 51.6733 L857.957 51.6733 Q858.443 59.3701 862.575 63.421 Q866.747 67.4314 874.161 67.4314 Q878.454 67.4314 882.465 66.3781 Q886.516 65.3249 890.486 63.2184 L890.486 70.267 Q886.475 71.9684 882.262 72.8596 Q878.049 73.7508 873.715 73.7508 Q862.858 73.7508 856.499 67.4314 Q850.179 61.1119 850.179 50.3365 Q850.179 39.1965 856.175 32.6746 Q862.21 26.1121 872.419 26.1121 Q881.574 26.1121 886.88 32.0264 Q892.228 37.9003 892.228 48.0275 M884.774 45.84 Q884.693 39.7232 881.331 36.0774 Q878.009 32.4315 872.5 32.4315 Q866.261 32.4315 862.494 35.9558 Q858.767 39.4801 858.2 45.8805 L884.774 45.84 Z" fill="#000000" fill-rule="nonzero" fill-opacity="1" /><path clip-path="url(#clip390)" d="M911.834 14.324 L911.834 27.2059 L927.187 27.2059 L927.187 32.9987 L911.834 32.9987 L911.834 57.6282 Q911.834 63.1779 913.333 64.7578 Q914.872 66.3376 919.531 66.3376 L927.187 66.3376 L927.187 72.576 L919.531 72.576 Q910.902 72.576 907.621 69.3758 Q904.34 66.1351 904.34 57.6282 L904.34 32.9987 L898.871 32.9987 L898.871 27.2059 L904.34 27.2059 L904.34 14.324 L911.834 14.324 Z" fill="#000000" fill-rule="nonzero" fill-opacity="1" /><path clip-path="url(#clip390)" d="M936.22 54.671 L936.22 27.2059 L943.674 27.2059 L943.674 54.3874 Q943.674 60.8284 946.186 64.0691 Q948.697 67.2693 953.72 67.2693 Q959.756 67.2693 963.24 63.421 Q966.764 59.5726 966.764 52.9291 L966.764 27.2059 L974.218 27.2059 L974.218 72.576 L966.764 72.576 L966.764 65.6084 Q964.05 69.7404 960.445 71.7658 Q956.88 73.7508 952.14 73.7508 Q944.322 73.7508 940.271 68.8897 Q936.22 64.0286 936.22 54.671 M954.976 26.1121 L954.976 26.1121 Z" fill="#000000" fill-rule="nonzero" fill-opacity="1" /><path clip-path="url(#clip390)" d="M1015.86 34.1734 Q1014.61 33.4443 1013.11 33.1202 Q1011.65 32.7556 1009.87 32.7556 Q1003.55 32.7556 1000.14 36.8875 Q996.781 40.9789 996.781 48.6757 L996.781 72.576 L989.287 72.576 L989.287 27.2059 L996.781 27.2059 L996.781 34.2544 Q999.131 30.1225 1002.9 28.1376 Q1006.67 26.1121 1012.05 26.1121 Q1012.82 26.1121 1013.75 26.2337 Q1014.69 26.3147 1015.82 26.5172 L1015.86 34.1734 Z" fill="#000000" fill-rule="nonzero" fill-opacity="1" /><path clip-path="url(#clip390)" d="M1059.93 45.1919 L1059.93 72.576 L1052.48 72.576 L1052.48 45.4349 Q1052.48 38.994 1049.97 35.7938 Q1047.46 32.5936 1042.44 32.5936 Q1036.4 32.5936 1032.92 36.4419 Q1029.43 40.2903 1029.43 46.9338 L1029.43 72.576 L1021.94 72.576 L1021.94 27.2059 L1029.43 27.2059 L1029.43 34.2544 Q1032.11 30.163 1035.71 28.1376 Q1039.36 26.1121 1044.1 26.1121 Q1051.91 26.1121 1055.92 30.9732 Q1059.93 35.7938 1059.93 45.1919 Z" fill="#000000" fill-rule="nonzero" fill-opacity="1" /><path clip-path="url(#clip390)" d="M1093.11 12.096 L1144.27 12.096 L1144.27 18.9825 L1122.81 18.9825 L1122.81 72.576 L1114.58 72.576 L1114.58 18.9825 L1093.11 18.9825 L1093.11 12.096 Z" fill="#000000" fill-rule="nonzero" fill-opacity="1" /><path clip-path="url(#clip390)" d="M1149.3 27.2059 L1156.75 27.2059 L1156.75 72.576 L1149.3 72.576 L1149.3 27.2059 M1149.3 9.54393 L1156.75 9.54393 L1156.75 18.9825 L1149.3 18.9825 L1149.3 9.54393 Z" fill="#000000" fill-rule="nonzero" fill-opacity="1" /><path clip-path="url(#clip390)" d="M1207.67 35.9153 Q1210.47 30.8922 1214.36 28.5022 Q1218.24 26.1121 1223.51 26.1121 Q1230.6 26.1121 1234.45 31.0947 Q1238.3 36.0368 1238.3 45.1919 L1238.3 72.576 L1230.8 72.576 L1230.8 45.4349 Q1230.8 38.913 1228.49 35.7533 Q1226.18 32.5936 1221.44 32.5936 Q1215.65 32.5936 1212.29 36.4419 Q1208.93 40.2903 1208.93 46.9338 L1208.93 72.576 L1201.43 72.576 L1201.43 45.4349 Q1201.43 38.8725 1199.12 35.7533 Q1196.82 32.5936 1191.99 32.5936 Q1186.28 32.5936 1182.92 36.4824 Q1179.56 40.3308 1179.56 46.9338 L1179.56 72.576 L1172.06 72.576 L1172.06 27.2059 L1179.56 27.2059 L1179.56 34.2544 Q1182.11 30.082 1185.68 28.0971 Q1189.24 26.1121 1194.14 26.1121 Q1199.08 26.1121 1202.53 28.6237 Q1206.01 31.1352 1207.67 35.9153 Z" fill="#000000" fill-rule="nonzero" fill-opacity="1" /><path clip-path="url(#clip390)" d="M1291.97 48.0275 L1291.97 51.6733 L1257.7 51.6733 Q1258.19 59.3701 1262.32 63.421 Q1266.49 67.4314 1273.9 67.4314 Q1278.2 67.4314 1282.21 66.3781 Q1286.26 65.3249 1290.23 63.2184 L1290.23 70.267 Q1286.22 71.9684 1282.01 72.8596 Q1277.79 73.7508 1273.46 73.7508 Q1262.6 73.7508 1256.24 67.4314 Q1249.92 61.1119 1249.92 50.3365 Q1249.92 39.1965 1255.92 32.6746 Q1261.95 26.1121 1272.16 26.1121 Q1281.32 26.1121 1286.62 32.0264 Q1291.97 37.9003 1291.97 48.0275 M1284.52 45.84 Q1284.44 39.7232 1281.07 36.0774 Q1277.75 32.4315 1272.24 32.4315 Q1266 32.4315 1262.24 35.9558 Q1258.51 39.4801 1257.94 45.8805 L1284.52 45.84 Z" fill="#000000" fill-rule="nonzero" fill-opacity="1" /><path clip-path="url(#clip390)" d="M1330.9 12.096 L1369.14 12.096 L1369.14 18.9825 L1339.08 18.9825 L1339.08 36.8875 L1367.88 36.8875 L1367.88 43.7741 L1339.08 43.7741 L1339.08 65.6895 L1369.87 65.6895 L1369.87 72.576 L1330.9 72.576 L1330.9 12.096 Z" fill="#000000" fill-rule="nonzero" fill-opacity="1" /><path clip-path="url(#clip390)" d="M1411.92 28.5427 L1411.92 35.5912 Q1408.76 33.9709 1405.36 33.1607 Q1401.95 32.3505 1398.31 32.3505 Q1392.76 32.3505 1389.96 34.0519 Q1387.21 35.7533 1387.21 39.156 Q1387.21 41.7486 1389.19 43.2475 Q1391.18 44.7058 1397.17 46.0426 L1399.72 46.6097 Q1407.66 48.3111 1410.99 51.4303 Q1414.35 54.509 1414.35 60.0587 Q1414.35 66.3781 1409.33 70.0644 Q1404.34 73.7508 1395.59 73.7508 Q1391.95 73.7508 1387.98 73.0216 Q1384.05 72.3329 1379.67 70.9151 L1379.67 63.2184 Q1383.8 65.3654 1387.82 66.4591 Q1391.83 67.5124 1395.75 67.5124 Q1401.02 67.5124 1403.86 65.73 Q1406.69 63.9071 1406.69 60.6258 Q1406.69 57.5877 1404.63 55.9673 Q1402.6 54.3469 1395.67 52.8481 L1393.08 52.2405 Q1386.15 50.7821 1383.08 47.7845 Q1380 44.7463 1380 39.4801 Q1380 33.0797 1384.53 29.5959 Q1389.07 26.1121 1397.42 26.1121 Q1401.55 26.1121 1405.19 26.7198 Q1408.84 27.3274 1411.92 28.5427 Z" fill="#000000" fill-rule="nonzero" fill-opacity="1" /><path clip-path="url(#clip390)" d="M1433.59 14.324 L1433.59 27.2059 L1448.94 27.2059 L1448.94 32.9987 L1433.59 32.9987 L1433.59 57.6282 Q1433.59 63.1779 1435.09 64.7578 Q1436.63 66.3376 1441.29 66.3376 L1448.94 66.3376 L1448.94 72.576 L1441.29 72.576 Q1432.66 72.576 1429.38 69.3758 Q1426.1 66.1351 1426.1 57.6282 L1426.1 32.9987 L1420.63 32.9987 L1420.63 27.2059 L1426.1 27.2059 L1426.1 14.324 L1433.59 14.324 Z" fill="#000000" fill-rule="nonzero" fill-opacity="1" /><path clip-path="url(#clip390)" d="M1458.75 27.2059 L1466.2 27.2059 L1466.2 72.576 L1458.75 72.576 L1458.75 27.2059 M1458.75 9.54393 L1466.2 9.54393 L1466.2 18.9825 L1458.75 18.9825 L1458.75 9.54393 Z" fill="#000000" fill-rule="nonzero" fill-opacity="1" /><path clip-path="url(#clip390)" d="M1517.12 35.9153 Q1519.92 30.8922 1523.8 28.5022 Q1527.69 26.1121 1532.96 26.1121 Q1540.05 26.1121 1543.9 31.0947 Q1547.74 36.0368 1547.74 45.1919 L1547.74 72.576 L1540.25 72.576 L1540.25 45.4349 Q1540.25 38.913 1537.94 35.7533 Q1535.63 32.5936 1530.89 32.5936 Q1525.1 32.5936 1521.74 36.4419 Q1518.38 40.2903 1518.38 46.9338 L1518.38 72.576 L1510.88 72.576 L1510.88 45.4349 Q1510.88 38.8725 1508.57 35.7533 Q1506.26 32.5936 1501.44 32.5936 Q1495.73 32.5936 1492.37 36.4824 Q1489.01 40.3308 1489.01 46.9338 L1489.01 72.576 L1481.51 72.576 L1481.51 27.2059 L1489.01 27.2059 L1489.01 34.2544 Q1491.56 30.082 1495.12 28.0971 Q1498.69 26.1121 1503.59 26.1121 Q1508.53 26.1121 1511.98 28.6237 Q1515.46 31.1352 1517.12 35.9153 Z" fill="#000000" fill-rule="nonzero" fill-opacity="1" /><path clip-path="url(#clip390)" d="M1583.23 49.7694 Q1574.2 49.7694 1570.71 51.8354 Q1567.23 53.9013 1567.23 58.8839 Q1567.23 62.8538 1569.82 65.2034 Q1572.46 67.5124 1576.95 67.5124 Q1583.15 67.5124 1586.88 63.1374 Q1590.64 58.7219 1590.64 51.4303 L1590.64 49.7694 L1583.23 49.7694 M1598.1 46.6907 L1598.1 72.576 L1590.64 72.576 L1590.64 65.6895 Q1588.09 69.8214 1584.28 71.8063 Q1580.48 73.7508 1574.97 73.7508 Q1568 73.7508 1563.87 69.8619 Q1559.78 65.9325 1559.78 59.3701 Q1559.78 51.7138 1564.88 47.825 Q1570.02 43.9361 1580.19 43.9361 L1590.64 43.9361 L1590.64 43.2069 Q1590.64 38.0623 1587.24 35.2672 Q1583.88 32.4315 1577.76 32.4315 Q1573.87 32.4315 1570.19 33.3632 Q1566.5 34.295 1563.1 36.1584 L1563.1 29.2718 Q1567.19 27.692 1571.04 26.9223 Q1574.89 26.1121 1578.53 26.1121 Q1588.38 26.1121 1593.24 31.2163 Q1598.1 36.3204 1598.1 46.6907 Z" fill="#000000" fill-rule="nonzero" fill-opacity="1" /><path clip-path="url(#clip390)" d="M1620.82 14.324 L1620.82 27.2059 L1636.18 27.2059 L1636.18 32.9987 L1620.82 32.9987 L1620.82 57.6282 Q1620.82 63.1779 1622.32 64.7578 Q1623.86 66.3376 1628.52 66.3376 L1636.18 66.3376 L1636.18 72.576 L1628.52 72.576 Q1619.89 72.576 1616.61 69.3758 Q1613.33 66.1351 1613.33 57.6282 L1613.33 32.9987 L1607.86 32.9987 L1607.86 27.2059 L1613.33 27.2059 L1613.33 14.324 L1620.82 14.324 Z" fill="#000000" fill-rule="nonzero" fill-opacity="1" /><path clip-path="url(#clip390)" d="M1684.79 48.0275 L1684.79 51.6733 L1650.52 51.6733 Q1651 59.3701 1655.13 63.421 Q1659.31 67.4314 1666.72 67.4314 Q1671.01 67.4314 1675.02 66.3781 Q1679.08 65.3249 1683.05 63.2184 L1683.05 70.267 Q1679.03 71.9684 1674.82 72.8596 Q1670.61 73.7508 1666.27 73.7508 Q1655.42 73.7508 1649.06 67.4314 Q1642.74 61.1119 1642.74 50.3365 Q1642.74 39.1965 1648.73 32.6746 Q1654.77 26.1121 1664.98 26.1121 Q1674.13 26.1121 1679.44 32.0264 Q1684.79 37.9003 1684.79 48.0275 M1677.33 45.84 Q1677.25 39.7232 1673.89 36.0774 Q1670.57 32.4315 1665.06 32.4315 Q1658.82 32.4315 1655.05 35.9558 Q1651.33 39.4801 1650.76 45.8805 L1677.33 45.84 Z" fill="#000000" fill-rule="nonzero" fill-opacity="1" /><path clip-path="url(#clip390)" d="M1725.94 28.5427 L1725.94 35.5912 Q1722.78 33.9709 1719.38 33.1607 Q1715.98 32.3505 1712.33 32.3505 Q1706.78 32.3505 1703.99 34.0519 Q1701.23 35.7533 1701.23 39.156 Q1701.23 41.7486 1703.22 43.2475 Q1705.2 44.7058 1711.2 46.0426 L1713.75 46.6097 Q1721.69 48.3111 1725.01 51.4303 Q1728.37 54.509 1728.37 60.0587 Q1728.37 66.3781 1723.35 70.0644 Q1718.37 73.7508 1709.62 73.7508 Q1705.97 73.7508 1702 73.0216 Q1698.07 72.3329 1693.7 70.9151 L1693.7 63.2184 Q1697.83 65.3654 1701.84 66.4591 Q1705.85 67.5124 1709.78 67.5124 Q1715.05 67.5124 1717.88 65.73 Q1720.72 63.9071 1720.72 60.6258 Q1720.72 57.5877 1718.65 55.9673 Q1716.63 54.3469 1709.7 52.8481 L1707.11 52.2405 Q1700.18 50.7821 1697.1 47.7845 Q1694.02 44.7463 1694.02 39.4801 Q1694.02 33.0797 1698.56 29.5959 Q1703.1 26.1121 1711.44 26.1121 Q1715.57 26.1121 1719.22 26.7198 Q1722.87 27.3274 1725.94 28.5427 Z" fill="#000000" fill-rule="nonzero" fill-opacity="1" /><polyline clip-path="url(#clip392)" style="stroke:#ff0000; stroke-linecap:round; stroke-linejoin:round; stroke-width:4; stroke-opacity:1; fill:none" points="2291.13,659.727 2062.9,691.935 1834.67,717.603 1606.45,733.672 1378.22,735.651 1149.99,716.949 921.756,667.891 693.526,574.277 465.297,415.263 237.067,160.256 "/>
<polyline clip-path="url(#clip392)" style="stroke:#000000; stroke-linecap:round; stroke-linejoin:round; stroke-width:4; stroke-opacity:1; fill:none" points="2291.13,1386.4 2062.9,1372.42 1834.67,1351.9 1606.45,1321.78 1378.22,1277.57 1149.99,1212.68 921.756,1117.43 693.526,977.627 465.297,772.425 237.067,471.229 "/>
<polyline clip-path="url(#clip392)" style="stroke:#008000; stroke-linecap:round; stroke-linejoin:round; stroke-width:4; stroke-opacity:1; fill:none" points="2291.13,1209.74 2062.9,1170.03 1834.67,1120.99 1606.45,1062.9 1378.22,991.026 1149.99,904.077 921.756,794.62 693.526,654.708 465.297,472.594 237.067,271.132 "/>
<polyline clip-path="url(#clip392)" style="stroke:#0000ff; stroke-linecap:round; stroke-linejoin:round; stroke-width:4; stroke-opacity:1; fill:none" points="2291.13,1209.74 2062.9,1170.03 1834.67,1120.99 1606.45,1062.9 1378.22,991.026 1149.99,904.077 921.756,794.62 693.526,654.708 465.297,472.595 237.067,260.761 "/>
<polyline clip-path="url(#clip392)" style="stroke:#800080; stroke-linecap:round; stroke-linejoin:round; stroke-width:4; stroke-opacity:1; fill:none" points="2291.13,1236.77 2062.9,1179.11 1834.67,1116.07 1606.45,1054 1378.22,965.561 1149.99,874.822 921.756,765.74 693.526,629.678 465.297,444.793 237.067,162.301 "/>
<path clip-path="url(#clip390)" d="M1547.47 477.836 L2280.18 477.836 L2280.18 166.796 L1547.47 166.796  Z" fill="#ffffff" fill-rule="evenodd" fill-opacity="1"/>
<polyline clip-path="url(#clip390)" style="stroke:#000000; stroke-linecap:round; stroke-linejoin:round; stroke-width:4; stroke-opacity:1; fill:none" points="1547.47,477.836 2280.18,477.836 2280.18,166.796 1547.47,166.796 1547.47,477.836 "/>
<polyline clip-path="url(#clip390)" style="stroke:#ff0000; stroke-linecap:round; stroke-linejoin:round; stroke-width:4; stroke-opacity:1; fill:none" points="1571.67,218.636 1716.82,218.636 "/>
<path clip-path="url(#clip390)" d="M1761.36 214.967 Q1762.96 212.096 1765.18 210.731 Q1767.4 209.365 1770.41 209.365 Q1774.46 209.365 1776.66 212.212 Q1778.86 215.036 1778.86 220.268 L1778.86 235.916 L1774.58 235.916 L1774.58 220.407 Q1774.58 216.68 1773.26 214.874 Q1771.94 213.069 1769.23 213.069 Q1765.92 213.069 1764 215.268 Q1762.08 217.467 1762.08 221.263 L1762.08 235.916 L1757.79 235.916 L1757.79 220.407 Q1757.79 216.657 1756.48 214.874 Q1755.16 213.069 1752.4 213.069 Q1749.14 213.069 1747.22 215.291 Q1745.29 217.49 1745.29 221.263 L1745.29 235.916 L1741.01 235.916 L1741.01 209.99 L1745.29 209.99 L1745.29 214.018 Q1746.75 211.633 1748.79 210.499 Q1750.83 209.365 1753.63 209.365 Q1756.45 209.365 1758.42 210.8 Q1760.41 212.235 1761.36 214.967 Z" fill="#000000" fill-rule="nonzero" fill-opacity="1" /><path clip-path="url(#clip390)" d="M1798.14 238.323 Q1796.34 242.953 1794.62 244.365 Q1792.91 245.777 1790.04 245.777 L1786.64 245.777 L1786.64 242.212 L1789.14 242.212 Q1790.9 242.212 1791.87 241.379 Q1792.84 240.545 1794.02 237.443 L1794.79 235.499 L1784.3 209.99 L1788.81 209.99 L1796.91 230.268 L1805.02 209.99 L1809.53 209.99 L1798.14 238.323 Z" fill="#000000" fill-rule="nonzero" fill-opacity="1" /><path clip-path="url(#clip390)" d="M1843.6 199.897 L1843.6 203.439 L1839.53 203.439 Q1837.24 203.439 1836.34 204.365 Q1835.46 205.291 1835.46 207.698 L1835.46 209.99 L1842.47 209.99 L1842.47 213.3 L1835.46 213.3 L1835.46 235.916 L1831.17 235.916 L1831.17 213.3 L1827.1 213.3 L1827.1 209.99 L1831.17 209.99 L1831.17 208.184 Q1831.17 203.856 1833.19 201.888 Q1835.2 199.897 1839.58 199.897 L1843.6 199.897 Z" fill="#000000" fill-rule="nonzero" fill-opacity="1" /><path clip-path="url(#clip390)" d="M1857.22 212.976 Q1853.79 212.976 1851.8 215.661 Q1849.81 218.323 1849.81 222.976 Q1849.81 227.629 1851.78 230.314 Q1853.77 232.976 1857.22 232.976 Q1860.62 232.976 1862.61 230.291 Q1864.6 227.606 1864.6 222.976 Q1864.6 218.37 1862.61 215.684 Q1860.62 212.976 1857.22 212.976 M1857.22 209.365 Q1862.77 209.365 1865.94 212.976 Q1869.11 216.587 1869.11 222.976 Q1869.11 229.342 1865.94 232.976 Q1862.77 236.587 1857.22 236.587 Q1851.64 236.587 1848.47 232.976 Q1845.32 229.342 1845.32 222.976 Q1845.32 216.587 1848.47 212.976 Q1851.64 209.365 1857.22 209.365 Z" fill="#000000" fill-rule="nonzero" fill-opacity="1" /><path clip-path="url(#clip390)" d="M1891.2 213.971 Q1890.48 213.555 1889.62 213.37 Q1888.79 213.161 1887.77 213.161 Q1884.16 213.161 1882.22 215.522 Q1880.29 217.86 1880.29 222.258 L1880.29 235.916 L1876.01 235.916 L1876.01 209.99 L1880.29 209.99 L1880.29 214.018 Q1881.64 211.657 1883.79 210.522 Q1885.94 209.365 1889.02 209.365 Q1889.46 209.365 1889.99 209.434 Q1890.53 209.481 1891.17 209.596 L1891.2 213.971 Z" fill="#000000" fill-rule="nonzero" fill-opacity="1" /><path clip-path="url(#clip390)" d="M1915.02 214.967 Q1916.61 212.096 1918.84 210.731 Q1921.06 209.365 1924.07 209.365 Q1928.12 209.365 1930.32 212.212 Q1932.52 215.036 1932.52 220.268 L1932.52 235.916 L1928.23 235.916 L1928.23 220.407 Q1928.23 216.68 1926.91 214.874 Q1925.59 213.069 1922.89 213.069 Q1919.58 213.069 1917.66 215.268 Q1915.73 217.467 1915.73 221.263 L1915.73 235.916 L1911.45 235.916 L1911.45 220.407 Q1911.45 216.657 1910.13 214.874 Q1908.81 213.069 1906.06 213.069 Q1902.79 213.069 1900.87 215.291 Q1898.95 217.49 1898.95 221.263 L1898.95 235.916 L1894.67 235.916 L1894.67 209.99 L1898.95 209.99 L1898.95 214.018 Q1900.41 211.633 1902.45 210.499 Q1904.48 209.365 1907.28 209.365 Q1910.11 209.365 1912.08 210.8 Q1914.07 212.235 1915.02 214.967 Z" fill="#000000" fill-rule="nonzero" fill-opacity="1" /><path clip-path="url(#clip390)" d="M1940.57 225.684 L1940.57 209.99 L1944.83 209.99 L1944.83 225.522 Q1944.83 229.203 1946.27 231.055 Q1947.7 232.883 1950.57 232.883 Q1954.02 232.883 1956.01 230.684 Q1958.03 228.485 1958.03 224.689 L1958.03 209.99 L1962.28 209.99 L1962.28 235.916 L1958.03 235.916 L1958.03 231.934 Q1956.47 234.295 1954.41 235.453 Q1952.38 236.587 1949.67 236.587 Q1945.2 236.587 1942.89 233.809 Q1940.57 231.031 1940.57 225.684 M1951.29 209.365 L1951.29 209.365 Z" fill="#000000" fill-rule="nonzero" fill-opacity="1" /><path clip-path="url(#clip390)" d="M1971.06 199.897 L1975.32 199.897 L1975.32 235.916 L1971.06 235.916 L1971.06 199.897 Z" fill="#000000" fill-rule="nonzero" fill-opacity="1" /><path clip-path="url(#clip390)" d="M1996.01 222.883 Q1990.85 222.883 1988.86 224.064 Q1986.87 225.244 1986.87 228.092 Q1986.87 230.36 1988.35 231.703 Q1989.85 233.022 1992.42 233.022 Q1995.96 233.022 1998.09 230.522 Q2000.25 227.999 2000.25 223.832 L2000.25 222.883 L1996.01 222.883 M2004.51 221.124 L2004.51 235.916 L2000.25 235.916 L2000.25 231.981 Q1998.79 234.342 1996.61 235.476 Q1994.44 236.587 1991.29 236.587 Q1987.31 236.587 1984.95 234.365 Q1982.61 232.119 1982.61 228.369 Q1982.61 223.994 1985.53 221.772 Q1988.46 219.55 1994.27 219.55 L2000.25 219.55 L2000.25 219.133 Q2000.25 216.194 1998.3 214.596 Q1996.38 212.976 1992.89 212.976 Q1990.66 212.976 1988.56 213.508 Q1986.45 214.041 1984.51 215.106 L1984.51 211.17 Q1986.84 210.268 1989.04 209.828 Q1991.24 209.365 1993.33 209.365 Q1998.95 209.365 2001.73 212.282 Q2004.51 215.198 2004.51 221.124 Z" fill="#000000" fill-rule="nonzero" fill-opacity="1" /><polyline clip-path="url(#clip390)" style="stroke:#000000; stroke-linecap:round; stroke-linejoin:round; stroke-width:4; stroke-opacity:1; fill:none" points="1571.67,270.476 1716.82,270.476 "/>
<path clip-path="url(#clip390)" d="M1762.73 272.108 L1762.73 287.756 L1758.47 287.756 L1758.47 272.247 Q1758.47 268.566 1757.03 266.737 Q1755.6 264.909 1752.73 264.909 Q1749.28 264.909 1747.29 267.108 Q1745.29 269.307 1745.29 273.103 L1745.29 287.756 L1741.01 287.756 L1741.01 261.83 L1745.29 261.83 L1745.29 265.858 Q1746.82 263.52 1748.88 262.362 Q1750.97 261.205 1753.67 261.205 Q1758.14 261.205 1760.43 263.983 Q1762.73 266.737 1762.73 272.108 Z" fill="#000000" fill-rule="nonzero" fill-opacity="1" /><path clip-path="url(#clip390)" d="M1781.27 264.816 Q1777.84 264.816 1775.85 267.501 Q1773.86 270.163 1773.86 274.816 Q1773.86 279.469 1775.83 282.154 Q1777.82 284.816 1781.27 284.816 Q1784.67 284.816 1786.66 282.131 Q1788.65 279.446 1788.65 274.816 Q1788.65 270.21 1786.66 267.524 Q1784.67 264.816 1781.27 264.816 M1781.27 261.205 Q1786.82 261.205 1789.99 264.816 Q1793.16 268.427 1793.16 274.816 Q1793.16 281.182 1789.99 284.816 Q1786.82 288.427 1781.27 288.427 Q1775.69 288.427 1772.52 284.816 Q1769.37 281.182 1769.37 274.816 Q1769.37 268.427 1772.52 264.816 Q1775.69 261.205 1781.27 261.205 Z" fill="#000000" fill-rule="nonzero" fill-opacity="1" /><path clip-path="url(#clip390)" d="M1819.41 283.867 L1819.41 297.617 L1815.13 297.617 L1815.13 261.83 L1819.41 261.83 L1819.41 265.765 Q1820.76 263.45 1822.79 262.339 Q1824.85 261.205 1827.7 261.205 Q1832.42 261.205 1835.36 264.955 Q1838.33 268.705 1838.33 274.816 Q1838.33 280.927 1835.36 284.677 Q1832.42 288.427 1827.7 288.427 Q1824.85 288.427 1822.79 287.316 Q1820.76 286.182 1819.41 283.867 M1833.91 274.816 Q1833.91 270.117 1831.96 267.455 Q1830.04 264.77 1826.66 264.77 Q1823.28 264.77 1821.34 267.455 Q1819.41 270.117 1819.41 274.816 Q1819.41 279.515 1821.34 282.2 Q1823.28 284.862 1826.66 284.862 Q1830.04 284.862 1831.96 282.2 Q1833.91 279.515 1833.91 274.816 Z" fill="#000000" fill-rule="nonzero" fill-opacity="1" /><path clip-path="url(#clip390)" d="M1860.41 265.811 Q1859.69 265.395 1858.84 265.21 Q1858 265.001 1856.98 265.001 Q1853.37 265.001 1851.43 267.362 Q1849.51 269.7 1849.51 274.098 L1849.51 287.756 L1845.22 287.756 L1845.22 261.83 L1849.51 261.83 L1849.51 265.858 Q1850.85 263.497 1853 262.362 Q1855.16 261.205 1858.23 261.205 Q1858.67 261.205 1859.21 261.274 Q1859.74 261.321 1860.39 261.436 L1860.41 265.811 Z" fill="#000000" fill-rule="nonzero" fill-opacity="1" /><path clip-path="url(#clip390)" d="M1886.01 273.728 L1886.01 275.811 L1866.43 275.811 Q1866.71 280.209 1869.07 282.524 Q1871.45 284.816 1875.69 284.816 Q1878.14 284.816 1880.43 284.214 Q1882.75 283.612 1885.02 282.409 L1885.02 286.436 Q1882.72 287.408 1880.32 287.918 Q1877.91 288.427 1875.43 288.427 Q1869.23 288.427 1865.6 284.816 Q1861.98 281.205 1861.98 275.047 Q1861.98 268.682 1865.41 264.955 Q1868.86 261.205 1874.69 261.205 Q1879.92 261.205 1882.96 264.585 Q1886.01 267.941 1886.01 273.728 M1881.75 272.478 Q1881.71 268.983 1879.78 266.899 Q1877.89 264.816 1874.74 264.816 Q1871.17 264.816 1869.02 266.83 Q1866.89 268.844 1866.57 272.501 L1881.75 272.478 Z" fill="#000000" fill-rule="nonzero" fill-opacity="1" /><path clip-path="url(#clip390)" d="M1906.13 251.737 L1906.13 255.279 L1902.05 255.279 Q1899.76 255.279 1898.86 256.205 Q1897.98 257.131 1897.98 259.538 L1897.98 261.83 L1904.99 261.83 L1904.99 265.14 L1897.98 265.14 L1897.98 287.756 L1893.7 287.756 L1893.7 265.14 L1889.62 265.14 L1889.62 261.83 L1893.7 261.83 L1893.7 260.024 Q1893.7 255.696 1895.71 253.728 Q1897.72 251.737 1902.1 251.737 L1906.13 251.737 Z" fill="#000000" fill-rule="nonzero" fill-opacity="1" /><path clip-path="url(#clip390)" d="M1921.47 274.723 Q1916.31 274.723 1914.32 275.904 Q1912.33 277.084 1912.33 279.932 Q1912.33 282.2 1913.81 283.543 Q1915.32 284.862 1917.89 284.862 Q1921.43 284.862 1923.56 282.362 Q1925.71 279.839 1925.71 275.672 L1925.71 274.723 L1921.47 274.723 M1929.97 272.964 L1929.97 287.756 L1925.71 287.756 L1925.71 283.821 Q1924.25 286.182 1922.08 287.316 Q1919.9 288.427 1916.75 288.427 Q1912.77 288.427 1910.41 286.205 Q1908.07 283.959 1908.07 280.209 Q1908.07 275.834 1910.99 273.612 Q1913.93 271.39 1919.74 271.39 L1925.71 271.39 L1925.71 270.973 Q1925.71 268.034 1923.77 266.436 Q1921.84 264.816 1918.35 264.816 Q1916.13 264.816 1914.02 265.348 Q1911.91 265.881 1909.97 266.946 L1909.97 263.01 Q1912.31 262.108 1914.51 261.668 Q1916.71 261.205 1918.79 261.205 Q1924.41 261.205 1927.19 264.122 Q1929.97 267.038 1929.97 272.964 Z" fill="#000000" fill-rule="nonzero" fill-opacity="1" /><path clip-path="url(#clip390)" d="M1957.4 262.825 L1957.4 266.807 Q1955.59 265.811 1953.77 265.325 Q1951.96 264.816 1950.11 264.816 Q1945.97 264.816 1943.67 267.455 Q1941.38 270.071 1941.38 274.816 Q1941.38 279.561 1943.67 282.2 Q1945.97 284.816 1950.11 284.816 Q1951.96 284.816 1953.77 284.33 Q1955.59 283.821 1957.4 282.825 L1957.4 286.76 Q1955.62 287.594 1953.7 288.01 Q1951.8 288.427 1949.65 288.427 Q1943.79 288.427 1940.34 284.746 Q1936.89 281.066 1936.89 274.816 Q1936.89 268.473 1940.36 264.839 Q1943.86 261.205 1949.92 261.205 Q1951.89 261.205 1953.77 261.622 Q1955.64 262.015 1957.4 262.825 Z" fill="#000000" fill-rule="nonzero" fill-opacity="1" /><path clip-path="url(#clip390)" d="M1969.02 254.469 L1969.02 261.83 L1977.79 261.83 L1977.79 265.14 L1969.02 265.14 L1969.02 279.214 Q1969.02 282.385 1969.88 283.288 Q1970.76 284.191 1973.42 284.191 L1977.79 284.191 L1977.79 287.756 L1973.42 287.756 Q1968.49 287.756 1966.61 285.927 Q1964.74 284.075 1964.74 279.214 L1964.74 265.14 L1961.61 265.14 L1961.61 261.83 L1964.74 261.83 L1964.74 254.469 L1969.02 254.469 Z" fill="#000000" fill-rule="nonzero" fill-opacity="1" /><path clip-path="url(#clip390)" d="M1993.44 264.816 Q1990.02 264.816 1988.03 267.501 Q1986.03 270.163 1986.03 274.816 Q1986.03 279.469 1988 282.154 Q1989.99 284.816 1993.44 284.816 Q1996.84 284.816 1998.84 282.131 Q2000.83 279.446 2000.83 274.816 Q2000.83 270.21 1998.84 267.524 Q1996.84 264.816 1993.44 264.816 M1993.44 261.205 Q1999 261.205 2002.17 264.816 Q2005.34 268.427 2005.34 274.816 Q2005.34 281.182 2002.17 284.816 Q1999 288.427 1993.44 288.427 Q1987.86 288.427 1984.69 284.816 Q1981.54 281.182 1981.54 274.816 Q1981.54 268.427 1984.69 264.816 Q1987.86 261.205 1993.44 261.205 Z" fill="#000000" fill-rule="nonzero" fill-opacity="1" /><path clip-path="url(#clip390)" d="M2027.42 265.811 Q2026.71 265.395 2025.85 265.21 Q2025.02 265.001 2024 265.001 Q2020.39 265.001 2018.44 267.362 Q2016.52 269.7 2016.52 274.098 L2016.52 287.756 L2012.24 287.756 L2012.24 261.83 L2016.52 261.83 L2016.52 265.858 Q2017.86 263.497 2020.02 262.362 Q2022.17 261.205 2025.25 261.205 Q2025.69 261.205 2026.22 261.274 Q2026.75 261.321 2027.4 261.436 L2027.42 265.811 Z" fill="#000000" fill-rule="nonzero" fill-opacity="1" /><polyline clip-path="url(#clip390)" style="stroke:#008000; stroke-linecap:round; stroke-linejoin:round; stroke-width:4; stroke-opacity:1; fill:none" points="1571.67,322.316 1716.82,322.316 "/>
<path clip-path="url(#clip390)" d="M1741.01 305.036 L1745.69 305.036 L1745.69 335.661 L1762.52 335.661 L1762.52 339.596 L1741.01 339.596 L1741.01 305.036 Z" fill="#000000" fill-rule="nonzero" fill-opacity="1" /><path clip-path="url(#clip390)" d="M1788.58 325.568 L1788.58 327.651 L1769 327.651 Q1769.28 332.049 1771.64 334.364 Q1774.02 336.656 1778.26 336.656 Q1780.71 336.656 1783 336.054 Q1785.32 335.452 1787.59 334.249 L1787.59 338.276 Q1785.29 339.248 1782.89 339.758 Q1780.48 340.267 1778 340.267 Q1771.8 340.267 1768.17 336.656 Q1764.55 333.045 1764.55 326.887 Q1764.55 320.522 1767.98 316.795 Q1771.43 313.045 1777.26 313.045 Q1782.49 313.045 1785.53 316.425 Q1788.58 319.781 1788.58 325.568 M1784.32 324.318 Q1784.28 320.823 1782.35 318.739 Q1780.46 316.656 1777.31 316.656 Q1773.74 316.656 1771.59 318.67 Q1769.46 320.684 1769.14 324.341 L1784.32 324.318 Z" fill="#000000" fill-rule="nonzero" fill-opacity="1" /><path clip-path="url(#clip390)" d="M1812.1 314.434 L1812.1 318.462 Q1810.29 317.536 1808.35 317.073 Q1806.41 316.61 1804.32 316.61 Q1801.15 316.61 1799.55 317.582 Q1797.98 318.554 1797.98 320.499 Q1797.98 321.98 1799.11 322.837 Q1800.25 323.67 1803.67 324.434 L1805.13 324.758 Q1809.67 325.73 1811.57 327.512 Q1813.49 329.272 1813.49 332.443 Q1813.49 336.054 1810.62 338.161 Q1807.77 340.267 1802.77 340.267 Q1800.69 340.267 1798.42 339.85 Q1796.17 339.457 1793.67 338.647 L1793.67 334.249 Q1796.04 335.475 1798.33 336.1 Q1800.62 336.702 1802.86 336.702 Q1805.87 336.702 1807.49 335.684 Q1809.11 334.642 1809.11 332.767 Q1809.11 331.031 1807.93 330.105 Q1806.78 329.179 1802.82 328.323 L1801.34 327.975 Q1797.38 327.142 1795.62 325.429 Q1793.86 323.693 1793.86 320.684 Q1793.86 317.026 1796.45 315.036 Q1799.04 313.045 1803.81 313.045 Q1806.17 313.045 1808.26 313.392 Q1810.34 313.739 1812.1 314.434 Z" fill="#000000" fill-rule="nonzero" fill-opacity="1" /><path clip-path="url(#clip390)" d="M1824.48 306.309 L1824.48 313.67 L1833.26 313.67 L1833.26 316.98 L1824.48 316.98 L1824.48 331.054 Q1824.48 334.225 1825.34 335.128 Q1826.22 336.031 1828.88 336.031 L1833.26 336.031 L1833.26 339.596 L1828.88 339.596 Q1823.95 339.596 1822.08 337.767 Q1820.2 335.915 1820.2 331.054 L1820.2 316.98 L1817.08 316.98 L1817.08 313.67 L1820.2 313.67 L1820.2 306.309 L1824.48 306.309 Z" fill="#000000" fill-rule="nonzero" fill-opacity="1" /><path clip-path="url(#clip390)" d="M1850.64 326.563 Q1845.48 326.563 1843.49 327.744 Q1841.5 328.924 1841.5 331.772 Q1841.5 334.04 1842.98 335.383 Q1844.48 336.702 1847.05 336.702 Q1850.6 336.702 1852.72 334.202 Q1854.88 331.679 1854.88 327.512 L1854.88 326.563 L1850.64 326.563 M1859.14 324.804 L1859.14 339.596 L1854.88 339.596 L1854.88 335.661 Q1853.42 338.022 1851.24 339.156 Q1849.07 340.267 1845.92 340.267 Q1841.94 340.267 1839.58 338.045 Q1837.24 335.799 1837.24 332.049 Q1837.24 327.674 1840.16 325.452 Q1843.1 323.23 1848.91 323.23 L1854.88 323.23 L1854.88 322.813 Q1854.88 319.874 1852.93 318.276 Q1851.01 316.656 1847.52 316.656 Q1845.29 316.656 1843.19 317.188 Q1841.08 317.721 1839.14 318.786 L1839.14 314.85 Q1841.47 313.948 1843.67 313.508 Q1845.87 313.045 1847.96 313.045 Q1853.58 313.045 1856.36 315.962 Q1859.14 318.878 1859.14 324.804 Z" fill="#000000" fill-rule="nonzero" fill-opacity="1" /><path clip-path="url(#clip390)" d="M1889.46 323.948 L1889.46 339.596 L1885.2 339.596 L1885.2 324.087 Q1885.2 320.406 1883.77 318.577 Q1882.33 316.749 1879.46 316.749 Q1876.01 316.749 1874.02 318.948 Q1872.03 321.147 1872.03 324.943 L1872.03 339.596 L1867.75 339.596 L1867.75 313.67 L1872.03 313.67 L1872.03 317.698 Q1873.56 315.36 1875.62 314.202 Q1877.7 313.045 1880.41 313.045 Q1884.88 313.045 1887.17 315.823 Q1889.46 318.577 1889.46 323.948 Z" fill="#000000" fill-rule="nonzero" fill-opacity="1" /><path clip-path="url(#clip390)" d="M1915.02 326.332 Q1915.02 321.702 1913.09 319.156 Q1911.2 316.61 1907.75 316.61 Q1904.32 316.61 1902.4 319.156 Q1900.5 321.702 1900.5 326.332 Q1900.5 330.938 1902.4 333.485 Q1904.32 336.031 1907.75 336.031 Q1911.2 336.031 1913.09 333.485 Q1915.02 330.938 1915.02 326.332 M1919.28 336.378 Q1919.28 342.998 1916.34 346.216 Q1913.4 349.457 1907.33 349.457 Q1905.09 349.457 1903.09 349.11 Q1901.1 348.785 1899.23 348.091 L1899.23 343.948 Q1901.1 344.966 1902.93 345.452 Q1904.76 345.938 1906.66 345.938 Q1910.85 345.938 1912.93 343.739 Q1915.02 341.563 1915.02 337.142 L1915.02 335.036 Q1913.7 337.327 1911.64 338.461 Q1909.58 339.596 1906.71 339.596 Q1901.94 339.596 1899.02 335.961 Q1896.1 332.327 1896.1 326.332 Q1896.1 320.313 1899.02 316.679 Q1901.94 313.045 1906.71 313.045 Q1909.58 313.045 1911.64 314.179 Q1913.7 315.313 1915.02 317.605 L1915.02 313.67 L1919.28 313.67 L1919.28 336.378 Z" fill="#000000" fill-rule="nonzero" fill-opacity="1" /><path clip-path="url(#clip390)" d="M1964.02 306.17 L1964.02 310.73 Q1961.36 309.457 1959 308.832 Q1956.64 308.207 1954.44 308.207 Q1950.62 308.207 1948.53 309.688 Q1946.47 311.17 1946.47 313.901 Q1946.47 316.193 1947.84 317.374 Q1949.23 318.531 1953.07 319.249 L1955.9 319.827 Q1961.13 320.823 1963.6 323.346 Q1966.1 325.846 1966.1 330.059 Q1966.1 335.082 1962.72 337.674 Q1959.37 340.267 1952.86 340.267 Q1950.41 340.267 1947.63 339.711 Q1944.88 339.156 1941.91 338.068 L1941.91 333.253 Q1944.76 334.85 1947.49 335.661 Q1950.22 336.471 1952.86 336.471 Q1956.87 336.471 1959.04 334.897 Q1961.22 333.323 1961.22 330.406 Q1961.22 327.86 1959.65 326.424 Q1958.09 324.989 1954.53 324.272 L1951.68 323.716 Q1946.45 322.675 1944.11 320.452 Q1941.78 318.23 1941.78 314.272 Q1941.78 309.688 1944.99 307.05 Q1948.23 304.411 1953.9 304.411 Q1956.34 304.411 1958.86 304.851 Q1961.38 305.29 1964.02 306.17 Z" fill="#000000" fill-rule="nonzero" fill-opacity="1" /><path clip-path="url(#clip390)" d="M1977.42 306.309 L1977.42 313.67 L1986.2 313.67 L1986.2 316.98 L1977.42 316.98 L1977.42 331.054 Q1977.42 334.225 1978.28 335.128 Q1979.16 336.031 1981.82 336.031 L1986.2 336.031 L1986.2 339.596 L1981.82 339.596 Q1976.89 339.596 1975.02 337.767 Q1973.14 335.915 1973.14 331.054 L1973.14 316.98 L1970.02 316.98 L1970.02 313.67 L1973.14 313.67 L1973.14 306.309 L1977.42 306.309 Z" fill="#000000" fill-rule="nonzero" fill-opacity="1" /><path clip-path="url(#clip390)" d="M2003.58 326.563 Q1998.42 326.563 1996.43 327.744 Q1994.44 328.924 1994.44 331.772 Q1994.44 334.04 1995.92 335.383 Q1997.42 336.702 1999.99 336.702 Q2003.53 336.702 2005.66 334.202 Q2007.82 331.679 2007.82 327.512 L2007.82 326.563 L2003.58 326.563 M2012.08 324.804 L2012.08 339.596 L2007.82 339.596 L2007.82 335.661 Q2006.36 338.022 2004.18 339.156 Q2002.01 340.267 1998.86 340.267 Q1994.88 340.267 1992.52 338.045 Q1990.18 335.799 1990.18 332.049 Q1990.18 327.674 1993.09 325.452 Q1996.03 323.23 2001.84 323.23 L2007.82 323.23 L2007.82 322.813 Q2007.82 319.874 2005.87 318.276 Q2003.95 316.656 2000.46 316.656 Q1998.23 316.656 1996.13 317.188 Q1994.02 317.721 1992.08 318.786 L1992.08 314.85 Q1994.41 313.948 1996.61 313.508 Q1998.81 313.045 2000.9 313.045 Q2006.52 313.045 2009.3 315.962 Q2012.08 318.878 2012.08 324.804 Z" fill="#000000" fill-rule="nonzero" fill-opacity="1" /><path clip-path="url(#clip390)" d="M2025.06 306.309 L2025.06 313.67 L2033.83 313.67 L2033.83 316.98 L2025.06 316.98 L2025.06 331.054 Q2025.06 334.225 2025.92 335.128 Q2026.8 336.031 2029.46 336.031 L2033.83 336.031 L2033.83 339.596 L2029.46 339.596 Q2024.53 339.596 2022.65 337.767 Q2020.78 335.915 2020.78 331.054 L2020.78 316.98 L2017.65 316.98 L2017.65 313.67 L2020.78 313.67 L2020.78 306.309 L2025.06 306.309 Z" fill="#000000" fill-rule="nonzero" fill-opacity="1" /><polyline clip-path="url(#clip390)" style="stroke:#0000ff; stroke-linecap:round; stroke-linejoin:round; stroke-width:4; stroke-opacity:1; fill:none" points="1571.67,374.156 1716.82,374.156 "/>
<path clip-path="url(#clip390)" d="M1759.92 369.445 L1759.92 355.417 L1764.18 355.417 L1764.18 391.436 L1759.92 391.436 L1759.92 387.547 Q1758.58 389.862 1756.52 390.996 Q1754.48 392.107 1751.61 392.107 Q1746.92 392.107 1743.95 388.357 Q1741.01 384.607 1741.01 378.496 Q1741.01 372.385 1743.95 368.635 Q1746.92 364.885 1751.61 364.885 Q1754.48 364.885 1756.52 366.019 Q1758.58 367.13 1759.92 369.445 M1745.41 378.496 Q1745.41 383.195 1747.33 385.88 Q1749.28 388.542 1752.66 388.542 Q1756.04 388.542 1757.98 385.88 Q1759.92 383.195 1759.92 378.496 Q1759.92 373.797 1757.98 371.135 Q1756.04 368.45 1752.66 368.45 Q1749.28 368.45 1747.33 371.135 Q1745.41 373.797 1745.41 378.496 Z" fill="#000000" fill-rule="nonzero" fill-opacity="1" /><path clip-path="url(#clip390)" d="M1795.13 377.408 L1795.13 379.491 L1775.55 379.491 Q1775.83 383.889 1778.19 386.204 Q1780.57 388.496 1784.81 388.496 Q1787.26 388.496 1789.55 387.894 Q1791.87 387.292 1794.14 386.089 L1794.14 390.116 Q1791.85 391.088 1789.44 391.598 Q1787.03 392.107 1784.55 392.107 Q1778.35 392.107 1774.72 388.496 Q1771.1 384.885 1771.1 378.727 Q1771.1 372.362 1774.53 368.635 Q1777.98 364.885 1783.81 364.885 Q1789.04 364.885 1792.08 368.265 Q1795.13 371.621 1795.13 377.408 M1790.87 376.158 Q1790.83 372.663 1788.91 370.579 Q1787.01 368.496 1783.86 368.496 Q1780.29 368.496 1778.14 370.51 Q1776.01 372.524 1775.69 376.181 L1790.87 376.158 Z" fill="#000000" fill-rule="nonzero" fill-opacity="1" /><path clip-path="url(#clip390)" d="M1820.73 378.496 Q1820.73 373.797 1818.79 371.135 Q1816.87 368.45 1813.49 368.45 Q1810.11 368.45 1808.16 371.135 Q1806.24 373.797 1806.24 378.496 Q1806.24 383.195 1808.16 385.88 Q1810.11 388.542 1813.49 388.542 Q1816.87 388.542 1818.79 385.88 Q1820.73 383.195 1820.73 378.496 M1806.24 369.445 Q1807.59 367.13 1809.62 366.019 Q1811.68 364.885 1814.53 364.885 Q1819.25 364.885 1822.19 368.635 Q1825.16 372.385 1825.16 378.496 Q1825.16 384.607 1822.19 388.357 Q1819.25 392.107 1814.53 392.107 Q1811.68 392.107 1809.62 390.996 Q1807.59 389.862 1806.24 387.547 L1806.24 391.436 L1801.96 391.436 L1801.96 355.417 L1806.24 355.417 L1806.24 369.445 Z" fill="#000000" fill-rule="nonzero" fill-opacity="1" /><path clip-path="url(#clip390)" d="M1832.22 365.51 L1836.47 365.51 L1836.47 391.436 L1832.22 391.436 L1832.22 365.51 M1832.22 355.417 L1836.47 355.417 L1836.47 360.811 L1832.22 360.811 L1832.22 355.417 Z" fill="#000000" fill-rule="nonzero" fill-opacity="1" /><path clip-path="url(#clip390)" d="M1857.17 378.403 Q1852.01 378.403 1850.02 379.584 Q1848.03 380.764 1848.03 383.612 Q1848.03 385.88 1849.51 387.223 Q1851.01 388.542 1853.58 388.542 Q1857.12 388.542 1859.25 386.042 Q1861.41 383.519 1861.41 379.352 L1861.41 378.403 L1857.17 378.403 M1865.66 376.644 L1865.66 391.436 L1861.41 391.436 L1861.41 387.501 Q1859.95 389.862 1857.77 390.996 Q1855.6 392.107 1852.45 392.107 Q1848.47 392.107 1846.1 389.885 Q1843.77 387.639 1843.77 383.889 Q1843.77 379.514 1846.68 377.292 Q1849.62 375.07 1855.43 375.07 L1861.41 375.07 L1861.41 374.653 Q1861.41 371.714 1859.46 370.116 Q1857.54 368.496 1854.04 368.496 Q1851.82 368.496 1849.72 369.028 Q1847.61 369.561 1845.66 370.626 L1845.66 366.69 Q1848 365.788 1850.2 365.348 Q1852.4 364.885 1854.48 364.885 Q1860.11 364.885 1862.89 367.802 Q1865.66 370.718 1865.66 376.644 Z" fill="#000000" fill-rule="nonzero" fill-opacity="1" /><path clip-path="url(#clip390)" d="M1890.97 366.274 L1890.97 370.302 Q1889.16 369.376 1887.22 368.913 Q1885.27 368.45 1883.19 368.45 Q1880.02 368.45 1878.42 369.422 Q1876.85 370.394 1876.85 372.339 Q1876.85 373.82 1877.98 374.677 Q1879.11 375.51 1882.54 376.274 L1884 376.598 Q1888.53 377.57 1890.43 379.352 Q1892.35 381.112 1892.35 384.283 Q1892.35 387.894 1889.48 390.001 Q1886.64 392.107 1881.64 392.107 Q1879.55 392.107 1877.28 391.69 Q1875.04 391.297 1872.54 390.487 L1872.54 386.089 Q1874.9 387.315 1877.19 387.94 Q1879.48 388.542 1881.73 388.542 Q1884.74 388.542 1886.36 387.524 Q1887.98 386.482 1887.98 384.607 Q1887.98 382.871 1886.8 381.945 Q1885.64 381.019 1881.68 380.163 L1880.2 379.815 Q1876.24 378.982 1874.48 377.269 Q1872.72 375.533 1872.72 372.524 Q1872.72 368.866 1875.32 366.876 Q1877.91 364.885 1882.68 364.885 Q1885.04 364.885 1887.12 365.232 Q1889.21 365.579 1890.97 366.274 Z" fill="#000000" fill-rule="nonzero" fill-opacity="1" /><path clip-path="url(#clip390)" d="M1921.31 377.408 L1921.31 379.491 L1901.73 379.491 Q1902.01 383.889 1904.37 386.204 Q1906.75 388.496 1910.99 388.496 Q1913.44 388.496 1915.73 387.894 Q1918.05 387.292 1920.32 386.089 L1920.32 390.116 Q1918.03 391.088 1915.62 391.598 Q1913.21 392.107 1910.73 392.107 Q1904.53 392.107 1900.9 388.496 Q1897.28 384.885 1897.28 378.727 Q1897.28 372.362 1900.71 368.635 Q1904.16 364.885 1909.99 364.885 Q1915.22 364.885 1918.26 368.265 Q1921.31 371.621 1921.31 377.408 M1917.05 376.158 Q1917.01 372.663 1915.09 370.579 Q1913.19 368.496 1910.04 368.496 Q1906.47 368.496 1904.32 370.51 Q1902.19 372.524 1901.87 376.181 L1917.05 376.158 Z" fill="#000000" fill-rule="nonzero" fill-opacity="1" /><path clip-path="url(#clip390)" d="M1945.36 369.445 L1945.36 355.417 L1949.62 355.417 L1949.62 391.436 L1945.36 391.436 L1945.36 387.547 Q1944.02 389.862 1941.96 390.996 Q1939.92 392.107 1937.05 392.107 Q1932.35 392.107 1929.39 388.357 Q1926.45 384.607 1926.45 378.496 Q1926.45 372.385 1929.39 368.635 Q1932.35 364.885 1937.05 364.885 Q1939.92 364.885 1941.96 366.019 Q1944.02 367.13 1945.36 369.445 M1930.85 378.496 Q1930.85 383.195 1932.77 385.88 Q1934.72 388.542 1938.09 388.542 Q1941.47 388.542 1943.42 385.88 Q1945.36 383.195 1945.36 378.496 Q1945.36 373.797 1943.42 371.135 Q1941.47 368.45 1938.09 368.45 Q1934.72 368.45 1932.77 371.135 Q1930.85 373.797 1930.85 378.496 Z" fill="#000000" fill-rule="nonzero" fill-opacity="1" /><path clip-path="url(#clip390)" d="M1973.65 356.876 L1978.33 356.876 L1978.33 387.501 L1995.15 387.501 L1995.15 391.436 L1973.65 391.436 L1973.65 356.876 Z" fill="#000000" fill-rule="nonzero" fill-opacity="1" /><path clip-path="url(#clip390)" d="M2021.22 377.408 L2021.22 379.491 L2001.64 379.491 Q2001.91 383.889 2004.27 386.204 Q2006.66 388.496 2010.9 388.496 Q2013.35 388.496 2015.64 387.894 Q2017.96 387.292 2020.22 386.089 L2020.22 390.116 Q2017.93 391.088 2015.52 391.598 Q2013.12 392.107 2010.64 392.107 Q2004.44 392.107 2000.8 388.496 Q1997.19 384.885 1997.19 378.727 Q1997.19 372.362 2000.62 368.635 Q2004.07 364.885 2009.9 364.885 Q2015.13 364.885 2018.16 368.265 Q2021.22 371.621 2021.22 377.408 M2016.96 376.158 Q2016.91 372.663 2014.99 370.579 Q2013.09 368.496 2009.95 368.496 Q2006.38 368.496 2004.23 370.51 Q2002.1 372.524 2001.77 376.181 L2016.96 376.158 Z" fill="#000000" fill-rule="nonzero" fill-opacity="1" /><path clip-path="url(#clip390)" d="M2044.74 366.274 L2044.74 370.302 Q2042.93 369.376 2040.99 368.913 Q2039.04 368.45 2036.96 368.45 Q2033.79 368.45 2032.19 369.422 Q2030.62 370.394 2030.62 372.339 Q2030.62 373.82 2031.75 374.677 Q2032.89 375.51 2036.31 376.274 L2037.77 376.598 Q2042.31 377.57 2044.21 379.352 Q2046.13 381.112 2046.13 384.283 Q2046.13 387.894 2043.26 390.001 Q2040.41 392.107 2035.41 392.107 Q2033.33 392.107 2031.06 391.69 Q2028.81 391.297 2026.31 390.487 L2026.31 386.089 Q2028.67 387.315 2030.96 387.94 Q2033.26 388.542 2035.5 388.542 Q2038.51 388.542 2040.13 387.524 Q2041.75 386.482 2041.75 384.607 Q2041.75 382.871 2040.57 381.945 Q2039.41 381.019 2035.46 380.163 L2033.97 379.815 Q2030.02 378.982 2028.26 377.269 Q2026.5 375.533 2026.5 372.524 Q2026.5 368.866 2029.09 366.876 Q2031.68 364.885 2036.45 364.885 Q2038.81 364.885 2040.9 365.232 Q2042.98 365.579 2044.74 366.274 Z" fill="#000000" fill-rule="nonzero" fill-opacity="1" /><path clip-path="url(#clip390)" d="M2057.12 358.149 L2057.12 365.51 L2065.89 365.51 L2065.89 368.82 L2057.12 368.82 L2057.12 382.894 Q2057.12 386.065 2057.98 386.968 Q2058.86 387.871 2061.52 387.871 L2065.89 387.871 L2065.89 391.436 L2061.52 391.436 Q2056.59 391.436 2054.71 389.607 Q2052.84 387.755 2052.84 382.894 L2052.84 368.82 L2049.71 368.82 L2049.71 365.51 L2052.84 365.51 L2052.84 358.149 L2057.12 358.149 Z" fill="#000000" fill-rule="nonzero" fill-opacity="1" /><path clip-path="url(#clip390)" d="M2083.28 378.403 Q2078.12 378.403 2076.13 379.584 Q2074.14 380.764 2074.14 383.612 Q2074.14 385.88 2075.62 387.223 Q2077.12 388.542 2079.69 388.542 Q2083.23 388.542 2085.36 386.042 Q2087.52 383.519 2087.52 379.352 L2087.52 378.403 L2083.28 378.403 M2091.77 376.644 L2091.77 391.436 L2087.52 391.436 L2087.52 387.501 Q2086.06 389.862 2083.88 390.996 Q2081.71 392.107 2078.56 392.107 Q2074.58 392.107 2072.21 389.885 Q2069.88 387.639 2069.88 383.889 Q2069.88 379.514 2072.79 377.292 Q2075.73 375.07 2081.54 375.07 L2087.52 375.07 L2087.52 374.653 Q2087.52 371.714 2085.57 370.116 Q2083.65 368.496 2080.15 368.496 Q2077.93 368.496 2075.83 369.028 Q2073.72 369.561 2071.77 370.626 L2071.77 366.69 Q2074.11 365.788 2076.31 365.348 Q2078.51 364.885 2080.59 364.885 Q2086.22 364.885 2089 367.802 Q2091.77 370.718 2091.77 376.644 Z" fill="#000000" fill-rule="nonzero" fill-opacity="1" /><path clip-path="url(#clip390)" d="M2122.1 375.788 L2122.1 391.436 L2117.84 391.436 L2117.84 375.927 Q2117.84 372.246 2116.4 370.417 Q2114.97 368.589 2112.1 368.589 Q2108.65 368.589 2106.66 370.788 Q2104.67 372.987 2104.67 376.783 L2104.67 391.436 L2100.39 391.436 L2100.39 365.51 L2104.67 365.51 L2104.67 369.538 Q2106.2 367.2 2108.26 366.042 Q2110.34 364.885 2113.05 364.885 Q2117.52 364.885 2119.81 367.663 Q2122.1 370.417 2122.1 375.788 Z" fill="#000000" fill-rule="nonzero" fill-opacity="1" /><path clip-path="url(#clip390)" d="M2147.65 378.172 Q2147.65 373.542 2145.73 370.996 Q2143.83 368.45 2140.39 368.45 Q2136.96 368.45 2135.04 370.996 Q2133.14 373.542 2133.14 378.172 Q2133.14 382.778 2135.04 385.325 Q2136.96 387.871 2140.39 387.871 Q2143.83 387.871 2145.73 385.325 Q2147.65 382.778 2147.65 378.172 M2151.91 388.218 Q2151.91 394.838 2148.97 398.056 Q2146.03 401.297 2139.97 401.297 Q2137.72 401.297 2135.73 400.95 Q2133.74 400.625 2131.87 399.931 L2131.87 395.788 Q2133.74 396.806 2135.57 397.292 Q2137.4 397.778 2139.3 397.778 Q2143.49 397.778 2145.57 395.579 Q2147.65 393.403 2147.65 388.982 L2147.65 386.876 Q2146.33 389.167 2144.27 390.301 Q2142.21 391.436 2139.34 391.436 Q2134.58 391.436 2131.66 387.801 Q2128.74 384.167 2128.74 378.172 Q2128.74 372.153 2131.66 368.519 Q2134.58 364.885 2139.34 364.885 Q2142.21 364.885 2144.27 366.019 Q2146.33 367.153 2147.65 369.445 L2147.65 365.51 L2151.91 365.51 L2151.91 388.218 Z" fill="#000000" fill-rule="nonzero" fill-opacity="1" /><polyline clip-path="url(#clip390)" style="stroke:#800080; stroke-linecap:round; stroke-linejoin:round; stroke-width:4; stroke-opacity:1; fill:none" points="1571.67,425.996 1716.82,425.996 "/>
<path clip-path="url(#clip390)" d="M1759.92 421.285 L1759.92 407.257 L1764.18 407.257 L1764.18 443.276 L1759.92 443.276 L1759.92 439.387 Q1758.58 441.702 1756.52 442.836 Q1754.48 443.947 1751.61 443.947 Q1746.92 443.947 1743.95 440.197 Q1741.01 436.447 1741.01 430.336 Q1741.01 424.225 1743.95 420.475 Q1746.92 416.725 1751.61 416.725 Q1754.48 416.725 1756.52 417.859 Q1758.58 418.97 1759.92 421.285 M1745.41 430.336 Q1745.41 435.035 1747.33 437.72 Q1749.28 440.382 1752.66 440.382 Q1756.04 440.382 1757.98 437.72 Q1759.92 435.035 1759.92 430.336 Q1759.92 425.637 1757.98 422.975 Q1756.04 420.29 1752.66 420.29 Q1749.28 420.29 1747.33 422.975 Q1745.41 425.637 1745.41 430.336 Z" fill="#000000" fill-rule="nonzero" fill-opacity="1" /><path clip-path="url(#clip390)" d="M1795.13 429.248 L1795.13 431.331 L1775.55 431.331 Q1775.83 435.729 1778.19 438.044 Q1780.57 440.336 1784.81 440.336 Q1787.26 440.336 1789.55 439.734 Q1791.87 439.132 1794.14 437.929 L1794.14 441.956 Q1791.85 442.928 1789.44 443.438 Q1787.03 443.947 1784.55 443.947 Q1778.35 443.947 1774.72 440.336 Q1771.1 436.725 1771.1 430.567 Q1771.1 424.202 1774.53 420.475 Q1777.98 416.725 1783.81 416.725 Q1789.04 416.725 1792.08 420.105 Q1795.13 423.461 1795.13 429.248 M1790.87 427.998 Q1790.83 424.503 1788.91 422.419 Q1787.01 420.336 1783.86 420.336 Q1780.29 420.336 1778.14 422.35 Q1776.01 424.364 1775.69 428.021 L1790.87 427.998 Z" fill="#000000" fill-rule="nonzero" fill-opacity="1" /><path clip-path="url(#clip390)" d="M1820.73 430.336 Q1820.73 425.637 1818.79 422.975 Q1816.87 420.29 1813.49 420.29 Q1810.11 420.29 1808.16 422.975 Q1806.24 425.637 1806.24 430.336 Q1806.24 435.035 1808.16 437.72 Q1810.11 440.382 1813.49 440.382 Q1816.87 440.382 1818.79 437.72 Q1820.73 435.035 1820.73 430.336 M1806.24 421.285 Q1807.59 418.97 1809.62 417.859 Q1811.68 416.725 1814.53 416.725 Q1819.25 416.725 1822.19 420.475 Q1825.16 424.225 1825.16 430.336 Q1825.16 436.447 1822.19 440.197 Q1819.25 443.947 1814.53 443.947 Q1811.68 443.947 1809.62 442.836 Q1807.59 441.702 1806.24 439.387 L1806.24 443.276 L1801.96 443.276 L1801.96 407.257 L1806.24 407.257 L1806.24 421.285 Z" fill="#000000" fill-rule="nonzero" fill-opacity="1" /><path clip-path="url(#clip390)" d="M1832.22 417.35 L1836.47 417.35 L1836.47 443.276 L1832.22 443.276 L1832.22 417.35 M1832.22 407.257 L1836.47 407.257 L1836.47 412.651 L1832.22 412.651 L1832.22 407.257 Z" fill="#000000" fill-rule="nonzero" fill-opacity="1" /><path clip-path="url(#clip390)" d="M1857.17 430.243 Q1852.01 430.243 1850.02 431.424 Q1848.03 432.604 1848.03 435.452 Q1848.03 437.72 1849.51 439.063 Q1851.01 440.382 1853.58 440.382 Q1857.12 440.382 1859.25 437.882 Q1861.41 435.359 1861.41 431.192 L1861.41 430.243 L1857.17 430.243 M1865.66 428.484 L1865.66 443.276 L1861.41 443.276 L1861.41 439.341 Q1859.95 441.702 1857.77 442.836 Q1855.6 443.947 1852.45 443.947 Q1848.47 443.947 1846.1 441.725 Q1843.77 439.479 1843.77 435.729 Q1843.77 431.354 1846.68 429.132 Q1849.62 426.91 1855.43 426.91 L1861.41 426.91 L1861.41 426.493 Q1861.41 423.554 1859.46 421.956 Q1857.54 420.336 1854.04 420.336 Q1851.82 420.336 1849.72 420.868 Q1847.61 421.401 1845.66 422.466 L1845.66 418.53 Q1848 417.628 1850.2 417.188 Q1852.4 416.725 1854.48 416.725 Q1860.11 416.725 1862.89 419.642 Q1865.66 422.558 1865.66 428.484 Z" fill="#000000" fill-rule="nonzero" fill-opacity="1" /><path clip-path="url(#clip390)" d="M1890.97 418.114 L1890.97 422.142 Q1889.16 421.216 1887.22 420.753 Q1885.27 420.29 1883.19 420.29 Q1880.02 420.29 1878.42 421.262 Q1876.85 422.234 1876.85 424.179 Q1876.85 425.66 1877.98 426.517 Q1879.11 427.35 1882.54 428.114 L1884 428.438 Q1888.53 429.41 1890.43 431.192 Q1892.35 432.952 1892.35 436.123 Q1892.35 439.734 1889.48 441.841 Q1886.64 443.947 1881.64 443.947 Q1879.55 443.947 1877.28 443.53 Q1875.04 443.137 1872.54 442.327 L1872.54 437.929 Q1874.9 439.155 1877.19 439.78 Q1879.48 440.382 1881.73 440.382 Q1884.74 440.382 1886.36 439.364 Q1887.98 438.322 1887.98 436.447 Q1887.98 434.711 1886.8 433.785 Q1885.64 432.859 1881.68 432.003 L1880.2 431.655 Q1876.24 430.822 1874.48 429.109 Q1872.72 427.373 1872.72 424.364 Q1872.72 420.706 1875.32 418.716 Q1877.91 416.725 1882.68 416.725 Q1885.04 416.725 1887.12 417.072 Q1889.21 417.419 1890.97 418.114 Z" fill="#000000" fill-rule="nonzero" fill-opacity="1" /><path clip-path="url(#clip390)" d="M1921.31 429.248 L1921.31 431.331 L1901.73 431.331 Q1902.01 435.729 1904.37 438.044 Q1906.75 440.336 1910.99 440.336 Q1913.44 440.336 1915.73 439.734 Q1918.05 439.132 1920.32 437.929 L1920.32 441.956 Q1918.03 442.928 1915.62 443.438 Q1913.21 443.947 1910.73 443.947 Q1904.53 443.947 1900.9 440.336 Q1897.28 436.725 1897.28 430.567 Q1897.28 424.202 1900.71 420.475 Q1904.16 416.725 1909.99 416.725 Q1915.22 416.725 1918.26 420.105 Q1921.31 423.461 1921.31 429.248 M1917.05 427.998 Q1917.01 424.503 1915.09 422.419 Q1913.19 420.336 1910.04 420.336 Q1906.47 420.336 1904.32 422.35 Q1902.19 424.364 1901.87 428.021 L1917.05 427.998 Z" fill="#000000" fill-rule="nonzero" fill-opacity="1" /><path clip-path="url(#clip390)" d="M1945.36 421.285 L1945.36 407.257 L1949.62 407.257 L1949.62 443.276 L1945.36 443.276 L1945.36 439.387 Q1944.02 441.702 1941.96 442.836 Q1939.92 443.947 1937.05 443.947 Q1932.35 443.947 1929.39 440.197 Q1926.45 436.447 1926.45 430.336 Q1926.45 424.225 1929.39 420.475 Q1932.35 416.725 1937.05 416.725 Q1939.92 416.725 1941.96 417.859 Q1944.02 418.97 1945.36 421.285 M1930.85 430.336 Q1930.85 435.035 1932.77 437.72 Q1934.72 440.382 1938.09 440.382 Q1941.47 440.382 1943.42 437.72 Q1945.36 435.035 1945.36 430.336 Q1945.36 425.637 1943.42 422.975 Q1941.47 420.29 1938.09 420.29 Q1934.72 420.29 1932.77 422.975 Q1930.85 425.637 1930.85 430.336 Z" fill="#000000" fill-rule="nonzero" fill-opacity="1" /><path clip-path="url(#clip390)" d="M1985.25 430.243 Q1980.09 430.243 1978.09 431.424 Q1976.1 432.604 1976.1 435.452 Q1976.1 437.72 1977.59 439.063 Q1979.09 440.382 1981.66 440.382 Q1985.2 440.382 1987.33 437.882 Q1989.48 435.359 1989.48 431.192 L1989.48 430.243 L1985.25 430.243 M1993.74 428.484 L1993.74 443.276 L1989.48 443.276 L1989.48 439.341 Q1988.03 441.702 1985.85 442.836 Q1983.67 443.947 1980.53 443.947 Q1976.54 443.947 1974.18 441.725 Q1971.84 439.479 1971.84 435.729 Q1971.84 431.354 1974.76 429.132 Q1977.7 426.91 1983.51 426.91 L1989.48 426.91 L1989.48 426.493 Q1989.48 423.554 1987.54 421.956 Q1985.62 420.336 1982.12 420.336 Q1979.9 420.336 1977.79 420.868 Q1975.69 421.401 1973.74 422.466 L1973.74 418.53 Q1976.08 417.628 1978.28 417.188 Q1980.48 416.725 1982.56 416.725 Q1988.19 416.725 1990.96 419.642 Q1993.74 422.558 1993.74 428.484 Z" fill="#000000" fill-rule="nonzero" fill-opacity="1" /><path clip-path="url(#clip390)" d="M1999.46 417.35 L2003.97 417.35 L2012.08 439.109 L2020.18 417.35 L2024.69 417.35 L2014.97 443.276 L2009.18 443.276 L1999.46 417.35 Z" fill="#000000" fill-rule="nonzero" fill-opacity="1" /><path clip-path="url(#clip390)" d="M2052.75 429.248 L2052.75 431.331 L2033.16 431.331 Q2033.44 435.729 2035.8 438.044 Q2038.19 440.336 2042.42 440.336 Q2044.88 440.336 2047.17 439.734 Q2049.48 439.132 2051.75 437.929 L2051.75 441.956 Q2049.46 442.928 2047.05 443.438 Q2044.65 443.947 2042.17 443.947 Q2035.96 443.947 2032.33 440.336 Q2028.72 436.725 2028.72 430.567 Q2028.72 424.202 2032.15 420.475 Q2035.59 416.725 2041.43 416.725 Q2046.66 416.725 2049.69 420.105 Q2052.75 423.461 2052.75 429.248 M2048.49 427.998 Q2048.44 424.503 2046.52 422.419 Q2044.62 420.336 2041.47 420.336 Q2037.91 420.336 2035.76 422.35 Q2033.63 424.364 2033.3 428.021 L2048.49 427.998 Z" fill="#000000" fill-rule="nonzero" fill-opacity="1" /><path clip-path="url(#clip390)" d="M2079.44 451.146 L2079.44 454.456 L2054.81 454.456 L2054.81 451.146 L2079.44 451.146 Z" fill="#000000" fill-rule="nonzero" fill-opacity="1" /><path clip-path="url(#clip390)" d="M2096.57 407.257 L2096.57 410.799 L2092.49 410.799 Q2090.2 410.799 2089.3 411.725 Q2088.42 412.651 2088.42 415.058 L2088.42 417.35 L2095.43 417.35 L2095.43 420.66 L2088.42 420.66 L2088.42 443.276 L2084.14 443.276 L2084.14 420.66 L2080.06 420.66 L2080.06 417.35 L2084.14 417.35 L2084.14 415.544 Q2084.14 411.216 2086.15 409.248 Q2088.16 407.257 2092.54 407.257 L2096.57 407.257 Z" fill="#000000" fill-rule="nonzero" fill-opacity="1" /><path clip-path="url(#clip390)" d="M2100.13 417.35 L2104.39 417.35 L2104.39 443.276 L2100.13 443.276 L2100.13 417.35 M2100.13 407.257 L2104.39 407.257 L2104.39 412.651 L2100.13 412.651 L2100.13 407.257 Z" fill="#000000" fill-rule="nonzero" fill-opacity="1" /><path clip-path="url(#clip390)" d="M2128.33 421.331 Q2127.61 420.915 2126.75 420.73 Q2125.92 420.521 2124.9 420.521 Q2121.29 420.521 2119.34 422.882 Q2117.42 425.22 2117.42 429.618 L2117.42 443.276 L2113.14 443.276 L2113.14 417.35 L2117.42 417.35 L2117.42 421.378 Q2118.77 419.017 2120.92 417.882 Q2123.07 416.725 2126.15 416.725 Q2126.59 416.725 2127.12 416.794 Q2127.65 416.841 2128.3 416.956 L2128.33 421.331 Z" fill="#000000" fill-rule="nonzero" fill-opacity="1" /><path clip-path="url(#clip390)" d="M2149.32 418.114 L2149.32 422.142 Q2147.51 421.216 2145.57 420.753 Q2143.63 420.29 2141.54 420.29 Q2138.37 420.29 2136.77 421.262 Q2135.2 422.234 2135.2 424.179 Q2135.2 425.66 2136.33 426.517 Q2137.47 427.35 2140.89 428.114 L2142.35 428.438 Q2146.89 429.41 2148.79 431.192 Q2150.71 432.952 2150.71 436.123 Q2150.71 439.734 2147.84 441.841 Q2144.99 443.947 2139.99 443.947 Q2137.91 443.947 2135.64 443.53 Q2133.39 443.137 2130.89 442.327 L2130.89 437.929 Q2133.26 439.155 2135.55 439.78 Q2137.84 440.382 2140.08 440.382 Q2143.09 440.382 2144.71 439.364 Q2146.33 438.322 2146.33 436.447 Q2146.33 434.711 2145.15 433.785 Q2144 432.859 2140.04 432.003 L2138.56 431.655 Q2134.6 430.822 2132.84 429.109 Q2131.08 427.373 2131.08 424.364 Q2131.08 420.706 2133.67 418.716 Q2136.26 416.725 2141.03 416.725 Q2143.39 416.725 2145.48 417.072 Q2147.56 417.419 2149.32 418.114 Z" fill="#000000" fill-rule="nonzero" fill-opacity="1" /><path clip-path="url(#clip390)" d="M2161.7 409.989 L2161.7 417.35 L2170.48 417.35 L2170.48 420.66 L2161.7 420.66 L2161.7 434.734 Q2161.7 437.905 2162.56 438.808 Q2163.44 439.711 2166.1 439.711 L2170.48 439.711 L2170.48 443.276 L2166.1 443.276 Q2161.17 443.276 2159.3 441.447 Q2157.42 439.595 2157.42 434.734 L2157.42 420.66 L2154.3 420.66 L2154.3 417.35 L2157.42 417.35 L2157.42 409.989 L2161.7 409.989 Z" fill="#000000" fill-rule="nonzero" fill-opacity="1" /><path clip-path="url(#clip390)" d="M2195.78 451.146 L2195.78 454.456 L2171.15 454.456 L2171.15 451.146 L2195.78 451.146 Z" fill="#000000" fill-rule="nonzero" fill-opacity="1" /><path clip-path="url(#clip390)" d="M2221.33 427.628 L2221.33 443.276 L2217.07 443.276 L2217.07 427.767 Q2217.07 424.086 2215.64 422.257 Q2214.2 420.429 2211.33 420.429 Q2207.88 420.429 2205.89 422.628 Q2203.9 424.827 2203.9 428.623 L2203.9 443.276 L2199.62 443.276 L2199.62 407.257 L2203.9 407.257 L2203.9 421.378 Q2205.43 419.04 2207.49 417.882 Q2209.57 416.725 2212.28 416.725 Q2216.75 416.725 2219.04 419.503 Q2221.33 422.257 2221.33 427.628 Z" fill="#000000" fill-rule="nonzero" fill-opacity="1" /><path clip-path="url(#clip390)" d="M2229.83 417.35 L2234.09 417.35 L2234.09 443.276 L2229.83 443.276 L2229.83 417.35 M2229.83 407.257 L2234.09 407.257 L2234.09 412.651 L2229.83 412.651 L2229.83 407.257 Z" fill="#000000" fill-rule="nonzero" fill-opacity="1" /><path clip-path="url(#clip390)" d="M2247.21 409.989 L2247.21 417.35 L2255.99 417.35 L2255.99 420.66 L2247.21 420.66 L2247.21 434.734 Q2247.21 437.905 2248.07 438.808 Q2248.95 439.711 2251.61 439.711 L2255.99 439.711 L2255.99 443.276 L2251.61 443.276 Q2246.68 443.276 2244.81 441.447 Q2242.93 439.595 2242.93 434.734 L2242.93 420.66 L2239.81 420.66 L2239.81 417.35 L2242.93 417.35 L2242.93 409.989 L2247.21 409.989 Z" fill="#000000" fill-rule="nonzero" fill-opacity="1" /></svg>
