<?xml version="1.0" encoding="utf-8"?>
<svg xmlns="http://www.w3.org/2000/svg" xmlns:xlink="http://www.w3.org/1999/xlink" width="600" height="400" viewBox="0 0 2400 1600">
<defs>
  <clipPath id="clip760">
    <rect x="0" y="0" width="2400" height="1600"/>
  </clipPath>
</defs>
<path clip-path="url(#clip760)" d="M0 1600 L2400 1600 L2400 0 L0 0  Z" fill="#ffffff" fill-rule="evenodd" fill-opacity="1"/>
<defs>
  <clipPath id="clip761">
    <rect x="257" y="123" width="2097" height="1301"/>
  </clipPath>
</defs>
<path clip-path="url(#clip760)" d="M202.227 1423.18 L2352.76 1423.18 L2352.76 123.472 L202.227 123.472  Z" fill="#ffffff" fill-rule="evenodd" fill-opacity="1"/>
<defs>
  <clipPath id="clip762">
    <rect x="202" y="123" width="2152" height="1301"/>
  </clipPath>
</defs>
<polyline clip-path="url(#clip762)" style="stroke:#000000; stroke-linecap:round; stroke-linejoin:round; stroke-width:2; stroke-opacity:0.1; fill:none" points="456.273,1423.18 456.273,123.472 "/>
<polyline clip-path="url(#clip762)" style="stroke:#000000; stroke-linecap:round; stroke-linejoin:round; stroke-width:2; stroke-opacity:0.1; fill:none" points="823.397,1423.18 823.397,123.472 "/>
<polyline clip-path="url(#clip762)" style="stroke:#000000; stroke-linecap:round; stroke-linejoin:round; stroke-width:2; stroke-opacity:0.1; fill:none" points="1190.52,1423.18 1190.52,123.472 "/>
<polyline clip-path="url(#clip762)" style="stroke:#000000; stroke-linecap:round; stroke-linejoin:round; stroke-width:2; stroke-opacity:0.1; fill:none" points="1557.64,1423.18 1557.64,123.472 "/>
<polyline clip-path="url(#clip762)" style="stroke:#000000; stroke-linecap:round; stroke-linejoin:round; stroke-width:2; stroke-opacity:0.1; fill:none" points="1924.77,1423.18 1924.77,123.472 "/>
<polyline clip-path="url(#clip762)" style="stroke:#000000; stroke-linecap:round; stroke-linejoin:round; stroke-width:2; stroke-opacity:0.1; fill:none" points="2291.89,1423.18 2291.89,123.472 "/>
<polyline clip-path="url(#clip762)" style="stroke:#000000; stroke-linecap:round; stroke-linejoin:round; stroke-width:2; stroke-opacity:0.1; fill:none" points="202.227,1262.65 2352.76,1262.65 "/>
<polyline clip-path="url(#clip762)" style="stroke:#000000; stroke-linecap:round; stroke-linejoin:round; stroke-width:2; stroke-opacity:0.1; fill:none" points="202.227,1095.88 2352.76,1095.88 "/>
<polyline clip-path="url(#clip762)" style="stroke:#000000; stroke-linecap:round; stroke-linejoin:round; stroke-width:2; stroke-opacity:0.1; fill:none" points="202.227,929.115 2352.76,929.115 "/>
<polyline clip-path="url(#clip762)" style="stroke:#000000; stroke-linecap:round; stroke-linejoin:round; stroke-width:2; stroke-opacity:0.1; fill:none" points="202.227,762.348 2352.76,762.348 "/>
<polyline clip-path="url(#clip762)" style="stroke:#000000; stroke-linecap:round; stroke-linejoin:round; stroke-width:2; stroke-opacity:0.1; fill:none" points="202.227,595.58 2352.76,595.58 "/>
<polyline clip-path="url(#clip762)" style="stroke:#000000; stroke-linecap:round; stroke-linejoin:round; stroke-width:2; stroke-opacity:0.1; fill:none" points="202.227,428.813 2352.76,428.813 "/>
<polyline clip-path="url(#clip762)" style="stroke:#000000; stroke-linecap:round; stroke-linejoin:round; stroke-width:2; stroke-opacity:0.1; fill:none" points="202.227,262.046 2352.76,262.046 "/>
<polyline clip-path="url(#clip760)" style="stroke:#000000; stroke-linecap:round; stroke-linejoin:round; stroke-width:4; stroke-opacity:1; fill:none" points="202.227,1423.18 2352.76,1423.18 "/>
<polyline clip-path="url(#clip760)" style="stroke:#000000; stroke-linecap:round; stroke-linejoin:round; stroke-width:4; stroke-opacity:1; fill:none" points="456.273,1423.18 456.273,1404.28 "/>
<polyline clip-path="url(#clip760)" style="stroke:#000000; stroke-linecap:round; stroke-linejoin:round; stroke-width:4; stroke-opacity:1; fill:none" points="823.397,1423.18 823.397,1404.28 "/>
<polyline clip-path="url(#clip760)" style="stroke:#000000; stroke-linecap:round; stroke-linejoin:round; stroke-width:4; stroke-opacity:1; fill:none" points="1190.52,1423.18 1190.52,1404.28 "/>
<polyline clip-path="url(#clip760)" style="stroke:#000000; stroke-linecap:round; stroke-linejoin:round; stroke-width:4; stroke-opacity:1; fill:none" points="1557.64,1423.18 1557.64,1404.28 "/>
<polyline clip-path="url(#clip760)" style="stroke:#000000; stroke-linecap:round; stroke-linejoin:round; stroke-width:4; stroke-opacity:1; fill:none" points="1924.77,1423.18 1924.77,1404.28 "/>
<polyline clip-path="url(#clip760)" style="stroke:#000000; stroke-linecap:round; stroke-linejoin:round; stroke-width:4; stroke-opacity:1; fill:none" points="2291.89,1423.18 2291.89,1404.28 "/>
<path clip-path="url(#clip760)" d="M403.299 1468.75 L432.975 1468.75 L432.975 1472.69 L403.299 1472.69 L403.299 1468.75 Z" fill="#000000" fill-rule="nonzero" fill-opacity="1" /><path clip-path="url(#clip760)" d="M447.095 1481.64 L463.415 1481.64 L463.415 1485.58 L441.47 1485.58 L441.47 1481.64 Q444.132 1478.89 448.716 1474.26 Q453.322 1469.61 454.503 1468.27 Q456.748 1465.74 457.628 1464.01 Q458.53 1462.25 458.53 1460.56 Q458.53 1457.8 456.586 1456.07 Q454.665 1454.33 451.563 1454.33 Q449.364 1454.33 446.91 1455.09 Q444.48 1455.86 441.702 1457.41 L441.702 1452.69 Q444.526 1451.55 446.98 1450.97 Q449.433 1450.39 451.47 1450.39 Q456.841 1450.39 460.035 1453.08 Q463.229 1455.77 463.229 1460.26 Q463.229 1462.39 462.419 1464.31 Q461.632 1466.2 459.526 1468.8 Q458.947 1469.47 455.845 1472.69 Q452.743 1475.88 447.095 1481.64 Z" fill="#000000" fill-rule="nonzero" fill-opacity="1" /><path clip-path="url(#clip760)" d="M473.229 1479.7 L478.114 1479.7 L478.114 1485.58 L473.229 1485.58 L473.229 1479.7 Z" fill="#000000" fill-rule="nonzero" fill-opacity="1" /><path clip-path="url(#clip760)" d="M488.345 1451.02 L506.701 1451.02 L506.701 1454.96 L492.627 1454.96 L492.627 1463.43 Q493.646 1463.08 494.664 1462.92 Q495.683 1462.73 496.701 1462.73 Q502.489 1462.73 505.868 1465.9 Q509.248 1469.08 509.248 1474.49 Q509.248 1480.07 505.776 1483.17 Q502.303 1486.25 495.984 1486.25 Q493.808 1486.25 491.539 1485.88 Q489.294 1485.51 486.887 1484.77 L486.887 1480.07 Q488.97 1481.2 491.192 1481.76 Q493.414 1482.32 495.891 1482.32 Q499.896 1482.32 502.234 1480.21 Q504.572 1478.1 504.572 1474.49 Q504.572 1470.88 502.234 1468.77 Q499.896 1466.67 495.891 1466.67 Q494.016 1466.67 492.141 1467.08 Q490.289 1467.5 488.345 1468.38 L488.345 1451.02 Z" fill="#000000" fill-rule="nonzero" fill-opacity="1" /><path clip-path="url(#clip760)" d="M769.925 1468.75 L799.601 1468.75 L799.601 1472.69 L769.925 1472.69 L769.925 1468.75 Z" fill="#000000" fill-rule="nonzero" fill-opacity="1" /><path clip-path="url(#clip760)" d="M813.721 1481.64 L830.041 1481.64 L830.041 1485.58 L808.096 1485.58 L808.096 1481.64 Q810.758 1478.89 815.342 1474.26 Q819.948 1469.61 821.129 1468.27 Q823.374 1465.74 824.254 1464.01 Q825.156 1462.25 825.156 1460.56 Q825.156 1457.8 823.212 1456.07 Q821.291 1454.33 818.189 1454.33 Q815.99 1454.33 813.536 1455.09 Q811.106 1455.86 808.328 1457.41 L808.328 1452.69 Q811.152 1451.55 813.606 1450.97 Q816.059 1450.39 818.096 1450.39 Q823.467 1450.39 826.661 1453.08 Q829.855 1455.77 829.855 1460.26 Q829.855 1462.39 829.045 1464.31 Q828.258 1466.2 826.152 1468.8 Q825.573 1469.47 822.471 1472.69 Q819.369 1475.88 813.721 1481.64 Z" fill="#000000" fill-rule="nonzero" fill-opacity="1" /><path clip-path="url(#clip760)" d="M839.855 1479.7 L844.74 1479.7 L844.74 1485.58 L839.855 1485.58 L839.855 1479.7 Z" fill="#000000" fill-rule="nonzero" fill-opacity="1" /><path clip-path="url(#clip760)" d="M864.925 1454.1 Q861.314 1454.1 859.485 1457.66 Q857.679 1461.2 857.679 1468.33 Q857.679 1475.44 859.485 1479.01 Q861.314 1482.55 864.925 1482.55 Q868.559 1482.55 870.364 1479.01 Q872.193 1475.44 872.193 1468.33 Q872.193 1461.2 870.364 1457.66 Q868.559 1454.1 864.925 1454.1 M864.925 1450.39 Q870.735 1450.39 873.79 1455 Q876.869 1459.58 876.869 1468.33 Q876.869 1477.06 873.79 1481.67 Q870.735 1486.25 864.925 1486.25 Q859.115 1486.25 856.036 1481.67 Q852.98 1477.06 852.98 1468.33 Q852.98 1459.58 856.036 1455 Q859.115 1450.39 864.925 1450.39 Z" fill="#000000" fill-rule="nonzero" fill-opacity="1" /><path clip-path="url(#clip760)" d="M1137.55 1468.75 L1167.22 1468.75 L1167.22 1472.69 L1137.55 1472.69 L1137.55 1468.75 Z" fill="#000000" fill-rule="nonzero" fill-opacity="1" /><path clip-path="url(#clip760)" d="M1178.13 1481.64 L1185.76 1481.64 L1185.76 1455.28 L1177.45 1456.95 L1177.45 1452.69 L1185.72 1451.02 L1190.39 1451.02 L1190.39 1481.64 L1198.03 1481.64 L1198.03 1485.58 L1178.13 1485.58 L1178.13 1481.64 Z" fill="#000000" fill-rule="nonzero" fill-opacity="1" /><path clip-path="url(#clip760)" d="M1207.48 1479.7 L1212.36 1479.7 L1212.36 1485.58 L1207.48 1485.58 L1207.48 1479.7 Z" fill="#000000" fill-rule="nonzero" fill-opacity="1" /><path clip-path="url(#clip760)" d="M1222.59 1451.02 L1240.95 1451.02 L1240.95 1454.96 L1226.87 1454.96 L1226.87 1463.43 Q1227.89 1463.08 1228.91 1462.92 Q1229.93 1462.73 1230.95 1462.73 Q1236.74 1462.73 1240.12 1465.9 Q1243.5 1469.08 1243.5 1474.49 Q1243.5 1480.07 1240.02 1483.17 Q1236.55 1486.25 1230.23 1486.25 Q1228.06 1486.25 1225.79 1485.88 Q1223.54 1485.51 1221.13 1484.77 L1221.13 1480.07 Q1223.22 1481.2 1225.44 1481.76 Q1227.66 1482.32 1230.14 1482.32 Q1234.14 1482.32 1236.48 1480.21 Q1238.82 1478.1 1238.82 1474.49 Q1238.82 1470.88 1236.48 1468.77 Q1234.14 1466.67 1230.14 1466.67 Q1228.26 1466.67 1226.39 1467.08 Q1224.54 1467.5 1222.59 1468.38 L1222.59 1451.02 Z" fill="#000000" fill-rule="nonzero" fill-opacity="1" /><path clip-path="url(#clip760)" d="M1504.17 1468.75 L1533.85 1468.75 L1533.85 1472.69 L1504.17 1472.69 L1504.17 1468.75 Z" fill="#000000" fill-rule="nonzero" fill-opacity="1" /><path clip-path="url(#clip760)" d="M1544.75 1481.64 L1552.39 1481.64 L1552.39 1455.28 L1544.08 1456.95 L1544.08 1452.69 L1552.34 1451.02 L1557.02 1451.02 L1557.02 1481.64 L1564.66 1481.64 L1564.66 1485.58 L1544.75 1485.58 L1544.75 1481.64 Z" fill="#000000" fill-rule="nonzero" fill-opacity="1" /><path clip-path="url(#clip760)" d="M1574.1 1479.7 L1578.99 1479.7 L1578.99 1485.58 L1574.1 1485.58 L1574.1 1479.7 Z" fill="#000000" fill-rule="nonzero" fill-opacity="1" /><path clip-path="url(#clip760)" d="M1599.17 1454.1 Q1595.56 1454.1 1593.73 1457.66 Q1591.93 1461.2 1591.93 1468.33 Q1591.93 1475.44 1593.73 1479.01 Q1595.56 1482.55 1599.17 1482.55 Q1602.81 1482.55 1604.61 1479.01 Q1606.44 1475.44 1606.44 1468.33 Q1606.44 1461.2 1604.61 1457.66 Q1602.81 1454.1 1599.17 1454.1 M1599.17 1450.39 Q1604.98 1450.39 1608.04 1455 Q1611.12 1459.58 1611.12 1468.33 Q1611.12 1477.06 1608.04 1481.67 Q1604.98 1486.25 1599.17 1486.25 Q1593.36 1486.25 1590.28 1481.67 Q1587.23 1477.06 1587.23 1468.33 Q1587.23 1459.58 1590.28 1455 Q1593.36 1450.39 1599.17 1450.39 Z" fill="#000000" fill-rule="nonzero" fill-opacity="1" /><path clip-path="url(#clip760)" d="M1871.79 1468.75 L1901.47 1468.75 L1901.47 1472.69 L1871.79 1472.69 L1871.79 1468.75 Z" fill="#000000" fill-rule="nonzero" fill-opacity="1" /><path clip-path="url(#clip760)" d="M1921.56 1454.1 Q1917.95 1454.1 1916.12 1457.66 Q1914.32 1461.2 1914.32 1468.33 Q1914.32 1475.44 1916.12 1479.01 Q1917.95 1482.55 1921.56 1482.55 Q1925.2 1482.55 1927 1479.01 Q1928.83 1475.44 1928.83 1468.33 Q1928.83 1461.2 1927 1457.66 Q1925.2 1454.1 1921.56 1454.1 M1921.56 1450.39 Q1927.37 1450.39 1930.43 1455 Q1933.51 1459.58 1933.51 1468.33 Q1933.51 1477.06 1930.43 1481.67 Q1927.37 1486.25 1921.56 1486.25 Q1915.75 1486.25 1912.67 1481.67 Q1909.62 1477.06 1909.62 1468.33 Q1909.62 1459.58 1912.67 1455 Q1915.75 1450.39 1921.56 1450.39 Z" fill="#000000" fill-rule="nonzero" fill-opacity="1" /><path clip-path="url(#clip760)" d="M1941.72 1479.7 L1946.61 1479.7 L1946.61 1485.58 L1941.72 1485.58 L1941.72 1479.7 Z" fill="#000000" fill-rule="nonzero" fill-opacity="1" /><path clip-path="url(#clip760)" d="M1956.84 1451.02 L1975.2 1451.02 L1975.2 1454.96 L1961.12 1454.96 L1961.12 1463.43 Q1962.14 1463.08 1963.16 1462.92 Q1964.18 1462.73 1965.2 1462.73 Q1970.98 1462.73 1974.36 1465.9 Q1977.74 1469.08 1977.74 1474.49 Q1977.74 1480.07 1974.27 1483.17 Q1970.8 1486.25 1964.48 1486.25 Q1962.3 1486.25 1960.03 1485.88 Q1957.79 1485.51 1955.38 1484.77 L1955.38 1480.07 Q1957.46 1481.2 1959.69 1481.76 Q1961.91 1482.32 1964.39 1482.32 Q1968.39 1482.32 1970.73 1480.21 Q1973.07 1478.1 1973.07 1474.49 Q1973.07 1470.88 1970.73 1468.77 Q1968.39 1466.67 1964.39 1466.67 Q1962.51 1466.67 1960.64 1467.08 Q1958.78 1467.5 1956.84 1468.38 L1956.84 1451.02 Z" fill="#000000" fill-rule="nonzero" fill-opacity="1" /><path clip-path="url(#clip760)" d="M2269.28 1454.1 Q2265.67 1454.1 2263.84 1457.66 Q2262.03 1461.2 2262.03 1468.33 Q2262.03 1475.44 2263.84 1479.01 Q2265.67 1482.55 2269.28 1482.55 Q2272.91 1482.55 2274.72 1479.01 Q2276.54 1475.44 2276.54 1468.33 Q2276.54 1461.2 2274.72 1457.66 Q2272.91 1454.1 2269.28 1454.1 M2269.28 1450.39 Q2275.09 1450.39 2278.14 1455 Q2281.22 1459.58 2281.22 1468.33 Q2281.22 1477.06 2278.14 1481.67 Q2275.09 1486.25 2269.28 1486.25 Q2263.47 1486.25 2260.39 1481.67 Q2257.33 1477.06 2257.33 1468.33 Q2257.33 1459.58 2260.39 1455 Q2263.47 1450.39 2269.28 1450.39 Z" fill="#000000" fill-rule="nonzero" fill-opacity="1" /><path clip-path="url(#clip760)" d="M2289.44 1479.7 L2294.32 1479.7 L2294.32 1485.58 L2289.44 1485.58 L2289.44 1479.7 Z" fill="#000000" fill-rule="nonzero" fill-opacity="1" /><path clip-path="url(#clip760)" d="M2314.51 1454.1 Q2310.9 1454.1 2309.07 1457.66 Q2307.26 1461.2 2307.26 1468.33 Q2307.26 1475.44 2309.07 1479.01 Q2310.9 1482.55 2314.51 1482.55 Q2318.14 1482.55 2319.95 1479.01 Q2321.78 1475.44 2321.78 1468.33 Q2321.78 1461.2 2319.95 1457.66 Q2318.14 1454.1 2314.51 1454.1 M2314.51 1450.39 Q2320.32 1450.39 2323.37 1455 Q2326.45 1459.58 2326.45 1468.33 Q2326.45 1477.06 2323.37 1481.67 Q2320.32 1486.25 2314.51 1486.25 Q2308.7 1486.25 2305.62 1481.67 Q2302.56 1477.06 2302.56 1468.33 Q2302.56 1459.58 2305.62 1455 Q2308.7 1450.39 2314.51 1450.39 Z" fill="#000000" fill-rule="nonzero" fill-opacity="1" /><path clip-path="url(#clip760)" d="M1205.11 1518.52 L1210.97 1518.52 L1210.97 1568.04 L1205.11 1568.04 L1205.11 1518.52 Z" fill="#000000" fill-rule="nonzero" fill-opacity="1" /><path clip-path="url(#clip760)" d="M1237.04 1536.5 Q1232.33 1536.5 1229.59 1540.19 Q1226.85 1543.85 1226.85 1550.25 Q1226.85 1556.65 1229.56 1560.34 Q1232.3 1564 1237.04 1564 Q1241.72 1564 1244.45 1560.31 Q1247.19 1556.62 1247.19 1550.25 Q1247.19 1543.92 1244.45 1540.23 Q1241.72 1536.5 1237.04 1536.5 M1237.04 1531.54 Q1244.68 1531.54 1249.04 1536.5 Q1253.4 1541.47 1253.4 1550.25 Q1253.4 1559 1249.04 1564 Q1244.68 1568.97 1237.04 1568.97 Q1229.37 1568.97 1225.01 1564 Q1220.68 1559 1220.68 1550.25 Q1220.68 1541.47 1225.01 1536.5 Q1229.37 1531.54 1237.04 1531.54 Z" fill="#000000" fill-rule="nonzero" fill-opacity="1" /><path clip-path="url(#clip760)" d="M1286.56 1549.81 Q1286.56 1543.44 1283.92 1539.94 Q1281.31 1536.44 1276.57 1536.44 Q1271.86 1536.44 1269.22 1539.94 Q1266.61 1543.44 1266.61 1549.81 Q1266.61 1556.14 1269.22 1559.64 Q1271.86 1563.14 1276.57 1563.14 Q1281.31 1563.14 1283.92 1559.64 Q1286.56 1556.14 1286.56 1549.81 M1292.42 1563.62 Q1292.42 1572.72 1288.38 1577.15 Q1284.33 1581.6 1276 1581.6 Q1272.91 1581.6 1270.17 1581.13 Q1267.43 1580.68 1264.86 1579.72 L1264.86 1574.03 Q1267.43 1575.43 1269.95 1576.1 Q1272.46 1576.76 1275.07 1576.76 Q1280.83 1576.76 1283.7 1573.74 Q1286.56 1570.75 1286.56 1564.67 L1286.56 1561.77 Q1284.75 1564.92 1281.92 1566.48 Q1279.08 1568.04 1275.14 1568.04 Q1268.58 1568.04 1264.57 1563.05 Q1260.56 1558.05 1260.56 1549.81 Q1260.56 1541.53 1264.57 1536.53 Q1268.58 1531.54 1275.14 1531.54 Q1279.08 1531.54 1281.92 1533.1 Q1284.75 1534.66 1286.56 1537.81 L1286.56 1532.4 L1292.42 1532.4 L1292.42 1563.62 Z" fill="#000000" fill-rule="nonzero" fill-opacity="1" /><path clip-path="url(#clip760)" d="M1331.63 1548.82 Q1328.07 1548.06 1326.16 1545.99 Q1324.25 1543.95 1324.25 1540.99 Q1324.25 1536.5 1327.88 1533.99 Q1331.47 1531.5 1337.71 1531.5 Q1340.13 1531.5 1342.84 1531.89 Q1345.54 1532.27 1348.66 1533.03 L1348.66 1538.35 Q1345.57 1537.42 1343.03 1537.01 Q1340.45 1536.6 1338.19 1536.6 Q1334.4 1536.6 1332.2 1538.06 Q1329.98 1539.53 1329.98 1541.56 Q1329.98 1543.79 1332.14 1545.22 Q1334.27 1546.62 1337.97 1546.62 L1342.9 1546.62 L1342.9 1551.46 L1338.19 1551.46 Q1333.83 1551.46 1331.54 1553.08 Q1329.05 1554.87 1329.05 1557.67 Q1329.05 1560.53 1331.73 1562.31 Q1334.43 1564.1 1339.24 1564.1 Q1342.2 1564.1 1344.9 1563.52 Q1347.61 1562.92 1349.87 1561.74 L1349.87 1567.18 Q1347.01 1568.08 1344.33 1568.52 Q1341.63 1568.97 1339.08 1568.97 Q1331.5 1568.97 1327.4 1566.07 Q1323.29 1563.17 1323.29 1557.67 Q1323.29 1554.23 1325.49 1551.91 Q1327.69 1549.58 1331.63 1548.82 Z" fill="#000000" fill-rule="nonzero" fill-opacity="1" /><polyline clip-path="url(#clip760)" style="stroke:#000000; stroke-linecap:round; stroke-linejoin:round; stroke-width:4; stroke-opacity:1; fill:none" points="202.227,1423.18 202.227,123.472 "/>
<polyline clip-path="url(#clip760)" style="stroke:#000000; stroke-linecap:round; stroke-linejoin:round; stroke-width:4; stroke-opacity:1; fill:none" points="202.227,1262.65 221.125,1262.65 "/>
<polyline clip-path="url(#clip760)" style="stroke:#000000; stroke-linecap:round; stroke-linejoin:round; stroke-width:4; stroke-opacity:1; fill:none" points="202.227,1095.88 221.125,1095.88 "/>
<polyline clip-path="url(#clip760)" style="stroke:#000000; stroke-linecap:round; stroke-linejoin:round; stroke-width:4; stroke-opacity:1; fill:none" points="202.227,929.115 221.125,929.115 "/>
<polyline clip-path="url(#clip760)" style="stroke:#000000; stroke-linecap:round; stroke-linejoin:round; stroke-width:4; stroke-opacity:1; fill:none" points="202.227,762.348 221.125,762.348 "/>
<polyline clip-path="url(#clip760)" style="stroke:#000000; stroke-linecap:round; stroke-linejoin:round; stroke-width:4; stroke-opacity:1; fill:none" points="202.227,595.58 221.125,595.58 "/>
<polyline clip-path="url(#clip760)" style="stroke:#000000; stroke-linecap:round; stroke-linejoin:round; stroke-width:4; stroke-opacity:1; fill:none" points="202.227,428.813 221.125,428.813 "/>
<polyline clip-path="url(#clip760)" style="stroke:#000000; stroke-linecap:round; stroke-linejoin:round; stroke-width:4; stroke-opacity:1; fill:none" points="202.227,262.046 221.125,262.046 "/>
<path clip-path="url(#clip760)" d="M154.283 1248.45 Q150.672 1248.45 148.843 1252.01 Q147.038 1255.55 147.038 1262.68 Q147.038 1269.79 148.843 1273.36 Q150.672 1276.9 154.283 1276.9 Q157.917 1276.9 159.723 1273.36 Q161.552 1269.79 161.552 1262.68 Q161.552 1255.55 159.723 1252.01 Q157.917 1248.45 154.283 1248.45 M154.283 1244.74 Q160.093 1244.74 163.149 1249.35 Q166.227 1253.93 166.227 1262.68 Q166.227 1271.41 163.149 1276.02 Q160.093 1280.6 154.283 1280.6 Q148.473 1280.6 145.394 1276.02 Q142.339 1271.41 142.339 1262.68 Q142.339 1253.93 145.394 1249.35 Q148.473 1244.74 154.283 1244.74 Z" fill="#000000" fill-rule="nonzero" fill-opacity="1" /><path clip-path="url(#clip760)" d="M149.908 1109.23 L166.227 1109.23 L166.227 1113.16 L144.283 1113.16 L144.283 1109.23 Q146.945 1106.47 151.528 1101.84 Q156.135 1097.19 157.315 1095.85 Q159.561 1093.32 160.44 1091.59 Q161.343 1089.83 161.343 1088.14 Q161.343 1085.38 159.399 1083.65 Q157.478 1081.91 154.376 1081.91 Q152.177 1081.91 149.723 1082.68 Q147.292 1083.44 144.515 1084.99 L144.515 1080.27 Q147.339 1079.13 149.792 1078.56 Q152.246 1077.98 154.283 1077.98 Q159.653 1077.98 162.848 1080.66 Q166.042 1083.35 166.042 1087.84 Q166.042 1089.97 165.232 1091.89 Q164.445 1093.79 162.339 1096.38 Q161.76 1097.05 158.658 1100.27 Q155.556 1103.46 149.908 1109.23 Z" fill="#000000" fill-rule="nonzero" fill-opacity="1" /><path clip-path="url(#clip760)" d="M156.644 915.909 L144.839 934.358 L156.644 934.358 L156.644 915.909 M155.417 911.835 L161.297 911.835 L161.297 934.358 L166.227 934.358 L166.227 938.247 L161.297 938.247 L161.297 946.395 L156.644 946.395 L156.644 938.247 L141.042 938.247 L141.042 933.733 L155.417 911.835 Z" fill="#000000" fill-rule="nonzero" fill-opacity="1" /><path clip-path="url(#clip760)" d="M154.7 760.484 Q151.552 760.484 149.7 762.637 Q147.871 764.79 147.871 768.54 Q147.871 772.267 149.7 774.442 Q151.552 776.595 154.7 776.595 Q157.848 776.595 159.677 774.442 Q161.528 772.267 161.528 768.54 Q161.528 764.79 159.677 762.637 Q157.848 760.484 154.7 760.484 M163.982 745.831 L163.982 750.091 Q162.223 749.257 160.417 748.818 Q158.635 748.378 156.876 748.378 Q152.246 748.378 149.792 751.503 Q147.362 754.628 147.015 760.947 Q148.38 758.933 150.441 757.868 Q152.501 756.781 154.978 756.781 Q160.186 756.781 163.195 759.952 Q166.227 763.1 166.227 768.54 Q166.227 773.864 163.079 777.081 Q159.931 780.299 154.7 780.299 Q148.704 780.299 145.533 775.716 Q142.362 771.109 142.362 762.382 Q142.362 754.188 146.251 749.327 Q150.14 744.443 156.69 744.443 Q158.45 744.443 160.232 744.79 Q162.038 745.137 163.982 745.831 Z" fill="#000000" fill-rule="nonzero" fill-opacity="1" /><path clip-path="url(#clip760)" d="M154.376 596.448 Q151.042 596.448 149.121 598.231 Q147.223 600.013 147.223 603.138 Q147.223 606.263 149.121 608.046 Q151.042 609.828 154.376 609.828 Q157.709 609.828 159.63 608.046 Q161.552 606.24 161.552 603.138 Q161.552 600.013 159.63 598.231 Q157.732 596.448 154.376 596.448 M149.7 594.458 Q146.691 593.717 145.001 591.657 Q143.334 589.597 143.334 586.634 Q143.334 582.49 146.274 580.083 Q149.237 577.675 154.376 577.675 Q159.538 577.675 162.477 580.083 Q165.417 582.49 165.417 586.634 Q165.417 589.597 163.727 591.657 Q162.061 593.717 159.075 594.458 Q162.454 595.245 164.329 597.536 Q166.227 599.828 166.227 603.138 Q166.227 608.161 163.149 610.847 Q160.093 613.532 154.376 613.532 Q148.658 613.532 145.579 610.847 Q142.524 608.161 142.524 603.138 Q142.524 599.828 144.422 597.536 Q146.32 595.245 149.7 594.458 M147.987 587.074 Q147.987 589.759 149.653 591.263 Q151.343 592.768 154.376 592.768 Q157.385 592.768 159.075 591.263 Q160.788 589.759 160.788 587.074 Q160.788 584.388 159.075 582.884 Q157.385 581.379 154.376 581.379 Q151.343 581.379 149.653 582.884 Q147.987 584.388 147.987 587.074 Z" fill="#000000" fill-rule="nonzero" fill-opacity="1" /><path clip-path="url(#clip760)" d="M114.931 442.158 L122.57 442.158 L122.57 415.792 L114.26 417.459 L114.26 413.2 L122.524 411.533 L127.2 411.533 L127.2 442.158 L134.839 442.158 L134.839 446.093 L114.931 446.093 L114.931 442.158 Z" fill="#000000" fill-rule="nonzero" fill-opacity="1" /><path clip-path="url(#clip760)" d="M154.283 414.612 Q150.672 414.612 148.843 418.177 Q147.038 421.718 147.038 428.848 Q147.038 435.954 148.843 439.519 Q150.672 443.061 154.283 443.061 Q157.917 443.061 159.723 439.519 Q161.552 435.954 161.552 428.848 Q161.552 421.718 159.723 418.177 Q157.917 414.612 154.283 414.612 M154.283 410.908 Q160.093 410.908 163.149 415.515 Q166.227 420.098 166.227 428.848 Q166.227 437.575 163.149 442.181 Q160.093 446.765 154.283 446.765 Q148.473 446.765 145.394 442.181 Q142.339 437.575 142.339 428.848 Q142.339 420.098 145.394 415.515 Q148.473 410.908 154.283 410.908 Z" fill="#000000" fill-rule="nonzero" fill-opacity="1" /><path clip-path="url(#clip760)" d="M116.529 275.391 L124.168 275.391 L124.168 249.025 L115.857 250.692 L115.857 246.433 L124.121 244.766 L128.797 244.766 L128.797 275.391 L136.436 275.391 L136.436 279.326 L116.529 279.326 L116.529 275.391 Z" fill="#000000" fill-rule="nonzero" fill-opacity="1" /><path clip-path="url(#clip760)" d="M149.908 275.391 L166.227 275.391 L166.227 279.326 L144.283 279.326 L144.283 275.391 Q146.945 272.636 151.528 268.007 Q156.135 263.354 157.315 262.011 Q159.561 259.488 160.44 257.752 Q161.343 255.993 161.343 254.303 Q161.343 251.548 159.399 249.812 Q157.478 248.076 154.376 248.076 Q152.177 248.076 149.723 248.84 Q147.292 249.604 144.515 251.155 L144.515 246.433 Q147.339 245.298 149.792 244.72 Q152.246 244.141 154.283 244.141 Q159.653 244.141 162.848 246.826 Q166.042 249.511 166.042 254.002 Q166.042 256.132 165.232 258.053 Q164.445 259.951 162.339 262.544 Q161.76 263.215 158.658 266.433 Q155.556 269.627 149.908 275.391 Z" fill="#000000" fill-rule="nonzero" fill-opacity="1" /><path clip-path="url(#clip760)" d="M14.479 850.303 L14.479 844.447 L64.0042 844.447 L64.0042 850.303 L14.479 850.303 Z" fill="#000000" fill-rule="nonzero" fill-opacity="1" /><path clip-path="url(#clip760)" d="M32.4621 818.379 Q32.4621 823.09 36.1542 825.827 Q39.8145 828.564 46.212 828.564 Q52.6095 828.564 56.3017 825.859 Q59.9619 823.122 59.9619 818.379 Q59.9619 813.7 56.2698 810.963 Q52.5777 808.226 46.212 808.226 Q39.8781 808.226 36.186 810.963 Q32.4621 813.7 32.4621 818.379 M27.4968 818.379 Q27.4968 810.74 32.4621 806.38 Q37.4273 802.019 46.212 802.019 Q54.9649 802.019 59.9619 806.38 Q64.9272 810.74 64.9272 818.379 Q64.9272 826.05 59.9619 830.41 Q54.9649 834.739 46.212 834.739 Q37.4273 834.739 32.4621 830.41 Q27.4968 826.05 27.4968 818.379 Z" fill="#000000" fill-rule="nonzero" fill-opacity="1" /><path clip-path="url(#clip760)" d="M45.7664 768.854 Q39.4007 768.854 35.8996 771.496 Q32.3984 774.106 32.3984 778.848 Q32.3984 783.559 35.8996 786.201 Q39.4007 788.811 45.7664 788.811 Q52.1003 788.811 55.6014 786.201 Q59.1026 783.559 59.1026 778.848 Q59.1026 774.106 55.6014 771.496 Q52.1003 768.854 45.7664 768.854 M59.58 762.998 Q68.683 762.998 73.1071 767.04 Q77.5631 771.082 77.5631 779.421 Q77.5631 782.509 77.0857 785.246 Q76.6401 787.983 75.6852 790.561 L69.9879 790.561 Q71.3884 787.983 72.0568 785.469 Q72.7252 782.954 72.7252 780.344 Q72.7252 774.583 69.7015 771.719 Q66.7096 768.854 60.6303 768.854 L57.7339 768.854 Q60.885 770.668 62.4446 773.501 Q64.0042 776.334 64.0042 780.281 Q64.0042 786.837 59.0071 790.848 Q54.01 794.858 45.7664 794.858 Q37.491 794.858 32.4939 790.848 Q27.4968 786.837 27.4968 780.281 Q27.4968 776.334 29.0564 773.501 Q30.616 770.668 33.7671 768.854 L28.3562 768.854 L28.3562 762.998 L59.58 762.998 Z" fill="#000000" fill-rule="nonzero" fill-opacity="1" /><path clip-path="url(#clip760)" d="M16.4842 736.548 L16.4842 696.349 L21.895 696.349 L21.895 713.218 L64.0042 713.218 L64.0042 719.679 L21.895 719.679 L21.895 736.548 L16.4842 736.548 Z" fill="#000000" fill-rule="nonzero" fill-opacity="1" /><path clip-path="url(#clip760)" d="M841.898 44.2197 Q844.531 45.1109 847.002 48.0275 Q849.514 50.9442 852.025 56.0483 L860.33 72.576 L851.539 72.576 L843.802 57.061 Q840.804 50.9847 837.969 48.9997 Q835.173 47.0148 830.312 47.0148 L821.4 47.0148 L821.4 72.576 L813.218 72.576 L813.218 12.096 L831.69 12.096 Q842.06 12.096 847.164 16.4305 Q852.268 20.7649 852.268 29.5149 Q852.268 35.2267 849.595 38.994 Q846.962 42.7613 841.898 44.2197 M821.4 18.8205 L821.4 40.2903 L831.69 40.2903 Q837.604 40.2903 840.602 37.5762 Q843.64 34.8216 843.64 29.5149 Q843.64 24.2082 840.602 21.5346 Q837.604 18.8205 831.69 18.8205 L821.4 18.8205 Z" fill="#000000" fill-rule="nonzero" fill-opacity="1" /><path clip-path="url(#clip760)" d="M905.619 48.0275 L905.619 51.6733 L871.348 51.6733 Q871.834 59.3701 875.966 63.421 Q880.138 67.4314 887.552 67.4314 Q891.846 67.4314 895.856 66.3781 Q899.907 65.3249 903.877 63.2184 L903.877 70.267 Q899.866 71.9684 895.653 72.8596 Q891.441 73.7508 887.106 73.7508 Q876.25 73.7508 869.89 67.4314 Q863.57 61.1119 863.57 50.3365 Q863.57 39.1965 869.566 32.6746 Q875.601 26.1121 885.81 26.1121 Q894.965 26.1121 900.271 32.0264 Q905.619 37.9003 905.619 48.0275 M898.165 45.84 Q898.084 39.7232 894.722 36.0774 Q891.4 32.4315 885.891 32.4315 Q879.652 32.4315 875.885 35.9558 Q872.158 39.4801 871.591 45.8805 L898.165 45.84 Z" fill="#000000" fill-rule="nonzero" fill-opacity="1" /><path clip-path="url(#clip760)" d="M925.225 14.324 L925.225 27.2059 L940.578 27.2059 L940.578 32.9987 L925.225 32.9987 L925.225 57.6282 Q925.225 63.1779 926.724 64.7578 Q928.263 66.3376 932.922 66.3376 L940.578 66.3376 L940.578 72.576 L932.922 72.576 Q924.293 72.576 921.012 69.3758 Q917.731 66.1351 917.731 57.6282 L917.731 32.9987 L912.262 32.9987 L912.262 27.2059 L917.731 27.2059 L917.731 14.324 L925.225 14.324 Z" fill="#000000" fill-rule="nonzero" fill-opacity="1" /><path clip-path="url(#clip760)" d="M949.612 54.671 L949.612 27.2059 L957.065 27.2059 L957.065 54.3874 Q957.065 60.8284 959.577 64.0691 Q962.088 67.2693 967.111 67.2693 Q973.147 67.2693 976.631 63.421 Q980.155 59.5726 980.155 52.9291 L980.155 27.2059 L987.609 27.2059 L987.609 72.576 L980.155 72.576 L980.155 65.6084 Q977.441 69.7404 973.836 71.7658 Q970.271 73.7508 965.532 73.7508 Q957.713 73.7508 953.662 68.8897 Q949.612 64.0286 949.612 54.671 M968.367 26.1121 L968.367 26.1121 Z" fill="#000000" fill-rule="nonzero" fill-opacity="1" /><path clip-path="url(#clip760)" d="M1029.25 34.1734 Q1028 33.4443 1026.5 33.1202 Q1025.04 32.7556 1023.26 32.7556 Q1016.94 32.7556 1013.53 36.8875 Q1010.17 40.9789 1010.17 48.6757 L1010.17 72.576 L1002.68 72.576 L1002.68 27.2059 L1010.17 27.2059 L1010.17 34.2544 Q1012.52 30.1225 1016.29 28.1376 Q1020.06 26.1121 1025.44 26.1121 Q1026.21 26.1121 1027.15 26.2337 Q1028.08 26.3147 1029.21 26.5172 L1029.25 34.1734 Z" fill="#000000" fill-rule="nonzero" fill-opacity="1" /><path clip-path="url(#clip760)" d="M1073.33 45.1919 L1073.33 72.576 L1065.87 72.576 L1065.87 45.4349 Q1065.87 38.994 1063.36 35.7938 Q1060.85 32.5936 1055.83 32.5936 Q1049.79 32.5936 1046.31 36.4419 Q1042.82 40.2903 1042.82 46.9338 L1042.82 72.576 L1035.33 72.576 L1035.33 27.2059 L1042.82 27.2059 L1042.82 34.2544 Q1045.5 30.163 1049.1 28.1376 Q1052.75 26.1121 1057.49 26.1121 Q1065.31 26.1121 1069.32 30.9732 Q1073.33 35.7938 1073.33 45.1919 Z" fill="#000000" fill-rule="nonzero" fill-opacity="1" /><path clip-path="url(#clip760)" d="M1106.5 12.096 L1157.67 12.096 L1157.67 18.9825 L1136.2 18.9825 L1136.2 72.576 L1127.97 72.576 L1127.97 18.9825 L1106.5 18.9825 L1106.5 12.096 Z" fill="#000000" fill-rule="nonzero" fill-opacity="1" /><path clip-path="url(#clip760)" d="M1162.69 27.2059 L1170.14 27.2059 L1170.14 72.576 L1162.69 72.576 L1162.69 27.2059 M1162.69 9.54393 L1170.14 9.54393 L1170.14 18.9825 L1162.69 18.9825 L1162.69 9.54393 Z" fill="#000000" fill-rule="nonzero" fill-opacity="1" /><path clip-path="url(#clip760)" d="M1221.06 35.9153 Q1223.86 30.8922 1227.75 28.5022 Q1231.64 26.1121 1236.9 26.1121 Q1243.99 26.1121 1247.84 31.0947 Q1251.69 36.0368 1251.69 45.1919 L1251.69 72.576 L1244.19 72.576 L1244.19 45.4349 Q1244.19 38.913 1241.88 35.7533 Q1239.58 32.5936 1234.84 32.5936 Q1229.04 32.5936 1225.68 36.4419 Q1222.32 40.2903 1222.32 46.9338 L1222.32 72.576 L1214.82 72.576 L1214.82 45.4349 Q1214.82 38.8725 1212.52 35.7533 Q1210.21 32.5936 1205.39 32.5936 Q1199.67 32.5936 1196.31 36.4824 Q1192.95 40.3308 1192.95 46.9338 L1192.95 72.576 L1185.46 72.576 L1185.46 27.2059 L1192.95 27.2059 L1192.95 34.2544 Q1195.5 30.082 1199.07 28.0971 Q1202.63 26.1121 1207.53 26.1121 Q1212.47 26.1121 1215.92 28.6237 Q1219.4 31.1352 1221.06 35.9153 Z" fill="#000000" fill-rule="nonzero" fill-opacity="1" /><path clip-path="url(#clip760)" d="M1305.36 48.0275 L1305.36 51.6733 L1271.09 51.6733 Q1271.58 59.3701 1275.71 63.421 Q1279.88 67.4314 1287.29 67.4314 Q1291.59 67.4314 1295.6 66.3781 Q1299.65 65.3249 1303.62 63.2184 L1303.62 70.267 Q1299.61 71.9684 1295.4 72.8596 Q1291.18 73.7508 1286.85 73.7508 Q1275.99 73.7508 1269.63 67.4314 Q1263.31 61.1119 1263.31 50.3365 Q1263.31 39.1965 1269.31 32.6746 Q1275.34 26.1121 1285.55 26.1121 Q1294.71 26.1121 1300.01 32.0264 Q1305.36 37.9003 1305.36 48.0275 M1297.91 45.84 Q1297.83 39.7232 1294.46 36.0774 Q1291.14 32.4315 1285.63 32.4315 Q1279.4 32.4315 1275.63 35.9558 Q1271.9 39.4801 1271.33 45.8805 L1297.91 45.84 Z" fill="#000000" fill-rule="nonzero" fill-opacity="1" /><path clip-path="url(#clip760)" d="M1344.29 12.096 L1382.53 12.096 L1382.53 18.9825 L1352.47 18.9825 L1352.47 36.8875 L1381.28 36.8875 L1381.28 43.7741 L1352.47 43.7741 L1352.47 65.6895 L1383.26 65.6895 L1383.26 72.576 L1344.29 72.576 L1344.29 12.096 Z" fill="#000000" fill-rule="nonzero" fill-opacity="1" /><path clip-path="url(#clip760)" d="M1425.31 28.5427 L1425.31 35.5912 Q1422.15 33.9709 1418.75 33.1607 Q1415.34 32.3505 1411.7 32.3505 Q1406.15 32.3505 1403.35 34.0519 Q1400.6 35.7533 1400.6 39.156 Q1400.6 41.7486 1402.58 43.2475 Q1404.57 44.7058 1410.56 46.0426 L1413.12 46.6097 Q1421.06 48.3111 1424.38 51.4303 Q1427.74 54.509 1427.74 60.0587 Q1427.74 66.3781 1422.72 70.0644 Q1417.73 73.7508 1408.98 73.7508 Q1405.34 73.7508 1401.37 73.0216 Q1397.44 72.3329 1393.06 70.9151 L1393.06 63.2184 Q1397.2 65.3654 1401.21 66.4591 Q1405.22 67.5124 1409.15 67.5124 Q1414.41 67.5124 1417.25 65.73 Q1420.08 63.9071 1420.08 60.6258 Q1420.08 57.5877 1418.02 55.9673 Q1415.99 54.3469 1409.07 52.8481 L1406.47 52.2405 Q1399.55 50.7821 1396.47 47.7845 Q1393.39 44.7463 1393.39 39.4801 Q1393.39 33.0797 1397.93 29.5959 Q1402.46 26.1121 1410.81 26.1121 Q1414.94 26.1121 1418.58 26.7198 Q1422.23 27.3274 1425.31 28.5427 Z" fill="#000000" fill-rule="nonzero" fill-opacity="1" /><path clip-path="url(#clip760)" d="M1446.98 14.324 L1446.98 27.2059 L1462.33 27.2059 L1462.33 32.9987 L1446.98 32.9987 L1446.98 57.6282 Q1446.98 63.1779 1448.48 64.7578 Q1450.02 66.3376 1454.68 66.3376 L1462.33 66.3376 L1462.33 72.576 L1454.68 72.576 Q1446.05 72.576 1442.77 69.3758 Q1439.49 66.1351 1439.49 57.6282 L1439.49 32.9987 L1434.02 32.9987 L1434.02 27.2059 L1439.49 27.2059 L1439.49 14.324 L1446.98 14.324 Z" fill="#000000" fill-rule="nonzero" fill-opacity="1" /><path clip-path="url(#clip760)" d="M1472.14 27.2059 L1479.59 27.2059 L1479.59 72.576 L1472.14 72.576 L1472.14 27.2059 M1472.14 9.54393 L1479.59 9.54393 L1479.59 18.9825 L1472.14 18.9825 L1472.14 9.54393 Z" fill="#000000" fill-rule="nonzero" fill-opacity="1" /><path clip-path="url(#clip760)" d="M1530.51 35.9153 Q1533.31 30.8922 1537.2 28.5022 Q1541.08 26.1121 1546.35 26.1121 Q1553.44 26.1121 1557.29 31.0947 Q1561.14 36.0368 1561.14 45.1919 L1561.14 72.576 L1553.64 72.576 L1553.64 45.4349 Q1553.64 38.913 1551.33 35.7533 Q1549.02 32.5936 1544.28 32.5936 Q1538.49 32.5936 1535.13 36.4419 Q1531.77 40.2903 1531.77 46.9338 L1531.77 72.576 L1524.27 72.576 L1524.27 45.4349 Q1524.27 38.8725 1521.96 35.7533 Q1519.65 32.5936 1514.83 32.5936 Q1509.12 32.5936 1505.76 36.4824 Q1502.4 40.3308 1502.4 46.9338 L1502.4 72.576 L1494.9 72.576 L1494.9 27.2059 L1502.4 27.2059 L1502.4 34.2544 Q1504.95 30.082 1508.51 28.0971 Q1512.08 26.1121 1516.98 26.1121 Q1521.92 26.1121 1525.37 28.6237 Q1528.85 31.1352 1530.51 35.9153 Z" fill="#000000" fill-rule="nonzero" fill-opacity="1" /><path clip-path="url(#clip760)" d="M1596.62 49.7694 Q1587.59 49.7694 1584.1 51.8354 Q1580.62 53.9013 1580.62 58.8839 Q1580.62 62.8538 1583.21 65.2034 Q1585.85 67.5124 1590.34 67.5124 Q1596.54 67.5124 1600.27 63.1374 Q1604.04 58.7219 1604.04 51.4303 L1604.04 49.7694 L1596.62 49.7694 M1611.49 46.6907 L1611.49 72.576 L1604.04 72.576 L1604.04 65.6895 Q1601.48 69.8214 1597.68 71.8063 Q1593.87 73.7508 1588.36 73.7508 Q1581.39 73.7508 1577.26 69.8619 Q1573.17 65.9325 1573.17 59.3701 Q1573.17 51.7138 1578.27 47.825 Q1583.42 43.9361 1593.58 43.9361 L1604.04 43.9361 L1604.04 43.2069 Q1604.04 38.0623 1600.63 35.2672 Q1597.27 32.4315 1591.15 32.4315 Q1587.26 32.4315 1583.58 33.3632 Q1579.89 34.295 1576.49 36.1584 L1576.49 29.2718 Q1580.58 27.692 1584.43 26.9223 Q1588.28 26.1121 1591.92 26.1121 Q1601.77 26.1121 1606.63 31.2163 Q1611.49 36.3204 1611.49 46.6907 Z" fill="#000000" fill-rule="nonzero" fill-opacity="1" /><path clip-path="url(#clip760)" d="M1634.21 14.324 L1634.21 27.2059 L1649.57 27.2059 L1649.57 32.9987 L1634.21 32.9987 L1634.21 57.6282 Q1634.21 63.1779 1635.71 64.7578 Q1637.25 66.3376 1641.91 66.3376 L1649.57 66.3376 L1649.57 72.576 L1641.91 72.576 Q1633.28 72.576 1630 69.3758 Q1626.72 66.1351 1626.72 57.6282 L1626.72 32.9987 L1621.25 32.9987 L1621.25 27.2059 L1626.72 27.2059 L1626.72 14.324 L1634.21 14.324 Z" fill="#000000" fill-rule="nonzero" fill-opacity="1" /><path clip-path="url(#clip760)" d="M1698.18 48.0275 L1698.18 51.6733 L1663.91 51.6733 Q1664.39 59.3701 1668.53 63.421 Q1672.7 67.4314 1680.11 67.4314 Q1684.41 67.4314 1688.42 66.3781 Q1692.47 65.3249 1696.44 63.2184 L1696.44 70.267 Q1692.43 71.9684 1688.21 72.8596 Q1684 73.7508 1679.67 73.7508 Q1668.81 73.7508 1662.45 67.4314 Q1656.13 61.1119 1656.13 50.3365 Q1656.13 39.1965 1662.13 32.6746 Q1668.16 26.1121 1678.37 26.1121 Q1687.52 26.1121 1692.83 32.0264 Q1698.18 37.9003 1698.18 48.0275 M1690.72 45.84 Q1690.64 39.7232 1687.28 36.0774 Q1683.96 32.4315 1678.45 32.4315 Q1672.21 32.4315 1668.44 35.9558 Q1664.72 39.4801 1664.15 45.8805 L1690.72 45.84 Z" fill="#000000" fill-rule="nonzero" fill-opacity="1" /><path clip-path="url(#clip760)" d="M1739.34 28.5427 L1739.34 35.5912 Q1736.18 33.9709 1732.77 33.1607 Q1729.37 32.3505 1725.72 32.3505 Q1720.17 32.3505 1717.38 34.0519 Q1714.62 35.7533 1714.62 39.156 Q1714.62 41.7486 1716.61 43.2475 Q1718.59 44.7058 1724.59 46.0426 L1727.14 46.6097 Q1735.08 48.3111 1738.4 51.4303 Q1741.77 54.509 1741.77 60.0587 Q1741.77 66.3781 1736.74 70.0644 Q1731.76 73.7508 1723.01 73.7508 Q1719.36 73.7508 1715.39 73.0216 Q1711.47 72.3329 1707.09 70.9151 L1707.09 63.2184 Q1711.22 65.3654 1715.23 66.4591 Q1719.24 67.5124 1723.17 67.5124 Q1728.44 67.5124 1731.27 65.73 Q1734.11 63.9071 1734.11 60.6258 Q1734.11 57.5877 1732.04 55.9673 Q1730.02 54.3469 1723.09 52.8481 L1720.5 52.2405 Q1713.57 50.7821 1710.49 47.7845 Q1707.41 44.7463 1707.41 39.4801 Q1707.41 33.0797 1711.95 29.5959 Q1716.49 26.1121 1724.83 26.1121 Q1728.96 26.1121 1732.61 26.7198 Q1736.26 27.3274 1739.34 28.5427 Z" fill="#000000" fill-rule="nonzero" fill-opacity="1" /><polyline clip-path="url(#clip762)" style="stroke:#ff0000; stroke-linecap:round; stroke-linejoin:round; stroke-width:4; stroke-opacity:1; fill:none" points="2291.89,1258.56 2066.47,1246.37 1841.05,1225.19 1615.63,1191.8 1390.2,1141.81 1164.78,1069.27 939.358,966.047 713.936,821.136 488.514,619.55 263.091,340.924 "/>
<polyline clip-path="url(#clip762)" style="stroke:#000000; stroke-linecap:round; stroke-linejoin:round; stroke-width:4; stroke-opacity:1; fill:none" points="2291.89,1193.09 2066.47,1168.1 1841.05,1134.12 1615.63,1087.93 1390.2,1025.15 1164.78,939.797 939.358,823.779 713.936,666.068 488.514,451.682 263.091,160.256 "/>
<polyline clip-path="url(#clip762)" style="stroke:#008000; stroke-linecap:round; stroke-linejoin:round; stroke-width:4; stroke-opacity:1; fill:none" points="2291.89,1386.4 2066.47,1347.5 1841.05,1299.85 1615.63,1242.03 1390.2,1170.72 1164.78,1080.16 939.358,964.758 713.936,855.022 488.514,841.772 263.091,862.813 "/>
<polyline clip-path="url(#clip762)" style="stroke:#0000ff; stroke-linecap:round; stroke-linejoin:round; stroke-width:4; stroke-opacity:1; fill:none" points="2291.89,1386.4 2066.47,1347.5 1841.05,1299.85 1615.63,1242.03 1390.2,1170.72 1164.78,1080.16 939.358,964.758 713.936,844.811 488.514,597.445 263.091,348.161 "/>
<polyline clip-path="url(#clip762)" style="stroke:#800080; stroke-linecap:round; stroke-linejoin:round; stroke-width:4; stroke-opacity:1; fill:none" points="2291.89,1321.18 2066.47,1291.48 1841.05,1256.09 1615.63,1214.02 1390.2,1149.66 1164.78,1070.97 939.358,962.283 713.936,801.572 488.514,589.296 263.091,347.732 "/>
<path clip-path="url(#clip760)" d="M1551.04 477.836 L2281.07 477.836 L2281.07 166.796 L1551.04 166.796  Z" fill="#ffffff" fill-rule="evenodd" fill-opacity="1"/>
<polyline clip-path="url(#clip760)" style="stroke:#000000; stroke-linecap:round; stroke-linejoin:round; stroke-width:4; stroke-opacity:1; fill:none" points="1551.04,477.836 2281.07,477.836 2281.07,166.796 1551.04,166.796 1551.04,477.836 "/>
<polyline clip-path="url(#clip760)" style="stroke:#ff0000; stroke-linecap:round; stroke-linejoin:round; stroke-width:4; stroke-opacity:1; fill:none" points="1574.94,218.636 1718.31,218.636 "/>
<path clip-path="url(#clip760)" d="M1762.55 214.967 Q1764.15 212.096 1766.37 210.731 Q1768.59 209.365 1771.6 209.365 Q1775.65 209.365 1777.85 212.212 Q1780.05 215.036 1780.05 220.268 L1780.05 235.916 L1775.77 235.916 L1775.77 220.407 Q1775.77 216.68 1774.45 214.874 Q1773.13 213.069 1770.42 213.069 Q1767.11 213.069 1765.19 215.268 Q1763.27 217.467 1763.27 221.263 L1763.27 235.916 L1758.99 235.916 L1758.99 220.407 Q1758.99 216.657 1757.67 214.874 Q1756.35 213.069 1753.59 213.069 Q1750.33 213.069 1748.41 215.291 Q1746.49 217.49 1746.49 221.263 L1746.49 235.916 L1742.2 235.916 L1742.2 209.99 L1746.49 209.99 L1746.49 214.018 Q1747.94 211.633 1749.98 210.499 Q1752.02 209.365 1754.82 209.365 Q1757.64 209.365 1759.61 210.8 Q1761.6 212.235 1762.55 214.967 Z" fill="#000000" fill-rule="nonzero" fill-opacity="1" /><path clip-path="url(#clip760)" d="M1799.33 238.323 Q1797.53 242.953 1795.81 244.365 Q1794.1 245.777 1791.23 245.777 L1787.83 245.777 L1787.83 242.212 L1790.33 242.212 Q1792.09 242.212 1793.06 241.379 Q1794.03 240.545 1795.21 237.443 L1795.98 235.499 L1785.49 209.99 L1790 209.99 L1798.11 230.268 L1806.21 209.99 L1810.72 209.99 L1799.33 238.323 Z" fill="#000000" fill-rule="nonzero" fill-opacity="1" /><path clip-path="url(#clip760)" d="M1844.79 199.897 L1844.79 203.439 L1840.72 203.439 Q1838.43 203.439 1837.53 204.365 Q1836.65 205.291 1836.65 207.698 L1836.65 209.99 L1843.66 209.99 L1843.66 213.3 L1836.65 213.3 L1836.65 235.916 L1832.36 235.916 L1832.36 213.3 L1828.29 213.3 L1828.29 209.99 L1832.36 209.99 L1832.36 208.184 Q1832.36 203.856 1834.38 201.888 Q1836.39 199.897 1840.77 199.897 L1844.79 199.897 Z" fill="#000000" fill-rule="nonzero" fill-opacity="1" /><path clip-path="url(#clip760)" d="M1858.41 212.976 Q1854.98 212.976 1852.99 215.661 Q1851 218.323 1851 222.976 Q1851 227.629 1852.97 230.314 Q1854.96 232.976 1858.41 232.976 Q1861.81 232.976 1863.8 230.291 Q1865.79 227.606 1865.79 222.976 Q1865.79 218.37 1863.8 215.684 Q1861.81 212.976 1858.41 212.976 M1858.41 209.365 Q1863.96 209.365 1867.13 212.976 Q1870.3 216.587 1870.3 222.976 Q1870.3 229.342 1867.13 232.976 Q1863.96 236.587 1858.41 236.587 Q1852.83 236.587 1849.66 232.976 Q1846.51 229.342 1846.51 222.976 Q1846.51 216.587 1849.66 212.976 Q1852.83 209.365 1858.41 209.365 Z" fill="#000000" fill-rule="nonzero" fill-opacity="1" /><path clip-path="url(#clip760)" d="M1892.39 213.971 Q1891.67 213.555 1890.81 213.37 Q1889.98 213.161 1888.96 213.161 Q1885.35 213.161 1883.41 215.522 Q1881.48 217.86 1881.48 222.258 L1881.48 235.916 L1877.2 235.916 L1877.2 209.99 L1881.48 209.99 L1881.48 214.018 Q1882.83 211.657 1884.98 210.522 Q1887.13 209.365 1890.21 209.365 Q1890.65 209.365 1891.18 209.434 Q1891.72 209.481 1892.36 209.596 L1892.39 213.971 Z" fill="#000000" fill-rule="nonzero" fill-opacity="1" /><path clip-path="url(#clip760)" d="M1916.21 214.967 Q1917.8 212.096 1920.03 210.731 Q1922.25 209.365 1925.26 209.365 Q1929.31 209.365 1931.51 212.212 Q1933.71 215.036 1933.71 220.268 L1933.71 235.916 L1929.42 235.916 L1929.42 220.407 Q1929.42 216.68 1928.1 214.874 Q1926.79 213.069 1924.08 213.069 Q1920.77 213.069 1918.85 215.268 Q1916.92 217.467 1916.92 221.263 L1916.92 235.916 L1912.64 235.916 L1912.64 220.407 Q1912.64 216.657 1911.32 214.874 Q1910 213.069 1907.25 213.069 Q1903.98 213.069 1902.06 215.291 Q1900.14 217.49 1900.14 221.263 L1900.14 235.916 L1895.86 235.916 L1895.86 209.99 L1900.14 209.99 L1900.14 214.018 Q1901.6 211.633 1903.64 210.499 Q1905.67 209.365 1908.48 209.365 Q1911.3 209.365 1913.27 210.8 Q1915.26 212.235 1916.21 214.967 Z" fill="#000000" fill-rule="nonzero" fill-opacity="1" /><path clip-path="url(#clip760)" d="M1941.76 225.684 L1941.76 209.99 L1946.02 209.99 L1946.02 225.522 Q1946.02 229.203 1947.46 231.055 Q1948.89 232.883 1951.76 232.883 Q1955.21 232.883 1957.2 230.684 Q1959.22 228.485 1959.22 224.689 L1959.22 209.99 L1963.47 209.99 L1963.47 235.916 L1959.22 235.916 L1959.22 231.934 Q1957.66 234.295 1955.6 235.453 Q1953.57 236.587 1950.86 236.587 Q1946.39 236.587 1944.08 233.809 Q1941.76 231.031 1941.76 225.684 M1952.48 209.365 L1952.48 209.365 Z" fill="#000000" fill-rule="nonzero" fill-opacity="1" /><path clip-path="url(#clip760)" d="M1972.25 199.897 L1976.51 199.897 L1976.51 235.916 L1972.25 235.916 L1972.25 199.897 Z" fill="#000000" fill-rule="nonzero" fill-opacity="1" /><path clip-path="url(#clip760)" d="M1997.2 222.883 Q1992.04 222.883 1990.05 224.064 Q1988.06 225.244 1988.06 228.092 Q1988.06 230.36 1989.54 231.703 Q1991.04 233.022 1993.61 233.022 Q1997.16 233.022 1999.28 230.522 Q2001.44 227.999 2001.44 223.832 L2001.44 222.883 L1997.2 222.883 M2005.7 221.124 L2005.7 235.916 L2001.44 235.916 L2001.44 231.981 Q1999.98 234.342 1997.8 235.476 Q1995.63 236.587 1992.48 236.587 Q1988.5 236.587 1986.14 234.365 Q1983.8 232.119 1983.8 228.369 Q1983.8 223.994 1986.72 221.772 Q1989.66 219.55 1995.47 219.55 L2001.44 219.55 L2001.44 219.133 Q2001.44 216.194 1999.49 214.596 Q1997.57 212.976 1994.08 212.976 Q1991.85 212.976 1989.75 213.508 Q1987.64 214.041 1985.7 215.106 L1985.7 211.17 Q1988.03 210.268 1990.23 209.828 Q1992.43 209.365 1994.52 209.365 Q2000.14 209.365 2002.92 212.282 Q2005.7 215.198 2005.7 221.124 Z" fill="#000000" fill-rule="nonzero" fill-opacity="1" /><polyline clip-path="url(#clip760)" style="stroke:#000000; stroke-linecap:round; stroke-linejoin:round; stroke-width:4; stroke-opacity:1; fill:none" points="1574.94,270.476 1718.31,270.476 "/>
<path clip-path="url(#clip760)" d="M1763.92 272.108 L1763.92 287.756 L1759.66 287.756 L1759.66 272.247 Q1759.66 268.566 1758.22 266.737 Q1756.79 264.909 1753.92 264.909 Q1750.47 264.909 1748.48 267.108 Q1746.49 269.307 1746.49 273.103 L1746.49 287.756 L1742.2 287.756 L1742.2 261.83 L1746.49 261.83 L1746.49 265.858 Q1748.01 263.52 1750.07 262.362 Q1752.16 261.205 1754.86 261.205 Q1759.33 261.205 1761.62 263.983 Q1763.92 266.737 1763.92 272.108 Z" fill="#000000" fill-rule="nonzero" fill-opacity="1" /><path clip-path="url(#clip760)" d="M1782.46 264.816 Q1779.03 264.816 1777.04 267.501 Q1775.05 270.163 1775.05 274.816 Q1775.05 279.469 1777.02 282.154 Q1779.01 284.816 1782.46 284.816 Q1785.86 284.816 1787.85 282.131 Q1789.84 279.446 1789.84 274.816 Q1789.84 270.21 1787.85 267.524 Q1785.86 264.816 1782.46 264.816 M1782.46 261.205 Q1788.01 261.205 1791.18 264.816 Q1794.36 268.427 1794.36 274.816 Q1794.36 281.182 1791.18 284.816 Q1788.01 288.427 1782.46 288.427 Q1776.88 288.427 1773.71 284.816 Q1770.56 281.182 1770.56 274.816 Q1770.56 268.427 1773.71 264.816 Q1776.88 261.205 1782.46 261.205 Z" fill="#000000" fill-rule="nonzero" fill-opacity="1" /><path clip-path="url(#clip760)" d="M1820.61 283.867 L1820.61 297.617 L1816.32 297.617 L1816.32 261.83 L1820.61 261.83 L1820.61 265.765 Q1821.95 263.45 1823.98 262.339 Q1826.04 261.205 1828.89 261.205 Q1833.61 261.205 1836.55 264.955 Q1839.52 268.705 1839.52 274.816 Q1839.52 280.927 1836.55 284.677 Q1833.61 288.427 1828.89 288.427 Q1826.04 288.427 1823.98 287.316 Q1821.95 286.182 1820.61 283.867 M1835.1 274.816 Q1835.1 270.117 1833.15 267.455 Q1831.23 264.77 1827.85 264.77 Q1824.47 264.77 1822.53 267.455 Q1820.61 270.117 1820.61 274.816 Q1820.61 279.515 1822.53 282.2 Q1824.47 284.862 1827.85 284.862 Q1831.23 284.862 1833.15 282.2 Q1835.1 279.515 1835.1 274.816 Z" fill="#000000" fill-rule="nonzero" fill-opacity="1" /><path clip-path="url(#clip760)" d="M1861.6 265.811 Q1860.88 265.395 1860.03 265.21 Q1859.19 265.001 1858.17 265.001 Q1854.56 265.001 1852.62 267.362 Q1850.7 269.7 1850.7 274.098 L1850.7 287.756 L1846.42 287.756 L1846.42 261.83 L1850.7 261.83 L1850.7 265.858 Q1852.04 263.497 1854.19 262.362 Q1856.35 261.205 1859.42 261.205 Q1859.86 261.205 1860.4 261.274 Q1860.93 261.321 1861.58 261.436 L1861.6 265.811 Z" fill="#000000" fill-rule="nonzero" fill-opacity="1" /><path clip-path="url(#clip760)" d="M1887.2 273.728 L1887.2 275.811 L1867.62 275.811 Q1867.9 280.209 1870.26 282.524 Q1872.64 284.816 1876.88 284.816 Q1879.33 284.816 1881.62 284.214 Q1883.94 283.612 1886.21 282.409 L1886.21 286.436 Q1883.91 287.408 1881.51 287.918 Q1879.1 288.427 1876.62 288.427 Q1870.42 288.427 1866.79 284.816 Q1863.17 281.205 1863.17 275.047 Q1863.17 268.682 1866.6 264.955 Q1870.05 261.205 1875.88 261.205 Q1881.11 261.205 1884.15 264.585 Q1887.2 267.941 1887.2 273.728 M1882.94 272.478 Q1882.9 268.983 1880.98 266.899 Q1879.08 264.816 1875.93 264.816 Q1872.36 264.816 1870.21 266.83 Q1868.08 268.844 1867.76 272.501 L1882.94 272.478 Z" fill="#000000" fill-rule="nonzero" fill-opacity="1" /><path clip-path="url(#clip760)" d="M1907.32 251.737 L1907.32 255.279 L1903.24 255.279 Q1900.95 255.279 1900.05 256.205 Q1899.17 257.131 1899.17 259.538 L1899.17 261.83 L1906.18 261.83 L1906.18 265.14 L1899.17 265.14 L1899.17 287.756 L1894.89 287.756 L1894.89 265.14 L1890.81 265.14 L1890.81 261.83 L1894.89 261.83 L1894.89 260.024 Q1894.89 255.696 1896.9 253.728 Q1898.91 251.737 1903.29 251.737 L1907.32 251.737 Z" fill="#000000" fill-rule="nonzero" fill-opacity="1" /><path clip-path="url(#clip760)" d="M1922.66 274.723 Q1917.5 274.723 1915.51 275.904 Q1913.52 277.084 1913.52 279.932 Q1913.52 282.2 1915 283.543 Q1916.51 284.862 1919.08 284.862 Q1922.62 284.862 1924.75 282.362 Q1926.9 279.839 1926.9 275.672 L1926.9 274.723 L1922.66 274.723 M1931.16 272.964 L1931.16 287.756 L1926.9 287.756 L1926.9 283.821 Q1925.44 286.182 1923.27 287.316 Q1921.09 288.427 1917.94 288.427 Q1913.96 288.427 1911.6 286.205 Q1909.26 283.959 1909.26 280.209 Q1909.26 275.834 1912.18 273.612 Q1915.12 271.39 1920.93 271.39 L1926.9 271.39 L1926.9 270.973 Q1926.9 268.034 1924.96 266.436 Q1923.04 264.816 1919.54 264.816 Q1917.32 264.816 1915.21 265.348 Q1913.1 265.881 1911.16 266.946 L1911.16 263.01 Q1913.5 262.108 1915.7 261.668 Q1917.9 261.205 1919.98 261.205 Q1925.6 261.205 1928.38 264.122 Q1931.16 267.038 1931.16 272.964 Z" fill="#000000" fill-rule="nonzero" fill-opacity="1" /><path clip-path="url(#clip760)" d="M1958.59 262.825 L1958.59 266.807 Q1956.78 265.811 1954.96 265.325 Q1953.15 264.816 1951.3 264.816 Q1947.16 264.816 1944.86 267.455 Q1942.57 270.071 1942.57 274.816 Q1942.57 279.561 1944.86 282.2 Q1947.16 284.816 1951.3 284.816 Q1953.15 284.816 1954.96 284.33 Q1956.78 283.821 1958.59 282.825 L1958.59 286.76 Q1956.81 287.594 1954.89 288.01 Q1952.99 288.427 1950.84 288.427 Q1944.98 288.427 1941.53 284.746 Q1938.08 281.066 1938.08 274.816 Q1938.08 268.473 1941.55 264.839 Q1945.05 261.205 1951.11 261.205 Q1953.08 261.205 1954.96 261.622 Q1956.83 262.015 1958.59 262.825 Z" fill="#000000" fill-rule="nonzero" fill-opacity="1" /><path clip-path="url(#clip760)" d="M1970.21 254.469 L1970.21 261.83 L1978.98 261.83 L1978.98 265.14 L1970.21 265.14 L1970.21 279.214 Q1970.21 282.385 1971.07 283.288 Q1971.95 284.191 1974.61 284.191 L1978.98 284.191 L1978.98 287.756 L1974.61 287.756 Q1969.68 287.756 1967.8 285.927 Q1965.93 284.075 1965.93 279.214 L1965.93 265.14 L1962.8 265.14 L1962.8 261.83 L1965.93 261.83 L1965.93 254.469 L1970.21 254.469 Z" fill="#000000" fill-rule="nonzero" fill-opacity="1" /><path clip-path="url(#clip760)" d="M1994.63 264.816 Q1991.21 264.816 1989.22 267.501 Q1987.22 270.163 1987.22 274.816 Q1987.22 279.469 1989.19 282.154 Q1991.18 284.816 1994.63 284.816 Q1998.03 284.816 2000.03 282.131 Q2002.02 279.446 2002.02 274.816 Q2002.02 270.21 2000.03 267.524 Q1998.03 264.816 1994.63 264.816 M1994.63 261.205 Q2000.19 261.205 2003.36 264.816 Q2006.53 268.427 2006.53 274.816 Q2006.53 281.182 2003.36 284.816 Q2000.19 288.427 1994.63 288.427 Q1989.05 288.427 1985.88 284.816 Q1982.73 281.182 1982.73 274.816 Q1982.73 268.427 1985.88 264.816 Q1989.05 261.205 1994.63 261.205 Z" fill="#000000" fill-rule="nonzero" fill-opacity="1" /><path clip-path="url(#clip760)" d="M2028.61 265.811 Q2027.9 265.395 2027.04 265.21 Q2026.21 265.001 2025.19 265.001 Q2021.58 265.001 2019.63 267.362 Q2017.71 269.7 2017.71 274.098 L2017.71 287.756 L2013.43 287.756 L2013.43 261.83 L2017.71 261.83 L2017.71 265.858 Q2019.05 263.497 2021.21 262.362 Q2023.36 261.205 2026.44 261.205 Q2026.88 261.205 2027.41 261.274 Q2027.94 261.321 2028.59 261.436 L2028.61 265.811 Z" fill="#000000" fill-rule="nonzero" fill-opacity="1" /><polyline clip-path="url(#clip760)" style="stroke:#008000; stroke-linecap:round; stroke-linejoin:round; stroke-width:4; stroke-opacity:1; fill:none" points="1574.94,322.316 1718.31,322.316 "/>
<path clip-path="url(#clip760)" d="M1742.2 305.036 L1746.88 305.036 L1746.88 335.661 L1763.71 335.661 L1763.71 339.596 L1742.2 339.596 L1742.2 305.036 Z" fill="#000000" fill-rule="nonzero" fill-opacity="1" /><path clip-path="url(#clip760)" d="M1789.77 325.568 L1789.77 327.651 L1770.19 327.651 Q1770.47 332.049 1772.83 334.364 Q1775.21 336.656 1779.45 336.656 Q1781.9 336.656 1784.19 336.054 Q1786.51 335.452 1788.78 334.249 L1788.78 338.276 Q1786.48 339.248 1784.08 339.758 Q1781.67 340.267 1779.19 340.267 Q1772.99 340.267 1769.36 336.656 Q1765.74 333.045 1765.74 326.887 Q1765.74 320.522 1769.17 316.795 Q1772.62 313.045 1778.45 313.045 Q1783.68 313.045 1786.72 316.425 Q1789.77 319.781 1789.77 325.568 M1785.51 324.318 Q1785.47 320.823 1783.55 318.739 Q1781.65 316.656 1778.5 316.656 Q1774.93 316.656 1772.78 318.67 Q1770.65 320.684 1770.33 324.341 L1785.51 324.318 Z" fill="#000000" fill-rule="nonzero" fill-opacity="1" /><path clip-path="url(#clip760)" d="M1813.29 314.434 L1813.29 318.462 Q1811.48 317.536 1809.54 317.073 Q1807.6 316.61 1805.51 316.61 Q1802.34 316.61 1800.74 317.582 Q1799.17 318.554 1799.17 320.499 Q1799.17 321.98 1800.3 322.837 Q1801.44 323.67 1804.86 324.434 L1806.32 324.758 Q1810.86 325.73 1812.76 327.512 Q1814.68 329.272 1814.68 332.443 Q1814.68 336.054 1811.81 338.161 Q1808.96 340.267 1803.96 340.267 Q1801.88 340.267 1799.61 339.85 Q1797.36 339.457 1794.86 338.647 L1794.86 334.249 Q1797.23 335.475 1799.52 336.1 Q1801.81 336.702 1804.05 336.702 Q1807.06 336.702 1808.68 335.684 Q1810.3 334.642 1810.3 332.767 Q1810.3 331.031 1809.12 330.105 Q1807.97 329.179 1804.01 328.323 L1802.53 327.975 Q1798.57 327.142 1796.81 325.429 Q1795.05 323.693 1795.05 320.684 Q1795.05 317.026 1797.64 315.036 Q1800.23 313.045 1805 313.045 Q1807.36 313.045 1809.45 313.392 Q1811.53 313.739 1813.29 314.434 Z" fill="#000000" fill-rule="nonzero" fill-opacity="1" /><path clip-path="url(#clip760)" d="M1825.67 306.309 L1825.67 313.67 L1834.45 313.67 L1834.45 316.98 L1825.67 316.98 L1825.67 331.054 Q1825.67 334.225 1826.53 335.128 Q1827.41 336.031 1830.07 336.031 L1834.45 336.031 L1834.45 339.596 L1830.07 339.596 Q1825.14 339.596 1823.27 337.767 Q1821.39 335.915 1821.39 331.054 L1821.39 316.98 L1818.27 316.98 L1818.27 313.67 L1821.39 313.67 L1821.39 306.309 L1825.67 306.309 Z" fill="#000000" fill-rule="nonzero" fill-opacity="1" /><path clip-path="url(#clip760)" d="M1851.83 326.563 Q1846.67 326.563 1844.68 327.744 Q1842.69 328.924 1842.69 331.772 Q1842.69 334.04 1844.17 335.383 Q1845.67 336.702 1848.24 336.702 Q1851.79 336.702 1853.92 334.202 Q1856.07 331.679 1856.07 327.512 L1856.07 326.563 L1851.83 326.563 M1860.33 324.804 L1860.33 339.596 L1856.07 339.596 L1856.07 335.661 Q1854.61 338.022 1852.43 339.156 Q1850.26 340.267 1847.11 340.267 Q1843.13 340.267 1840.77 338.045 Q1838.43 335.799 1838.43 332.049 Q1838.43 327.674 1841.35 325.452 Q1844.29 323.23 1850.1 323.23 L1856.07 323.23 L1856.07 322.813 Q1856.07 319.874 1854.12 318.276 Q1852.2 316.656 1848.71 316.656 Q1846.48 316.656 1844.38 317.188 Q1842.27 317.721 1840.33 318.786 L1840.33 314.85 Q1842.67 313.948 1844.86 313.508 Q1847.06 313.045 1849.15 313.045 Q1854.77 313.045 1857.55 315.962 Q1860.33 318.878 1860.33 324.804 Z" fill="#000000" fill-rule="nonzero" fill-opacity="1" /><path clip-path="url(#clip760)" d="M1890.65 323.948 L1890.65 339.596 L1886.39 339.596 L1886.39 324.087 Q1886.39 320.406 1884.96 318.577 Q1883.52 316.749 1880.65 316.749 Q1877.2 316.749 1875.21 318.948 Q1873.22 321.147 1873.22 324.943 L1873.22 339.596 L1868.94 339.596 L1868.94 313.67 L1873.22 313.67 L1873.22 317.698 Q1874.75 315.36 1876.81 314.202 Q1878.89 313.045 1881.6 313.045 Q1886.07 313.045 1888.36 315.823 Q1890.65 318.577 1890.65 323.948 Z" fill="#000000" fill-rule="nonzero" fill-opacity="1" /><path clip-path="url(#clip760)" d="M1916.21 326.332 Q1916.21 321.702 1914.29 319.156 Q1912.39 316.61 1908.94 316.61 Q1905.51 316.61 1903.59 319.156 Q1901.69 321.702 1901.69 326.332 Q1901.69 330.938 1903.59 333.485 Q1905.51 336.031 1908.94 336.031 Q1912.39 336.031 1914.29 333.485 Q1916.21 330.938 1916.21 326.332 M1920.47 336.378 Q1920.47 342.998 1917.53 346.216 Q1914.59 349.457 1908.52 349.457 Q1906.28 349.457 1904.29 349.11 Q1902.29 348.785 1900.42 348.091 L1900.42 343.948 Q1902.29 344.966 1904.12 345.452 Q1905.95 345.938 1907.85 345.938 Q1912.04 345.938 1914.12 343.739 Q1916.21 341.563 1916.21 337.142 L1916.21 335.036 Q1914.89 337.327 1912.83 338.461 Q1910.77 339.596 1907.9 339.596 Q1903.13 339.596 1900.21 335.961 Q1897.29 332.327 1897.29 326.332 Q1897.29 320.313 1900.21 316.679 Q1903.13 313.045 1907.9 313.045 Q1910.77 313.045 1912.83 314.179 Q1914.89 315.313 1916.21 317.605 L1916.21 313.67 L1920.47 313.67 L1920.47 336.378 Z" fill="#000000" fill-rule="nonzero" fill-opacity="1" /><path clip-path="url(#clip760)" d="M1965.21 306.17 L1965.21 310.73 Q1962.55 309.457 1960.19 308.832 Q1957.83 308.207 1955.63 308.207 Q1951.81 308.207 1949.72 309.688 Q1947.66 311.17 1947.66 313.901 Q1947.66 316.193 1949.03 317.374 Q1950.42 318.531 1954.26 319.249 L1957.09 319.827 Q1962.32 320.823 1964.79 323.346 Q1967.29 325.846 1967.29 330.059 Q1967.29 335.082 1963.91 337.674 Q1960.56 340.267 1954.05 340.267 Q1951.6 340.267 1948.82 339.711 Q1946.07 339.156 1943.1 338.068 L1943.1 333.253 Q1945.95 334.85 1948.68 335.661 Q1951.41 336.471 1954.05 336.471 Q1958.06 336.471 1960.23 334.897 Q1962.41 333.323 1962.41 330.406 Q1962.41 327.86 1960.84 326.424 Q1959.28 324.989 1955.72 324.272 L1952.87 323.716 Q1947.64 322.675 1945.3 320.452 Q1942.97 318.23 1942.97 314.272 Q1942.97 309.688 1946.18 307.05 Q1949.42 304.411 1955.1 304.411 Q1957.53 304.411 1960.05 304.851 Q1962.57 305.29 1965.21 306.17 Z" fill="#000000" fill-rule="nonzero" fill-opacity="1" /><path clip-path="url(#clip760)" d="M1978.61 306.309 L1978.61 313.67 L1987.39 313.67 L1987.39 316.98 L1978.61 316.98 L1978.61 331.054 Q1978.61 334.225 1979.47 335.128 Q1980.35 336.031 1983.01 336.031 L1987.39 336.031 L1987.39 339.596 L1983.01 339.596 Q1978.08 339.596 1976.21 337.767 Q1974.33 335.915 1974.33 331.054 L1974.33 316.98 L1971.21 316.98 L1971.21 313.67 L1974.33 313.67 L1974.33 306.309 L1978.61 306.309 Z" fill="#000000" fill-rule="nonzero" fill-opacity="1" /><path clip-path="url(#clip760)" d="M2004.77 326.563 Q1999.61 326.563 1997.62 327.744 Q1995.63 328.924 1995.63 331.772 Q1995.63 334.04 1997.11 335.383 Q1998.61 336.702 2001.18 336.702 Q2004.72 336.702 2006.85 334.202 Q2009.01 331.679 2009.01 327.512 L2009.01 326.563 L2004.77 326.563 M2013.27 324.804 L2013.27 339.596 L2009.01 339.596 L2009.01 335.661 Q2007.55 338.022 2005.37 339.156 Q2003.2 340.267 2000.05 340.267 Q1996.07 340.267 1993.71 338.045 Q1991.37 335.799 1991.37 332.049 Q1991.37 327.674 1994.28 325.452 Q1997.22 323.23 2003.03 323.23 L2009.01 323.23 L2009.01 322.813 Q2009.01 319.874 2007.06 318.276 Q2005.14 316.656 2001.65 316.656 Q1999.42 316.656 1997.32 317.188 Q1995.21 317.721 1993.27 318.786 L1993.27 314.85 Q1995.6 313.948 1997.8 313.508 Q2000 313.045 2002.09 313.045 Q2007.71 313.045 2010.49 315.962 Q2013.27 318.878 2013.27 324.804 Z" fill="#000000" fill-rule="nonzero" fill-opacity="1" /><path clip-path="url(#clip760)" d="M2026.25 306.309 L2026.25 313.67 L2035.03 313.67 L2035.03 316.98 L2026.25 316.98 L2026.25 331.054 Q2026.25 334.225 2027.11 335.128 Q2027.99 336.031 2030.65 336.031 L2035.03 336.031 L2035.03 339.596 L2030.65 339.596 Q2025.72 339.596 2023.84 337.767 Q2021.97 335.915 2021.97 331.054 L2021.97 316.98 L2018.84 316.98 L2018.84 313.67 L2021.97 313.67 L2021.97 306.309 L2026.25 306.309 Z" fill="#000000" fill-rule="nonzero" fill-opacity="1" /><polyline clip-path="url(#clip760)" style="stroke:#0000ff; stroke-linecap:round; stroke-linejoin:round; stroke-width:4; stroke-opacity:1; fill:none" points="1574.94,374.156 1718.31,374.156 "/>
<path clip-path="url(#clip760)" d="M1761.11 369.445 L1761.11 355.417 L1765.37 355.417 L1765.37 391.436 L1761.11 391.436 L1761.11 387.547 Q1759.77 389.862 1757.71 390.996 Q1755.67 392.107 1752.8 392.107 Q1748.11 392.107 1745.14 388.357 Q1742.2 384.607 1742.2 378.496 Q1742.2 372.385 1745.14 368.635 Q1748.11 364.885 1752.8 364.885 Q1755.67 364.885 1757.71 366.019 Q1759.77 367.13 1761.11 369.445 M1746.6 378.496 Q1746.6 383.195 1748.52 385.88 Q1750.47 388.542 1753.85 388.542 Q1757.23 388.542 1759.17 385.88 Q1761.11 383.195 1761.11 378.496 Q1761.11 373.797 1759.17 371.135 Q1757.23 368.45 1753.85 368.45 Q1750.47 368.45 1748.52 371.135 Q1746.6 373.797 1746.6 378.496 Z" fill="#000000" fill-rule="nonzero" fill-opacity="1" /><path clip-path="url(#clip760)" d="M1796.32 377.408 L1796.32 379.491 L1776.74 379.491 Q1777.02 383.889 1779.38 386.204 Q1781.76 388.496 1786 388.496 Q1788.45 388.496 1790.74 387.894 Q1793.06 387.292 1795.33 386.089 L1795.33 390.116 Q1793.04 391.088 1790.63 391.598 Q1788.22 392.107 1785.74 392.107 Q1779.54 392.107 1775.91 388.496 Q1772.3 384.885 1772.3 378.727 Q1772.3 372.362 1775.72 368.635 Q1779.17 364.885 1785 364.885 Q1790.23 364.885 1793.27 368.265 Q1796.32 371.621 1796.32 377.408 M1792.06 376.158 Q1792.02 372.663 1790.1 370.579 Q1788.2 368.496 1785.05 368.496 Q1781.48 368.496 1779.33 370.51 Q1777.2 372.524 1776.88 376.181 L1792.06 376.158 Z" fill="#000000" fill-rule="nonzero" fill-opacity="1" /><path clip-path="url(#clip760)" d="M1821.92 378.496 Q1821.92 373.797 1819.98 371.135 Q1818.06 368.45 1814.68 368.45 Q1811.3 368.45 1809.36 371.135 Q1807.43 373.797 1807.43 378.496 Q1807.43 383.195 1809.36 385.88 Q1811.3 388.542 1814.68 388.542 Q1818.06 388.542 1819.98 385.88 Q1821.92 383.195 1821.92 378.496 M1807.43 369.445 Q1808.78 367.13 1810.81 366.019 Q1812.87 364.885 1815.72 364.885 Q1820.44 364.885 1823.38 368.635 Q1826.35 372.385 1826.35 378.496 Q1826.35 384.607 1823.38 388.357 Q1820.44 392.107 1815.72 392.107 Q1812.87 392.107 1810.81 390.996 Q1808.78 389.862 1807.43 387.547 L1807.43 391.436 L1803.15 391.436 L1803.15 355.417 L1807.43 355.417 L1807.43 369.445 Z" fill="#000000" fill-rule="nonzero" fill-opacity="1" /><path clip-path="url(#clip760)" d="M1833.41 365.51 L1837.67 365.51 L1837.67 391.436 L1833.41 391.436 L1833.41 365.51 M1833.41 355.417 L1837.67 355.417 L1837.67 360.811 L1833.41 360.811 L1833.41 355.417 Z" fill="#000000" fill-rule="nonzero" fill-opacity="1" /><path clip-path="url(#clip760)" d="M1858.36 378.403 Q1853.2 378.403 1851.21 379.584 Q1849.22 380.764 1849.22 383.612 Q1849.22 385.88 1850.7 387.223 Q1852.2 388.542 1854.77 388.542 Q1858.31 388.542 1860.44 386.042 Q1862.6 383.519 1862.6 379.352 L1862.6 378.403 L1858.36 378.403 M1866.85 376.644 L1866.85 391.436 L1862.6 391.436 L1862.6 387.501 Q1861.14 389.862 1858.96 390.996 Q1856.79 392.107 1853.64 392.107 Q1849.66 392.107 1847.29 389.885 Q1844.96 387.639 1844.96 383.889 Q1844.96 379.514 1847.87 377.292 Q1850.81 375.07 1856.62 375.07 L1862.6 375.07 L1862.6 374.653 Q1862.6 371.714 1860.65 370.116 Q1858.73 368.496 1855.23 368.496 Q1853.01 368.496 1850.91 369.028 Q1848.8 369.561 1846.85 370.626 L1846.85 366.69 Q1849.19 365.788 1851.39 365.348 Q1853.59 364.885 1855.67 364.885 Q1861.3 364.885 1864.08 367.802 Q1866.85 370.718 1866.85 376.644 Z" fill="#000000" fill-rule="nonzero" fill-opacity="1" /><path clip-path="url(#clip760)" d="M1892.16 366.274 L1892.16 370.302 Q1890.35 369.376 1888.41 368.913 Q1886.46 368.45 1884.38 368.45 Q1881.21 368.45 1879.61 369.422 Q1878.04 370.394 1878.04 372.339 Q1878.04 373.82 1879.17 374.677 Q1880.3 375.51 1883.73 376.274 L1885.19 376.598 Q1889.73 377.57 1891.62 379.352 Q1893.54 381.112 1893.54 384.283 Q1893.54 387.894 1890.67 390.001 Q1887.83 392.107 1882.83 392.107 Q1880.74 392.107 1878.48 391.69 Q1876.23 391.297 1873.73 390.487 L1873.73 386.089 Q1876.09 387.315 1878.38 387.94 Q1880.67 388.542 1882.92 388.542 Q1885.93 388.542 1887.55 387.524 Q1889.17 386.482 1889.17 384.607 Q1889.17 382.871 1887.99 381.945 Q1886.83 381.019 1882.87 380.163 L1881.39 379.815 Q1877.43 378.982 1875.67 377.269 Q1873.92 375.533 1873.92 372.524 Q1873.92 368.866 1876.51 366.876 Q1879.1 364.885 1883.87 364.885 Q1886.23 364.885 1888.31 365.232 Q1890.4 365.579 1892.16 366.274 Z" fill="#000000" fill-rule="nonzero" fill-opacity="1" /><path clip-path="url(#clip760)" d="M1922.5 377.408 L1922.5 379.491 L1902.92 379.491 Q1903.2 383.889 1905.56 386.204 Q1907.94 388.496 1912.18 388.496 Q1914.63 388.496 1916.92 387.894 Q1919.24 387.292 1921.51 386.089 L1921.51 390.116 Q1919.22 391.088 1916.81 391.598 Q1914.4 392.107 1911.92 392.107 Q1905.72 392.107 1902.09 388.496 Q1898.48 384.885 1898.48 378.727 Q1898.48 372.362 1901.9 368.635 Q1905.35 364.885 1911.18 364.885 Q1916.41 364.885 1919.45 368.265 Q1922.5 371.621 1922.5 377.408 M1918.24 376.158 Q1918.2 372.663 1916.28 370.579 Q1914.38 368.496 1911.23 368.496 Q1907.66 368.496 1905.51 370.51 Q1903.38 372.524 1903.06 376.181 L1918.24 376.158 Z" fill="#000000" fill-rule="nonzero" fill-opacity="1" /><path clip-path="url(#clip760)" d="M1946.55 369.445 L1946.55 355.417 L1950.81 355.417 L1950.81 391.436 L1946.55 391.436 L1946.55 387.547 Q1945.21 389.862 1943.15 390.996 Q1941.11 392.107 1938.24 392.107 Q1933.54 392.107 1930.58 388.357 Q1927.64 384.607 1927.64 378.496 Q1927.64 372.385 1930.58 368.635 Q1933.54 364.885 1938.24 364.885 Q1941.11 364.885 1943.15 366.019 Q1945.21 367.13 1946.55 369.445 M1932.04 378.496 Q1932.04 383.195 1933.96 385.88 Q1935.91 388.542 1939.29 388.542 Q1942.66 388.542 1944.61 385.88 Q1946.55 383.195 1946.55 378.496 Q1946.55 373.797 1944.61 371.135 Q1942.66 368.45 1939.29 368.45 Q1935.91 368.45 1933.96 371.135 Q1932.04 373.797 1932.04 378.496 Z" fill="#000000" fill-rule="nonzero" fill-opacity="1" /><path clip-path="url(#clip760)" d="M1974.84 356.876 L1979.52 356.876 L1979.52 387.501 L1996.34 387.501 L1996.34 391.436 L1974.84 391.436 L1974.84 356.876 Z" fill="#000000" fill-rule="nonzero" fill-opacity="1" /><path clip-path="url(#clip760)" d="M2022.41 377.408 L2022.41 379.491 L2002.83 379.491 Q2003.1 383.889 2005.47 386.204 Q2007.85 388.496 2012.09 388.496 Q2014.54 388.496 2016.83 387.894 Q2019.15 387.292 2021.41 386.089 L2021.41 390.116 Q2019.12 391.088 2016.72 391.598 Q2014.31 392.107 2011.83 392.107 Q2005.63 392.107 2001.99 388.496 Q1998.38 384.885 1998.38 378.727 Q1998.38 372.362 2001.81 368.635 Q2005.26 364.885 2011.09 364.885 Q2016.32 364.885 2019.35 368.265 Q2022.41 371.621 2022.41 377.408 M2018.15 376.158 Q2018.1 372.663 2016.18 370.579 Q2014.28 368.496 2011.14 368.496 Q2007.57 368.496 2005.42 370.51 Q2003.29 372.524 2002.97 376.181 L2018.15 376.158 Z" fill="#000000" fill-rule="nonzero" fill-opacity="1" /><path clip-path="url(#clip760)" d="M2045.93 366.274 L2045.93 370.302 Q2044.12 369.376 2042.18 368.913 Q2040.23 368.45 2038.15 368.45 Q2034.98 368.45 2033.38 369.422 Q2031.81 370.394 2031.81 372.339 Q2031.81 373.82 2032.94 374.677 Q2034.08 375.51 2037.5 376.274 L2038.96 376.598 Q2043.5 377.57 2045.4 379.352 Q2047.32 381.112 2047.32 384.283 Q2047.32 387.894 2044.45 390.001 Q2041.6 392.107 2036.6 392.107 Q2034.52 392.107 2032.25 391.69 Q2030 391.297 2027.5 390.487 L2027.5 386.089 Q2029.86 387.315 2032.15 387.94 Q2034.45 388.542 2036.69 388.542 Q2039.7 388.542 2041.32 387.524 Q2042.94 386.482 2042.94 384.607 Q2042.94 382.871 2041.76 381.945 Q2040.6 381.019 2036.65 380.163 L2035.16 379.815 Q2031.21 378.982 2029.45 377.269 Q2027.69 375.533 2027.69 372.524 Q2027.69 368.866 2030.28 366.876 Q2032.87 364.885 2037.64 364.885 Q2040 364.885 2042.09 365.232 Q2044.17 365.579 2045.93 366.274 Z" fill="#000000" fill-rule="nonzero" fill-opacity="1" /><path clip-path="url(#clip760)" d="M2058.31 358.149 L2058.31 365.51 L2067.09 365.51 L2067.09 368.82 L2058.31 368.82 L2058.31 382.894 Q2058.31 386.065 2059.17 386.968 Q2060.05 387.871 2062.71 387.871 L2067.09 387.871 L2067.09 391.436 L2062.71 391.436 Q2057.78 391.436 2055.9 389.607 Q2054.03 387.755 2054.03 382.894 L2054.03 368.82 L2050.9 368.82 L2050.9 365.51 L2054.03 365.51 L2054.03 358.149 L2058.31 358.149 Z" fill="#000000" fill-rule="nonzero" fill-opacity="1" /><path clip-path="url(#clip760)" d="M2084.47 378.403 Q2079.31 378.403 2077.32 379.584 Q2075.33 380.764 2075.33 383.612 Q2075.33 385.88 2076.81 387.223 Q2078.31 388.542 2080.88 388.542 Q2084.42 388.542 2086.55 386.042 Q2088.71 383.519 2088.71 379.352 L2088.71 378.403 L2084.47 378.403 M2092.96 376.644 L2092.96 391.436 L2088.71 391.436 L2088.71 387.501 Q2087.25 389.862 2085.07 390.996 Q2082.9 392.107 2079.75 392.107 Q2075.77 392.107 2073.4 389.885 Q2071.07 387.639 2071.07 383.889 Q2071.07 379.514 2073.98 377.292 Q2076.92 375.07 2082.73 375.07 L2088.71 375.07 L2088.71 374.653 Q2088.71 371.714 2086.76 370.116 Q2084.84 368.496 2081.34 368.496 Q2079.12 368.496 2077.02 369.028 Q2074.91 369.561 2072.96 370.626 L2072.96 366.69 Q2075.3 365.788 2077.5 365.348 Q2079.7 364.885 2081.78 364.885 Q2087.41 364.885 2090.19 367.802 Q2092.96 370.718 2092.96 376.644 Z" fill="#000000" fill-rule="nonzero" fill-opacity="1" /><path clip-path="url(#clip760)" d="M2123.29 375.788 L2123.29 391.436 L2119.03 391.436 L2119.03 375.927 Q2119.03 372.246 2117.59 370.417 Q2116.16 368.589 2113.29 368.589 Q2109.84 368.589 2107.85 370.788 Q2105.86 372.987 2105.86 376.783 L2105.86 391.436 L2101.58 391.436 L2101.58 365.51 L2105.86 365.51 L2105.86 369.538 Q2107.39 367.2 2109.45 366.042 Q2111.53 364.885 2114.24 364.885 Q2118.71 364.885 2121 367.663 Q2123.29 370.417 2123.29 375.788 Z" fill="#000000" fill-rule="nonzero" fill-opacity="1" /><path clip-path="url(#clip760)" d="M2148.84 378.172 Q2148.84 373.542 2146.92 370.996 Q2145.02 368.45 2141.58 368.45 Q2138.15 368.45 2136.23 370.996 Q2134.33 373.542 2134.33 378.172 Q2134.33 382.778 2136.23 385.325 Q2138.15 387.871 2141.58 387.871 Q2145.02 387.871 2146.92 385.325 Q2148.84 382.778 2148.84 378.172 M2153.1 388.218 Q2153.1 394.838 2150.16 398.056 Q2147.22 401.297 2141.16 401.297 Q2138.91 401.297 2136.92 400.95 Q2134.93 400.625 2133.06 399.931 L2133.06 395.788 Q2134.93 396.806 2136.76 397.292 Q2138.59 397.778 2140.49 397.778 Q2144.68 397.778 2146.76 395.579 Q2148.84 393.403 2148.84 388.982 L2148.84 386.876 Q2147.52 389.167 2145.46 390.301 Q2143.4 391.436 2140.53 391.436 Q2135.77 391.436 2132.85 387.801 Q2129.93 384.167 2129.93 378.172 Q2129.93 372.153 2132.85 368.519 Q2135.77 364.885 2140.53 364.885 Q2143.4 364.885 2145.46 366.019 Q2147.52 367.153 2148.84 369.445 L2148.84 365.51 L2153.1 365.51 L2153.1 388.218 Z" fill="#000000" fill-rule="nonzero" fill-opacity="1" /><polyline clip-path="url(#clip760)" style="stroke:#800080; stroke-linecap:round; stroke-linejoin:round; stroke-width:4; stroke-opacity:1; fill:none" points="1574.94,425.996 1718.31,425.996 "/>
<path clip-path="url(#clip760)" d="M1761.11 421.285 L1761.11 407.257 L1765.37 407.257 L1765.37 443.276 L1761.11 443.276 L1761.11 439.387 Q1759.77 441.702 1757.71 442.836 Q1755.67 443.947 1752.8 443.947 Q1748.11 443.947 1745.14 440.197 Q1742.2 436.447 1742.2 430.336 Q1742.2 424.225 1745.14 420.475 Q1748.11 416.725 1752.8 416.725 Q1755.67 416.725 1757.71 417.859 Q1759.77 418.97 1761.11 421.285 M1746.6 430.336 Q1746.6 435.035 1748.52 437.72 Q1750.47 440.382 1753.85 440.382 Q1757.23 440.382 1759.17 437.72 Q1761.11 435.035 1761.11 430.336 Q1761.11 425.637 1759.17 422.975 Q1757.23 420.29 1753.85 420.29 Q1750.47 420.29 1748.52 422.975 Q1746.6 425.637 1746.6 430.336 Z" fill="#000000" fill-rule="nonzero" fill-opacity="1" /><path clip-path="url(#clip760)" d="M1796.32 429.248 L1796.32 431.331 L1776.74 431.331 Q1777.02 435.729 1779.38 438.044 Q1781.76 440.336 1786 440.336 Q1788.45 440.336 1790.74 439.734 Q1793.06 439.132 1795.33 437.929 L1795.33 441.956 Q1793.04 442.928 1790.63 443.438 Q1788.22 443.947 1785.74 443.947 Q1779.54 443.947 1775.91 440.336 Q1772.3 436.725 1772.3 430.567 Q1772.3 424.202 1775.72 420.475 Q1779.17 416.725 1785 416.725 Q1790.23 416.725 1793.27 420.105 Q1796.32 423.461 1796.32 429.248 M1792.06 427.998 Q1792.02 424.503 1790.1 422.419 Q1788.2 420.336 1785.05 420.336 Q1781.48 420.336 1779.33 422.35 Q1777.2 424.364 1776.88 428.021 L1792.06 427.998 Z" fill="#000000" fill-rule="nonzero" fill-opacity="1" /><path clip-path="url(#clip760)" d="M1821.92 430.336 Q1821.92 425.637 1819.98 422.975 Q1818.06 420.29 1814.68 420.29 Q1811.3 420.29 1809.36 422.975 Q1807.43 425.637 1807.43 430.336 Q1807.43 435.035 1809.36 437.72 Q1811.3 440.382 1814.68 440.382 Q1818.06 440.382 1819.98 437.72 Q1821.92 435.035 1821.92 430.336 M1807.43 421.285 Q1808.78 418.97 1810.81 417.859 Q1812.87 416.725 1815.72 416.725 Q1820.44 416.725 1823.38 420.475 Q1826.35 424.225 1826.35 430.336 Q1826.35 436.447 1823.38 440.197 Q1820.44 443.947 1815.72 443.947 Q1812.87 443.947 1810.81 442.836 Q1808.78 441.702 1807.43 439.387 L1807.43 443.276 L1803.15 443.276 L1803.15 407.257 L1807.43 407.257 L1807.43 421.285 Z" fill="#000000" fill-rule="nonzero" fill-opacity="1" /><path clip-path="url(#clip760)" d="M1833.41 417.35 L1837.67 417.35 L1837.67 443.276 L1833.41 443.276 L1833.41 417.35 M1833.41 407.257 L1837.67 407.257 L1837.67 412.651 L1833.41 412.651 L1833.41 407.257 Z" fill="#000000" fill-rule="nonzero" fill-opacity="1" /><path clip-path="url(#clip760)" d="M1858.36 430.243 Q1853.2 430.243 1851.21 431.424 Q1849.22 432.604 1849.22 435.452 Q1849.22 437.72 1850.7 439.063 Q1852.2 440.382 1854.77 440.382 Q1858.31 440.382 1860.44 437.882 Q1862.6 435.359 1862.6 431.192 L1862.6 430.243 L1858.36 430.243 M1866.85 428.484 L1866.85 443.276 L1862.6 443.276 L1862.6 439.341 Q1861.14 441.702 1858.96 442.836 Q1856.79 443.947 1853.64 443.947 Q1849.66 443.947 1847.29 441.725 Q1844.96 439.479 1844.96 435.729 Q1844.96 431.354 1847.87 429.132 Q1850.81 426.91 1856.62 426.91 L1862.6 426.91 L1862.6 426.493 Q1862.6 423.554 1860.65 421.956 Q1858.73 420.336 1855.23 420.336 Q1853.01 420.336 1850.91 420.868 Q1848.8 421.401 1846.85 422.466 L1846.85 418.53 Q1849.19 417.628 1851.39 417.188 Q1853.59 416.725 1855.67 416.725 Q1861.3 416.725 1864.08 419.642 Q1866.85 422.558 1866.85 428.484 Z" fill="#000000" fill-rule="nonzero" fill-opacity="1" /><path clip-path="url(#clip760)" d="M1892.16 418.114 L1892.16 422.142 Q1890.35 421.216 1888.41 420.753 Q1886.46 420.29 1884.38 420.29 Q1881.21 420.29 1879.61 421.262 Q1878.04 422.234 1878.04 424.179 Q1878.04 425.66 1879.17 426.517 Q1880.3 427.35 1883.73 428.114 L1885.19 428.438 Q1889.73 429.41 1891.62 431.192 Q1893.54 432.952 1893.54 436.123 Q1893.54 439.734 1890.67 441.841 Q1887.83 443.947 1882.83 443.947 Q1880.74 443.947 1878.48 443.53 Q1876.23 443.137 1873.73 442.327 L1873.73 437.929 Q1876.09 439.155 1878.38 439.78 Q1880.67 440.382 1882.92 440.382 Q1885.93 440.382 1887.55 439.364 Q1889.17 438.322 1889.17 436.447 Q1889.17 434.711 1887.99 433.785 Q1886.83 432.859 1882.87 432.003 L1881.39 431.655 Q1877.43 430.822 1875.67 429.109 Q1873.92 427.373 1873.92 424.364 Q1873.92 420.706 1876.51 418.716 Q1879.1 416.725 1883.87 416.725 Q1886.23 416.725 1888.31 417.072 Q1890.4 417.419 1892.16 418.114 Z" fill="#000000" fill-rule="nonzero" fill-opacity="1" /><path clip-path="url(#clip760)" d="M1922.5 429.248 L1922.5 431.331 L1902.92 431.331 Q1903.2 435.729 1905.56 438.044 Q1907.94 440.336 1912.18 440.336 Q1914.63 440.336 1916.92 439.734 Q1919.24 439.132 1921.51 437.929 L1921.51 441.956 Q1919.22 442.928 1916.81 443.438 Q1914.4 443.947 1911.92 443.947 Q1905.72 443.947 1902.09 440.336 Q1898.48 436.725 1898.48 430.567 Q1898.48 424.202 1901.9 420.475 Q1905.35 416.725 1911.18 416.725 Q1916.41 416.725 1919.45 420.105 Q1922.5 423.461 1922.5 429.248 M1918.24 427.998 Q1918.2 424.503 1916.28 422.419 Q1914.38 420.336 1911.23 420.336 Q1907.66 420.336 1905.51 422.35 Q1903.38 424.364 1903.06 428.021 L1918.24 427.998 Z" fill="#000000" fill-rule="nonzero" fill-opacity="1" /><path clip-path="url(#clip760)" d="M1946.55 421.285 L1946.55 407.257 L1950.81 407.257 L1950.81 443.276 L1946.55 443.276 L1946.55 439.387 Q1945.21 441.702 1943.15 442.836 Q1941.11 443.947 1938.24 443.947 Q1933.54 443.947 1930.58 440.197 Q1927.64 436.447 1927.64 430.336 Q1927.64 424.225 1930.58 420.475 Q1933.54 416.725 1938.24 416.725 Q1941.11 416.725 1943.15 417.859 Q1945.21 418.97 1946.55 421.285 M1932.04 430.336 Q1932.04 435.035 1933.96 437.72 Q1935.91 440.382 1939.29 440.382 Q1942.66 440.382 1944.61 437.72 Q1946.55 435.035 1946.55 430.336 Q1946.55 425.637 1944.61 422.975 Q1942.66 420.29 1939.29 420.29 Q1935.91 420.29 1933.96 422.975 Q1932.04 425.637 1932.04 430.336 Z" fill="#000000" fill-rule="nonzero" fill-opacity="1" /><path clip-path="url(#clip760)" d="M1986.44 430.243 Q1981.28 430.243 1979.28 431.424 Q1977.29 432.604 1977.29 435.452 Q1977.29 437.72 1978.78 439.063 Q1980.28 440.382 1982.85 440.382 Q1986.39 440.382 1988.52 437.882 Q1990.67 435.359 1990.67 431.192 L1990.67 430.243 L1986.44 430.243 M1994.93 428.484 L1994.93 443.276 L1990.67 443.276 L1990.67 439.341 Q1989.22 441.702 1987.04 442.836 Q1984.86 443.947 1981.72 443.947 Q1977.73 443.947 1975.37 441.725 Q1973.03 439.479 1973.03 435.729 Q1973.03 431.354 1975.95 429.132 Q1978.89 426.91 1984.7 426.91 L1990.67 426.91 L1990.67 426.493 Q1990.67 423.554 1988.73 421.956 Q1986.81 420.336 1983.31 420.336 Q1981.09 420.336 1978.98 420.868 Q1976.88 421.401 1974.93 422.466 L1974.93 418.53 Q1977.27 417.628 1979.47 417.188 Q1981.67 416.725 1983.75 416.725 Q1989.38 416.725 1992.16 419.642 Q1994.93 422.558 1994.93 428.484 Z" fill="#000000" fill-rule="nonzero" fill-opacity="1" /><path clip-path="url(#clip760)" d="M2000.65 417.35 L2005.16 417.35 L2013.27 439.109 L2021.37 417.35 L2025.88 417.35 L2016.16 443.276 L2010.37 443.276 L2000.65 417.35 Z" fill="#000000" fill-rule="nonzero" fill-opacity="1" /><path clip-path="url(#clip760)" d="M2053.94 429.248 L2053.94 431.331 L2034.35 431.331 Q2034.63 435.729 2036.99 438.044 Q2039.38 440.336 2043.61 440.336 Q2046.07 440.336 2048.36 439.734 Q2050.67 439.132 2052.94 437.929 L2052.94 441.956 Q2050.65 442.928 2048.24 443.438 Q2045.84 443.947 2043.36 443.947 Q2037.15 443.947 2033.52 440.336 Q2029.91 436.725 2029.91 430.567 Q2029.91 424.202 2033.34 420.475 Q2036.78 416.725 2042.62 416.725 Q2047.85 416.725 2050.88 420.105 Q2053.94 423.461 2053.94 429.248 M2049.68 427.998 Q2049.63 424.503 2047.71 422.419 Q2045.81 420.336 2042.66 420.336 Q2039.1 420.336 2036.95 422.35 Q2034.82 424.364 2034.49 428.021 L2049.68 427.998 Z" fill="#000000" fill-rule="nonzero" fill-opacity="1" /><path clip-path="url(#clip760)" d="M2080.63 451.146 L2080.63 454.456 L2056 454.456 L2056 451.146 L2080.63 451.146 Z" fill="#000000" fill-rule="nonzero" fill-opacity="1" /><path clip-path="url(#clip760)" d="M2097.76 407.257 L2097.76 410.799 L2093.68 410.799 Q2091.39 410.799 2090.49 411.725 Q2089.61 412.651 2089.61 415.058 L2089.61 417.35 L2096.62 417.35 L2096.62 420.66 L2089.61 420.66 L2089.61 443.276 L2085.33 443.276 L2085.33 420.66 L2081.25 420.66 L2081.25 417.35 L2085.33 417.35 L2085.33 415.544 Q2085.33 411.216 2087.34 409.248 Q2089.35 407.257 2093.73 407.257 L2097.76 407.257 Z" fill="#000000" fill-rule="nonzero" fill-opacity="1" /><path clip-path="url(#clip760)" d="M2101.32 417.35 L2105.58 417.35 L2105.58 443.276 L2101.32 443.276 L2101.32 417.35 M2101.32 407.257 L2105.58 407.257 L2105.58 412.651 L2101.32 412.651 L2101.32 407.257 Z" fill="#000000" fill-rule="nonzero" fill-opacity="1" /><path clip-path="url(#clip760)" d="M2129.52 421.331 Q2128.8 420.915 2127.94 420.73 Q2127.11 420.521 2126.09 420.521 Q2122.48 420.521 2120.53 422.882 Q2118.61 425.22 2118.61 429.618 L2118.61 443.276 L2114.33 443.276 L2114.33 417.35 L2118.61 417.35 L2118.61 421.378 Q2119.96 419.017 2122.11 417.882 Q2124.26 416.725 2127.34 416.725 Q2127.78 416.725 2128.31 416.794 Q2128.84 416.841 2129.49 416.956 L2129.52 421.331 Z" fill="#000000" fill-rule="nonzero" fill-opacity="1" /><path clip-path="url(#clip760)" d="M2150.51 418.114 L2150.51 422.142 Q2148.71 421.216 2146.76 420.753 Q2144.82 420.29 2142.73 420.29 Q2139.56 420.29 2137.96 421.262 Q2136.39 422.234 2136.39 424.179 Q2136.39 425.66 2137.52 426.517 Q2138.66 427.35 2142.08 428.114 L2143.54 428.438 Q2148.08 429.41 2149.98 431.192 Q2151.9 432.952 2151.9 436.123 Q2151.9 439.734 2149.03 441.841 Q2146.18 443.947 2141.18 443.947 Q2139.1 443.947 2136.83 443.53 Q2134.58 443.137 2132.08 442.327 L2132.08 437.929 Q2134.45 439.155 2136.74 439.78 Q2139.03 440.382 2141.27 440.382 Q2144.28 440.382 2145.9 439.364 Q2147.52 438.322 2147.52 436.447 Q2147.52 434.711 2146.34 433.785 Q2145.19 432.859 2141.23 432.003 L2139.75 431.655 Q2135.79 430.822 2134.03 429.109 Q2132.27 427.373 2132.27 424.364 Q2132.27 420.706 2134.86 418.716 Q2137.46 416.725 2142.22 416.725 Q2144.58 416.725 2146.67 417.072 Q2148.75 417.419 2150.51 418.114 Z" fill="#000000" fill-rule="nonzero" fill-opacity="1" /><path clip-path="url(#clip760)" d="M2162.89 409.989 L2162.89 417.35 L2171.67 417.35 L2171.67 420.66 L2162.89 420.66 L2162.89 434.734 Q2162.89 437.905 2163.75 438.808 Q2164.63 439.711 2167.29 439.711 L2171.67 439.711 L2171.67 443.276 L2167.29 443.276 Q2162.36 443.276 2160.49 441.447 Q2158.61 439.595 2158.61 434.734 L2158.61 420.66 L2155.49 420.66 L2155.49 417.35 L2158.61 417.35 L2158.61 409.989 L2162.89 409.989 Z" fill="#000000" fill-rule="nonzero" fill-opacity="1" /><path clip-path="url(#clip760)" d="M2196.97 451.146 L2196.97 454.456 L2172.34 454.456 L2172.34 451.146 L2196.97 451.146 Z" fill="#000000" fill-rule="nonzero" fill-opacity="1" /><path clip-path="url(#clip760)" d="M2222.52 427.628 L2222.52 443.276 L2218.27 443.276 L2218.27 427.767 Q2218.27 424.086 2216.83 422.257 Q2215.39 420.429 2212.52 420.429 Q2209.08 420.429 2207.08 422.628 Q2205.09 424.827 2205.09 428.623 L2205.09 443.276 L2200.81 443.276 L2200.81 407.257 L2205.09 407.257 L2205.09 421.378 Q2206.62 419.04 2208.68 417.882 Q2210.77 416.725 2213.47 416.725 Q2217.94 416.725 2220.23 419.503 Q2222.52 422.257 2222.52 427.628 Z" fill="#000000" fill-rule="nonzero" fill-opacity="1" /><path clip-path="url(#clip760)" d="M2231.02 417.35 L2235.28 417.35 L2235.28 443.276 L2231.02 443.276 L2231.02 417.35 M2231.02 407.257 L2235.28 407.257 L2235.28 412.651 L2231.02 412.651 L2231.02 407.257 Z" fill="#000000" fill-rule="nonzero" fill-opacity="1" /><path clip-path="url(#clip760)" d="M2248.4 409.989 L2248.4 417.35 L2257.18 417.35 L2257.18 420.66 L2248.4 420.66 L2248.4 434.734 Q2248.4 437.905 2249.26 438.808 Q2250.14 439.711 2252.8 439.711 L2257.18 439.711 L2257.18 443.276 L2252.8 443.276 Q2247.87 443.276 2246 441.447 Q2244.12 439.595 2244.12 434.734 L2244.12 420.66 L2241 420.66 L2241 417.35 L2244.12 417.35 L2244.12 409.989 L2248.4 409.989 Z" fill="#000000" fill-rule="nonzero" fill-opacity="1" /></svg>
