<?xml version="1.0" encoding="utf-8"?>
<svg xmlns="http://www.w3.org/2000/svg" xmlns:xlink="http://www.w3.org/1999/xlink" width="600" height="400" viewBox="0 0 2400 1600">
<defs>
  <clipPath id="clip930">
    <rect x="0" y="0" width="2400" height="1600"/>
  </clipPath>
</defs>
<path clip-path="url(#clip930)" d="M0 1600 L2400 1600 L2400 0 L0 0  Z" fill="#ffffff" fill-rule="evenodd" fill-opacity="1"/>
<defs>
  <clipPath id="clip931">
    <rect x="257" y="123" width="2097" height="1301"/>
  </clipPath>
</defs>
<path clip-path="url(#clip930)" d="M210.746 1423.18 L2352.76 1423.18 L2352.76 123.472 L210.746 123.472  Z" fill="#ffffff" fill-rule="evenodd" fill-opacity="1"/>
<defs>
  <clipPath id="clip932">
    <rect x="210" y="123" width="2143" height="1301"/>
  </clipPath>
</defs>
<polyline clip-path="url(#clip932)" style="stroke:#000000; stroke-linecap:round; stroke-linejoin:round; stroke-width:2; stroke-opacity:0.1; fill:none" points="404.144,1423.18 404.144,123.472 "/>
<polyline clip-path="url(#clip932)" style="stroke:#000000; stroke-linecap:round; stroke-linejoin:round; stroke-width:2; stroke-opacity:0.1; fill:none" points="842.948,1423.18 842.948,123.472 "/>
<polyline clip-path="url(#clip932)" style="stroke:#000000; stroke-linecap:round; stroke-linejoin:round; stroke-width:2; stroke-opacity:0.1; fill:none" points="1281.75,1423.18 1281.75,123.472 "/>
<polyline clip-path="url(#clip932)" style="stroke:#000000; stroke-linecap:round; stroke-linejoin:round; stroke-width:2; stroke-opacity:0.1; fill:none" points="1720.55,1423.18 1720.55,123.472 "/>
<polyline clip-path="url(#clip932)" style="stroke:#000000; stroke-linecap:round; stroke-linejoin:round; stroke-width:2; stroke-opacity:0.1; fill:none" points="2159.36,1423.18 2159.36,123.472 "/>
<polyline clip-path="url(#clip932)" style="stroke:#000000; stroke-linecap:round; stroke-linejoin:round; stroke-width:2; stroke-opacity:0.1; fill:none" points="210.746,1247.39 2352.76,1247.39 "/>
<polyline clip-path="url(#clip932)" style="stroke:#000000; stroke-linecap:round; stroke-linejoin:round; stroke-width:2; stroke-opacity:0.1; fill:none" points="210.746,1012.99 2352.76,1012.99 "/>
<polyline clip-path="url(#clip932)" style="stroke:#000000; stroke-linecap:round; stroke-linejoin:round; stroke-width:2; stroke-opacity:0.1; fill:none" points="210.746,778.586 2352.76,778.586 "/>
<polyline clip-path="url(#clip932)" style="stroke:#000000; stroke-linecap:round; stroke-linejoin:round; stroke-width:2; stroke-opacity:0.1; fill:none" points="210.746,544.182 2352.76,544.182 "/>
<polyline clip-path="url(#clip932)" style="stroke:#000000; stroke-linecap:round; stroke-linejoin:round; stroke-width:2; stroke-opacity:0.1; fill:none" points="210.746,309.779 2352.76,309.779 "/>
<polyline clip-path="url(#clip930)" style="stroke:#000000; stroke-linecap:round; stroke-linejoin:round; stroke-width:4; stroke-opacity:1; fill:none" points="210.746,1423.18 2352.76,1423.18 "/>
<polyline clip-path="url(#clip930)" style="stroke:#000000; stroke-linecap:round; stroke-linejoin:round; stroke-width:4; stroke-opacity:1; fill:none" points="404.144,1423.18 404.144,1404.28 "/>
<polyline clip-path="url(#clip930)" style="stroke:#000000; stroke-linecap:round; stroke-linejoin:round; stroke-width:4; stroke-opacity:1; fill:none" points="842.948,1423.18 842.948,1404.28 "/>
<polyline clip-path="url(#clip930)" style="stroke:#000000; stroke-linecap:round; stroke-linejoin:round; stroke-width:4; stroke-opacity:1; fill:none" points="1281.75,1423.18 1281.75,1404.28 "/>
<polyline clip-path="url(#clip930)" style="stroke:#000000; stroke-linecap:round; stroke-linejoin:round; stroke-width:4; stroke-opacity:1; fill:none" points="1720.55,1423.18 1720.55,1404.28 "/>
<polyline clip-path="url(#clip930)" style="stroke:#000000; stroke-linecap:round; stroke-linejoin:round; stroke-width:4; stroke-opacity:1; fill:none" points="2159.36,1423.18 2159.36,1404.28 "/>
<path clip-path="url(#clip930)" d="M350.672 1468.75 L380.348 1468.75 L380.348 1472.69 L350.672 1472.69 L350.672 1468.75 Z" fill="#000000" fill-rule="nonzero" fill-opacity="1" /><path clip-path="url(#clip930)" d="M391.251 1481.64 L398.89 1481.64 L398.89 1455.28 L390.579 1456.95 L390.579 1452.69 L398.843 1451.02 L403.519 1451.02 L403.519 1481.64 L411.158 1481.64 L411.158 1485.58 L391.251 1485.58 L391.251 1481.64 Z" fill="#000000" fill-rule="nonzero" fill-opacity="1" /><path clip-path="url(#clip930)" d="M420.602 1479.7 L425.487 1479.7 L425.487 1485.58 L420.602 1485.58 L420.602 1479.7 Z" fill="#000000" fill-rule="nonzero" fill-opacity="1" /><path clip-path="url(#clip930)" d="M445.672 1454.1 Q442.061 1454.1 440.232 1457.66 Q438.426 1461.2 438.426 1468.33 Q438.426 1475.44 440.232 1479.01 Q442.061 1482.55 445.672 1482.55 Q449.306 1482.55 451.112 1479.01 Q452.94 1475.44 452.94 1468.33 Q452.94 1461.2 451.112 1457.66 Q449.306 1454.1 445.672 1454.1 M445.672 1450.39 Q451.482 1450.39 454.537 1455 Q457.616 1459.58 457.616 1468.33 Q457.616 1477.06 454.537 1481.67 Q451.482 1486.25 445.672 1486.25 Q439.862 1486.25 436.783 1481.67 Q433.727 1477.06 433.727 1468.33 Q433.727 1459.58 436.783 1455 Q439.862 1450.39 445.672 1450.39 Z" fill="#000000" fill-rule="nonzero" fill-opacity="1" /><path clip-path="url(#clip930)" d="M789.973 1468.75 L819.649 1468.75 L819.649 1472.69 L789.973 1472.69 L789.973 1468.75 Z" fill="#000000" fill-rule="nonzero" fill-opacity="1" /><path clip-path="url(#clip930)" d="M839.742 1454.1 Q836.13 1454.1 834.302 1457.66 Q832.496 1461.2 832.496 1468.33 Q832.496 1475.44 834.302 1479.01 Q836.13 1482.55 839.742 1482.55 Q843.376 1482.55 845.181 1479.01 Q847.01 1475.44 847.01 1468.33 Q847.01 1461.2 845.181 1457.66 Q843.376 1454.1 839.742 1454.1 M839.742 1450.39 Q845.552 1450.39 848.607 1455 Q851.686 1459.58 851.686 1468.33 Q851.686 1477.06 848.607 1481.67 Q845.552 1486.25 839.742 1486.25 Q833.931 1486.25 830.853 1481.67 Q827.797 1477.06 827.797 1468.33 Q827.797 1459.58 830.853 1455 Q833.931 1450.39 839.742 1450.39 Z" fill="#000000" fill-rule="nonzero" fill-opacity="1" /><path clip-path="url(#clip930)" d="M859.904 1479.7 L864.788 1479.7 L864.788 1485.58 L859.904 1485.58 L859.904 1479.7 Z" fill="#000000" fill-rule="nonzero" fill-opacity="1" /><path clip-path="url(#clip930)" d="M875.019 1451.02 L893.376 1451.02 L893.376 1454.96 L879.302 1454.96 L879.302 1463.43 Q880.32 1463.08 881.339 1462.92 Q882.357 1462.73 883.376 1462.73 Q889.163 1462.73 892.542 1465.9 Q895.922 1469.08 895.922 1474.49 Q895.922 1480.07 892.45 1483.17 Q888.977 1486.25 882.658 1486.25 Q880.482 1486.25 878.214 1485.88 Q875.968 1485.51 873.561 1484.77 L873.561 1480.07 Q875.644 1481.2 877.866 1481.76 Q880.089 1482.32 882.565 1482.32 Q886.57 1482.32 888.908 1480.21 Q891.246 1478.1 891.246 1474.49 Q891.246 1470.88 888.908 1468.77 Q886.57 1466.67 882.565 1466.67 Q880.69 1466.67 878.815 1467.08 Q876.964 1467.5 875.019 1468.38 L875.019 1451.02 Z" fill="#000000" fill-rule="nonzero" fill-opacity="1" /><path clip-path="url(#clip930)" d="M1259.14 1454.1 Q1255.52 1454.1 1253.7 1457.66 Q1251.89 1461.2 1251.89 1468.33 Q1251.89 1475.44 1253.7 1479.01 Q1255.52 1482.55 1259.14 1482.55 Q1262.77 1482.55 1264.58 1479.01 Q1266.4 1475.44 1266.4 1468.33 Q1266.4 1461.2 1264.58 1457.66 Q1262.77 1454.1 1259.14 1454.1 M1259.14 1450.39 Q1264.95 1450.39 1268 1455 Q1271.08 1459.58 1271.08 1468.33 Q1271.08 1477.06 1268 1481.67 Q1264.95 1486.25 1259.14 1486.25 Q1253.33 1486.25 1250.25 1481.67 Q1247.19 1477.06 1247.19 1468.33 Q1247.19 1459.58 1250.25 1455 Q1253.33 1450.39 1259.14 1450.39 Z" fill="#000000" fill-rule="nonzero" fill-opacity="1" /><path clip-path="url(#clip930)" d="M1279.3 1479.7 L1284.18 1479.7 L1284.18 1485.58 L1279.3 1485.58 L1279.3 1479.7 Z" fill="#000000" fill-rule="nonzero" fill-opacity="1" /><path clip-path="url(#clip930)" d="M1304.37 1454.1 Q1300.76 1454.1 1298.93 1457.66 Q1297.12 1461.2 1297.12 1468.33 Q1297.12 1475.44 1298.93 1479.01 Q1300.76 1482.55 1304.37 1482.55 Q1308 1482.55 1309.81 1479.01 Q1311.64 1475.44 1311.64 1468.33 Q1311.64 1461.2 1309.81 1457.66 Q1308 1454.1 1304.37 1454.1 M1304.37 1450.39 Q1310.18 1450.39 1313.23 1455 Q1316.31 1459.58 1316.31 1468.33 Q1316.31 1477.06 1313.23 1481.67 Q1310.18 1486.25 1304.37 1486.25 Q1298.56 1486.25 1295.48 1481.67 Q1292.42 1477.06 1292.42 1468.33 Q1292.42 1459.58 1295.48 1455 Q1298.56 1450.39 1304.37 1450.39 Z" fill="#000000" fill-rule="nonzero" fill-opacity="1" /><path clip-path="url(#clip930)" d="M1698.44 1454.1 Q1694.83 1454.1 1693 1457.66 Q1691.19 1461.2 1691.19 1468.33 Q1691.19 1475.44 1693 1479.01 Q1694.83 1482.55 1698.44 1482.55 Q1702.07 1482.55 1703.88 1479.01 Q1705.7 1475.44 1705.7 1468.33 Q1705.7 1461.2 1703.88 1457.66 Q1702.07 1454.1 1698.44 1454.1 M1698.44 1450.39 Q1704.25 1450.39 1707.3 1455 Q1710.38 1459.58 1710.38 1468.33 Q1710.38 1477.06 1707.3 1481.67 Q1704.25 1486.25 1698.44 1486.25 Q1692.63 1486.25 1689.55 1481.67 Q1686.49 1477.06 1686.49 1468.33 Q1686.49 1459.58 1689.55 1455 Q1692.63 1450.39 1698.44 1450.39 Z" fill="#000000" fill-rule="nonzero" fill-opacity="1" /><path clip-path="url(#clip930)" d="M1718.6 1479.7 L1723.48 1479.7 L1723.48 1485.58 L1718.6 1485.58 L1718.6 1479.7 Z" fill="#000000" fill-rule="nonzero" fill-opacity="1" /><path clip-path="url(#clip930)" d="M1733.71 1451.02 L1752.07 1451.02 L1752.07 1454.96 L1738 1454.96 L1738 1463.43 Q1739.01 1463.08 1740.03 1462.92 Q1741.05 1462.73 1742.07 1462.73 Q1747.86 1462.73 1751.24 1465.9 Q1754.62 1469.08 1754.62 1474.49 Q1754.62 1480.07 1751.14 1483.17 Q1747.67 1486.25 1741.35 1486.25 Q1739.18 1486.25 1736.91 1485.88 Q1734.66 1485.51 1732.26 1484.77 L1732.26 1480.07 Q1734.34 1481.2 1736.56 1481.76 Q1738.78 1482.32 1741.26 1482.32 Q1745.26 1482.32 1747.6 1480.21 Q1749.94 1478.1 1749.94 1474.49 Q1749.94 1470.88 1747.6 1468.77 Q1745.26 1466.67 1741.26 1466.67 Q1739.39 1466.67 1737.51 1467.08 Q1735.66 1467.5 1733.71 1468.38 L1733.71 1451.02 Z" fill="#000000" fill-rule="nonzero" fill-opacity="1" /><path clip-path="url(#clip930)" d="M2126.51 1481.64 L2134.15 1481.64 L2134.15 1455.28 L2125.84 1456.95 L2125.84 1452.69 L2134.1 1451.02 L2138.78 1451.02 L2138.78 1481.64 L2146.42 1481.64 L2146.42 1485.58 L2126.51 1485.58 L2126.51 1481.64 Z" fill="#000000" fill-rule="nonzero" fill-opacity="1" /><path clip-path="url(#clip930)" d="M2155.86 1479.7 L2160.75 1479.7 L2160.75 1485.58 L2155.86 1485.58 L2155.86 1479.7 Z" fill="#000000" fill-rule="nonzero" fill-opacity="1" /><path clip-path="url(#clip930)" d="M2180.93 1454.1 Q2177.32 1454.1 2175.49 1457.66 Q2173.69 1461.2 2173.69 1468.33 Q2173.69 1475.44 2175.49 1479.01 Q2177.32 1482.55 2180.93 1482.55 Q2184.57 1482.55 2186.37 1479.01 Q2188.2 1475.44 2188.2 1468.33 Q2188.2 1461.2 2186.37 1457.66 Q2184.57 1454.1 2180.93 1454.1 M2180.93 1450.39 Q2186.74 1450.39 2189.8 1455 Q2192.88 1459.58 2192.88 1468.33 Q2192.88 1477.06 2189.8 1481.67 Q2186.74 1486.25 2180.93 1486.25 Q2175.12 1486.25 2172.04 1481.67 Q2168.99 1477.06 2168.99 1468.33 Q2168.99 1459.58 2172.04 1455 Q2175.12 1450.39 2180.93 1450.39 Z" fill="#000000" fill-rule="nonzero" fill-opacity="1" /><path clip-path="url(#clip930)" d="M1209.37 1518.52 L1215.23 1518.52 L1215.23 1568.04 L1209.37 1568.04 L1209.37 1518.52 Z" fill="#000000" fill-rule="nonzero" fill-opacity="1" /><path clip-path="url(#clip930)" d="M1241.3 1536.5 Q1236.59 1536.5 1233.85 1540.19 Q1231.11 1543.85 1231.11 1550.25 Q1231.11 1556.65 1233.82 1560.34 Q1236.55 1564 1241.3 1564 Q1245.98 1564 1248.71 1560.31 Q1251.45 1556.62 1251.45 1550.25 Q1251.45 1543.92 1248.71 1540.23 Q1245.98 1536.5 1241.3 1536.5 M1241.3 1531.54 Q1248.94 1531.54 1253.3 1536.5 Q1257.66 1541.47 1257.66 1550.25 Q1257.66 1559 1253.3 1564 Q1248.94 1568.97 1241.3 1568.97 Q1233.63 1568.97 1229.27 1564 Q1224.94 1559 1224.94 1550.25 Q1224.94 1541.47 1229.27 1536.5 Q1233.63 1531.54 1241.3 1531.54 Z" fill="#000000" fill-rule="nonzero" fill-opacity="1" /><path clip-path="url(#clip930)" d="M1290.82 1549.81 Q1290.82 1543.44 1288.18 1539.94 Q1285.57 1536.44 1280.83 1536.44 Q1276.12 1536.44 1273.48 1539.94 Q1270.87 1543.44 1270.87 1549.81 Q1270.87 1556.14 1273.48 1559.64 Q1276.12 1563.14 1280.83 1563.14 Q1285.57 1563.14 1288.18 1559.64 Q1290.82 1556.14 1290.82 1549.81 M1296.68 1563.62 Q1296.68 1572.72 1292.64 1577.15 Q1288.59 1581.6 1280.25 1581.6 Q1277.17 1581.6 1274.43 1581.13 Q1271.69 1580.68 1269.11 1579.72 L1269.11 1574.03 Q1271.69 1575.43 1274.21 1576.1 Q1276.72 1576.76 1279.33 1576.76 Q1285.09 1576.76 1287.96 1573.74 Q1290.82 1570.75 1290.82 1564.67 L1290.82 1561.77 Q1289.01 1564.92 1286.18 1566.48 Q1283.34 1568.04 1279.4 1568.04 Q1272.84 1568.04 1268.83 1563.05 Q1264.82 1558.05 1264.82 1549.81 Q1264.82 1541.53 1268.83 1536.53 Q1272.84 1531.54 1279.4 1531.54 Q1283.34 1531.54 1286.18 1533.1 Q1289.01 1534.66 1290.82 1537.81 L1290.82 1532.4 L1296.68 1532.4 L1296.68 1563.62 Z" fill="#000000" fill-rule="nonzero" fill-opacity="1" /><path clip-path="url(#clip930)" d="M1335.89 1548.82 Q1332.33 1548.06 1330.42 1545.99 Q1328.51 1543.95 1328.51 1540.99 Q1328.51 1536.5 1332.14 1533.99 Q1335.73 1531.5 1341.97 1531.5 Q1344.39 1531.5 1347.09 1531.89 Q1349.8 1532.27 1352.92 1533.03 L1352.92 1538.35 Q1349.83 1537.42 1347.29 1537.01 Q1344.71 1536.6 1342.45 1536.6 Q1338.66 1536.6 1336.46 1538.06 Q1334.24 1539.53 1334.24 1541.56 Q1334.24 1543.79 1336.4 1545.22 Q1338.53 1546.62 1342.23 1546.62 L1347.16 1546.62 L1347.16 1551.46 L1342.45 1551.46 Q1338.09 1551.46 1335.8 1553.08 Q1333.31 1554.87 1333.31 1557.67 Q1333.31 1560.53 1335.99 1562.31 Q1338.69 1564.1 1343.5 1564.1 Q1346.46 1564.1 1349.16 1563.52 Q1351.87 1562.92 1354.13 1561.74 L1354.13 1567.18 Q1351.26 1568.08 1348.59 1568.52 Q1345.89 1568.97 1343.34 1568.97 Q1335.76 1568.97 1331.66 1566.07 Q1327.55 1563.17 1327.55 1557.67 Q1327.55 1554.23 1329.75 1551.91 Q1331.94 1549.58 1335.89 1548.82 Z" fill="#000000" fill-rule="nonzero" fill-opacity="1" /><polyline clip-path="url(#clip930)" style="stroke:#000000; stroke-linecap:round; stroke-linejoin:round; stroke-width:4; stroke-opacity:1; fill:none" points="210.746,1423.18 210.746,123.472 "/>
<polyline clip-path="url(#clip930)" style="stroke:#000000; stroke-linecap:round; stroke-linejoin:round; stroke-width:4; stroke-opacity:1; fill:none" points="210.746,1247.39 229.644,1247.39 "/>
<polyline clip-path="url(#clip930)" style="stroke:#000000; stroke-linecap:round; stroke-linejoin:round; stroke-width:4; stroke-opacity:1; fill:none" points="210.746,1012.99 229.644,1012.99 "/>
<polyline clip-path="url(#clip930)" style="stroke:#000000; stroke-linecap:round; stroke-linejoin:round; stroke-width:4; stroke-opacity:1; fill:none" points="210.746,778.586 229.644,778.586 "/>
<polyline clip-path="url(#clip930)" style="stroke:#000000; stroke-linecap:round; stroke-linejoin:round; stroke-width:4; stroke-opacity:1; fill:none" points="210.746,544.182 229.644,544.182 "/>
<polyline clip-path="url(#clip930)" style="stroke:#000000; stroke-linecap:round; stroke-linejoin:round; stroke-width:4; stroke-opacity:1; fill:none" points="210.746,309.779 229.644,309.779 "/>
<path clip-path="url(#clip930)" d="M114.631 1247.84 L144.306 1247.84 L144.306 1251.78 L114.631 1251.78 L114.631 1247.84 Z" fill="#000000" fill-rule="nonzero" fill-opacity="1" /><path clip-path="url(#clip930)" d="M158.427 1260.74 L174.746 1260.74 L174.746 1264.67 L152.802 1264.67 L152.802 1260.74 Q155.464 1257.98 160.047 1253.35 Q164.653 1248.7 165.834 1247.36 Q168.079 1244.83 168.959 1243.1 Q169.862 1241.34 169.862 1239.65 Q169.862 1236.9 167.917 1235.16 Q165.996 1233.42 162.894 1233.42 Q160.695 1233.42 158.241 1234.19 Q155.811 1234.95 153.033 1236.5 L153.033 1231.78 Q155.857 1230.65 158.311 1230.07 Q160.765 1229.49 162.802 1229.49 Q168.172 1229.49 171.366 1232.17 Q174.561 1234.86 174.561 1239.35 Q174.561 1241.48 173.751 1243.4 Q172.964 1245.3 170.857 1247.89 Q170.278 1248.56 167.177 1251.78 Q164.075 1254.97 158.427 1260.74 Z" fill="#000000" fill-rule="nonzero" fill-opacity="1" /><path clip-path="url(#clip930)" d="M114.26 1013.44 L143.936 1013.44 L143.936 1017.38 L114.26 1017.38 L114.26 1013.44 Z" fill="#000000" fill-rule="nonzero" fill-opacity="1" /><path clip-path="url(#clip930)" d="M154.839 1026.33 L162.477 1026.33 L162.477 999.968 L154.167 1001.64 L154.167 997.376 L162.431 995.709 L167.107 995.709 L167.107 1026.33 L174.746 1026.33 L174.746 1030.27 L154.839 1030.27 L154.839 1026.33 Z" fill="#000000" fill-rule="nonzero" fill-opacity="1" /><path clip-path="url(#clip930)" d="M162.802 764.384 Q159.19 764.384 157.362 767.949 Q155.556 771.491 155.556 778.62 Q155.556 785.727 157.362 789.292 Q159.19 792.833 162.802 792.833 Q166.436 792.833 168.241 789.292 Q170.07 785.727 170.07 778.62 Q170.07 771.491 168.241 767.949 Q166.436 764.384 162.802 764.384 M162.802 760.681 Q168.612 760.681 171.667 765.287 Q174.746 769.87 174.746 778.62 Q174.746 787.347 171.667 791.954 Q168.612 796.537 162.802 796.537 Q156.991 796.537 153.913 791.954 Q150.857 787.347 150.857 778.62 Q150.857 769.87 153.913 765.287 Q156.991 760.681 162.802 760.681 Z" fill="#000000" fill-rule="nonzero" fill-opacity="1" /><path clip-path="url(#clip930)" d="M154.839 557.527 L162.477 557.527 L162.477 531.161 L154.167 532.828 L154.167 528.569 L162.431 526.902 L167.107 526.902 L167.107 557.527 L174.746 557.527 L174.746 561.462 L154.839 561.462 L154.839 557.527 Z" fill="#000000" fill-rule="nonzero" fill-opacity="1" /><path clip-path="url(#clip930)" d="M158.427 323.124 L174.746 323.124 L174.746 327.059 L152.802 327.059 L152.802 323.124 Q155.464 320.369 160.047 315.739 Q164.653 311.087 165.834 309.744 Q168.079 307.221 168.959 305.485 Q169.862 303.726 169.862 302.036 Q169.862 299.281 167.917 297.545 Q165.996 295.809 162.894 295.809 Q160.695 295.809 158.241 296.573 Q155.811 297.337 153.033 298.888 L153.033 294.165 Q155.857 293.031 158.311 292.452 Q160.765 291.874 162.802 291.874 Q168.172 291.874 171.366 294.559 Q174.561 297.244 174.561 301.735 Q174.561 303.864 173.751 305.786 Q172.964 307.684 170.857 310.276 Q170.278 310.948 167.177 314.165 Q164.075 317.36 158.427 323.124 Z" fill="#000000" fill-rule="nonzero" fill-opacity="1" /><path clip-path="url(#clip930)" d="M14.479 850.303 L14.479 844.447 L64.0042 844.447 L64.0042 850.303 L14.479 850.303 Z" fill="#000000" fill-rule="nonzero" fill-opacity="1" /><path clip-path="url(#clip930)" d="M32.4621 818.379 Q32.4621 823.09 36.1542 825.827 Q39.8145 828.564 46.212 828.564 Q52.6095 828.564 56.3017 825.859 Q59.9619 823.122 59.9619 818.379 Q59.9619 813.7 56.2698 810.963 Q52.5777 808.226 46.212 808.226 Q39.8781 808.226 36.186 810.963 Q32.4621 813.7 32.4621 818.379 M27.4968 818.379 Q27.4968 810.74 32.4621 806.38 Q37.4273 802.019 46.212 802.019 Q54.9649 802.019 59.9619 806.38 Q64.9272 810.74 64.9272 818.379 Q64.9272 826.05 59.9619 830.41 Q54.9649 834.739 46.212 834.739 Q37.4273 834.739 32.4621 830.41 Q27.4968 826.05 27.4968 818.379 Z" fill="#000000" fill-rule="nonzero" fill-opacity="1" /><path clip-path="url(#clip930)" d="M45.7664 768.854 Q39.4007 768.854 35.8996 771.496 Q32.3984 774.106 32.3984 778.848 Q32.3984 783.559 35.8996 786.201 Q39.4007 788.811 45.7664 788.811 Q52.1003 788.811 55.6014 786.201 Q59.1026 783.559 59.1026 778.848 Q59.1026 774.106 55.6014 771.496 Q52.1003 768.854 45.7664 768.854 M59.58 762.998 Q68.683 762.998 73.1071 767.04 Q77.5631 771.082 77.5631 779.421 Q77.5631 782.509 77.0857 785.246 Q76.6401 787.983 75.6852 790.561 L69.9879 790.561 Q71.3884 787.983 72.0568 785.469 Q72.7252 782.954 72.7252 780.344 Q72.7252 774.583 69.7015 771.719 Q66.7096 768.854 60.6303 768.854 L57.7339 768.854 Q60.885 770.668 62.4446 773.501 Q64.0042 776.334 64.0042 780.281 Q64.0042 786.837 59.0071 790.848 Q54.01 794.858 45.7664 794.858 Q37.491 794.858 32.4939 790.848 Q27.4968 786.837 27.4968 780.281 Q27.4968 776.334 29.0564 773.501 Q30.616 770.668 33.7671 768.854 L28.3562 768.854 L28.3562 762.998 L59.58 762.998 Z" fill="#000000" fill-rule="nonzero" fill-opacity="1" /><path clip-path="url(#clip930)" d="M16.4842 736.548 L16.4842 696.349 L21.895 696.349 L21.895 713.218 L64.0042 713.218 L64.0042 719.679 L21.895 719.679 L21.895 736.548 L16.4842 736.548 Z" fill="#000000" fill-rule="nonzero" fill-opacity="1" /><path clip-path="url(#clip930)" d="M846.157 44.2197 Q848.79 45.1109 851.261 48.0275 Q853.773 50.9442 856.284 56.0483 L864.589 72.576 L855.798 72.576 L848.061 57.061 Q845.063 50.9847 842.228 48.9997 Q839.433 47.0148 834.572 47.0148 L825.66 47.0148 L825.66 72.576 L817.477 72.576 L817.477 12.096 L835.949 12.096 Q846.319 12.096 851.423 16.4305 Q856.528 20.7649 856.528 29.5149 Q856.528 35.2267 853.854 38.994 Q851.221 42.7613 846.157 44.2197 M825.66 18.8205 L825.66 40.2903 L835.949 40.2903 Q841.863 40.2903 844.861 37.5762 Q847.899 34.8216 847.899 29.5149 Q847.899 24.2082 844.861 21.5346 Q841.863 18.8205 835.949 18.8205 L825.66 18.8205 Z" fill="#000000" fill-rule="nonzero" fill-opacity="1" /><path clip-path="url(#clip930)" d="M909.878 48.0275 L909.878 51.6733 L875.607 51.6733 Q876.093 59.3701 880.225 63.421 Q884.398 67.4314 891.811 67.4314 Q896.105 67.4314 900.115 66.3781 Q904.166 65.3249 908.136 63.2184 L908.136 70.267 Q904.126 71.9684 899.913 72.8596 Q895.7 73.7508 891.365 73.7508 Q880.509 73.7508 874.149 67.4314 Q867.83 61.1119 867.83 50.3365 Q867.83 39.1965 873.825 32.6746 Q879.861 26.1121 890.069 26.1121 Q899.224 26.1121 904.531 32.0264 Q909.878 37.9003 909.878 48.0275 M902.424 45.84 Q902.343 39.7232 898.981 36.0774 Q895.659 32.4315 890.15 32.4315 Q883.912 32.4315 880.144 35.9558 Q876.417 39.4801 875.85 45.8805 L902.424 45.84 Z" fill="#000000" fill-rule="nonzero" fill-opacity="1" /><path clip-path="url(#clip930)" d="M929.484 14.324 L929.484 27.2059 L944.837 27.2059 L944.837 32.9987 L929.484 32.9987 L929.484 57.6282 Q929.484 63.1779 930.983 64.7578 Q932.522 66.3376 937.181 66.3376 L944.837 66.3376 L944.837 72.576 L937.181 72.576 Q928.553 72.576 925.271 69.3758 Q921.99 66.1351 921.99 57.6282 L921.99 32.9987 L916.521 32.9987 L916.521 27.2059 L921.99 27.2059 L921.99 14.324 L929.484 14.324 Z" fill="#000000" fill-rule="nonzero" fill-opacity="1" /><path clip-path="url(#clip930)" d="M953.871 54.671 L953.871 27.2059 L961.324 27.2059 L961.324 54.3874 Q961.324 60.8284 963.836 64.0691 Q966.348 67.2693 971.371 67.2693 Q977.406 67.2693 980.89 63.421 Q984.415 59.5726 984.415 52.9291 L984.415 27.2059 L991.868 27.2059 L991.868 72.576 L984.415 72.576 L984.415 65.6084 Q981.7 69.7404 978.095 71.7658 Q974.53 73.7508 969.791 73.7508 Q961.973 73.7508 957.922 68.8897 Q953.871 64.0286 953.871 54.671 M972.626 26.1121 L972.626 26.1121 Z" fill="#000000" fill-rule="nonzero" fill-opacity="1" /><path clip-path="url(#clip930)" d="M1033.51 34.1734 Q1032.26 33.4443 1030.76 33.1202 Q1029.3 32.7556 1027.52 32.7556 Q1021.2 32.7556 1017.79 36.8875 Q1014.43 40.9789 1014.43 48.6757 L1014.43 72.576 L1006.94 72.576 L1006.94 27.2059 L1014.43 27.2059 L1014.43 34.2544 Q1016.78 30.1225 1020.55 28.1376 Q1024.32 26.1121 1029.7 26.1121 Q1030.47 26.1121 1031.41 26.2337 Q1032.34 26.3147 1033.47 26.5172 L1033.51 34.1734 Z" fill="#000000" fill-rule="nonzero" fill-opacity="1" /><path clip-path="url(#clip930)" d="M1077.59 45.1919 L1077.59 72.576 L1070.13 72.576 L1070.13 45.4349 Q1070.13 38.994 1067.62 35.7938 Q1065.11 32.5936 1060.09 32.5936 Q1054.05 32.5936 1050.57 36.4419 Q1047.08 40.2903 1047.08 46.9338 L1047.08 72.576 L1039.59 72.576 L1039.59 27.2059 L1047.08 27.2059 L1047.08 34.2544 Q1049.76 30.163 1053.36 28.1376 Q1057.01 26.1121 1061.75 26.1121 Q1069.56 26.1121 1073.57 30.9732 Q1077.59 35.7938 1077.59 45.1919 Z" fill="#000000" fill-rule="nonzero" fill-opacity="1" /><path clip-path="url(#clip930)" d="M1110.76 12.096 L1161.93 12.096 L1161.93 18.9825 L1140.46 18.9825 L1140.46 72.576 L1132.23 72.576 L1132.23 18.9825 L1110.76 18.9825 L1110.76 12.096 Z" fill="#000000" fill-rule="nonzero" fill-opacity="1" /><path clip-path="url(#clip930)" d="M1166.95 27.2059 L1174.4 27.2059 L1174.4 72.576 L1166.95 72.576 L1166.95 27.2059 M1166.95 9.54393 L1174.4 9.54393 L1174.4 18.9825 L1166.95 18.9825 L1166.95 9.54393 Z" fill="#000000" fill-rule="nonzero" fill-opacity="1" /><path clip-path="url(#clip930)" d="M1225.32 35.9153 Q1228.12 30.8922 1232.01 28.5022 Q1235.89 26.1121 1241.16 26.1121 Q1248.25 26.1121 1252.1 31.0947 Q1255.95 36.0368 1255.95 45.1919 L1255.95 72.576 L1248.45 72.576 L1248.45 45.4349 Q1248.45 38.913 1246.14 35.7533 Q1243.83 32.5936 1239.09 32.5936 Q1233.3 32.5936 1229.94 36.4419 Q1226.58 40.2903 1226.58 46.9338 L1226.58 72.576 L1219.08 72.576 L1219.08 45.4349 Q1219.08 38.8725 1216.77 35.7533 Q1214.47 32.5936 1209.64 32.5936 Q1203.93 32.5936 1200.57 36.4824 Q1197.21 40.3308 1197.21 46.9338 L1197.21 72.576 L1189.71 72.576 L1189.71 27.2059 L1197.21 27.2059 L1197.21 34.2544 Q1199.76 30.082 1203.33 28.0971 Q1206.89 26.1121 1211.79 26.1121 Q1216.73 26.1121 1220.18 28.6237 Q1223.66 31.1352 1225.32 35.9153 Z" fill="#000000" fill-rule="nonzero" fill-opacity="1" /><path clip-path="url(#clip930)" d="M1309.62 48.0275 L1309.62 51.6733 L1275.35 51.6733 Q1275.84 59.3701 1279.97 63.421 Q1284.14 67.4314 1291.55 67.4314 Q1295.85 67.4314 1299.86 66.3781 Q1303.91 65.3249 1307.88 63.2184 L1307.88 70.267 Q1303.87 71.9684 1299.66 72.8596 Q1295.44 73.7508 1291.11 73.7508 Q1280.25 73.7508 1273.89 67.4314 Q1267.57 61.1119 1267.57 50.3365 Q1267.57 39.1965 1273.57 32.6746 Q1279.6 26.1121 1289.81 26.1121 Q1298.97 26.1121 1304.27 32.0264 Q1309.62 37.9003 1309.62 48.0275 M1302.17 45.84 Q1302.09 39.7232 1298.72 36.0774 Q1295.4 32.4315 1289.89 32.4315 Q1283.65 32.4315 1279.89 35.9558 Q1276.16 39.4801 1275.59 45.8805 L1302.17 45.84 Z" fill="#000000" fill-rule="nonzero" fill-opacity="1" /><path clip-path="url(#clip930)" d="M1348.55 12.096 L1386.79 12.096 L1386.79 18.9825 L1356.73 18.9825 L1356.73 36.8875 L1385.54 36.8875 L1385.54 43.7741 L1356.73 43.7741 L1356.73 65.6895 L1387.52 65.6895 L1387.52 72.576 L1348.55 72.576 L1348.55 12.096 Z" fill="#000000" fill-rule="nonzero" fill-opacity="1" /><path clip-path="url(#clip930)" d="M1429.57 28.5427 L1429.57 35.5912 Q1426.41 33.9709 1423.01 33.1607 Q1419.6 32.3505 1415.96 32.3505 Q1410.41 32.3505 1407.61 34.0519 Q1404.86 35.7533 1404.86 39.156 Q1404.86 41.7486 1406.84 43.2475 Q1408.83 44.7058 1414.82 46.0426 L1417.38 46.6097 Q1425.31 48.3111 1428.64 51.4303 Q1432 54.509 1432 60.0587 Q1432 66.3781 1426.98 70.0644 Q1421.99 73.7508 1413.24 73.7508 Q1409.6 73.7508 1405.63 73.0216 Q1401.7 72.3329 1397.32 70.9151 L1397.32 63.2184 Q1401.46 65.3654 1405.47 66.4591 Q1409.48 67.5124 1413.41 67.5124 Q1418.67 67.5124 1421.51 65.73 Q1424.34 63.9071 1424.34 60.6258 Q1424.34 57.5877 1422.28 55.9673 Q1420.25 54.3469 1413.32 52.8481 L1410.73 52.2405 Q1403.8 50.7821 1400.73 47.7845 Q1397.65 44.7463 1397.65 39.4801 Q1397.65 33.0797 1402.18 29.5959 Q1406.72 26.1121 1415.07 26.1121 Q1419.2 26.1121 1422.84 26.7198 Q1426.49 27.3274 1429.57 28.5427 Z" fill="#000000" fill-rule="nonzero" fill-opacity="1" /><path clip-path="url(#clip930)" d="M1451.24 14.324 L1451.24 27.2059 L1466.59 27.2059 L1466.59 32.9987 L1451.24 32.9987 L1451.24 57.6282 Q1451.24 63.1779 1452.74 64.7578 Q1454.28 66.3376 1458.94 66.3376 L1466.59 66.3376 L1466.59 72.576 L1458.94 72.576 Q1450.31 72.576 1447.03 69.3758 Q1443.75 66.1351 1443.75 57.6282 L1443.75 32.9987 L1438.28 32.9987 L1438.28 27.2059 L1443.75 27.2059 L1443.75 14.324 L1451.24 14.324 Z" fill="#000000" fill-rule="nonzero" fill-opacity="1" /><path clip-path="url(#clip930)" d="M1476.4 27.2059 L1483.85 27.2059 L1483.85 72.576 L1476.4 72.576 L1476.4 27.2059 M1476.4 9.54393 L1483.85 9.54393 L1483.85 18.9825 L1476.4 18.9825 L1476.4 9.54393 Z" fill="#000000" fill-rule="nonzero" fill-opacity="1" /><path clip-path="url(#clip930)" d="M1534.77 35.9153 Q1537.57 30.8922 1541.45 28.5022 Q1545.34 26.1121 1550.61 26.1121 Q1557.7 26.1121 1561.55 31.0947 Q1565.4 36.0368 1565.4 45.1919 L1565.4 72.576 L1557.9 72.576 L1557.9 45.4349 Q1557.9 38.913 1555.59 35.7533 Q1553.28 32.5936 1548.54 32.5936 Q1542.75 32.5936 1539.39 36.4419 Q1536.03 40.2903 1536.03 46.9338 L1536.03 72.576 L1528.53 72.576 L1528.53 45.4349 Q1528.53 38.8725 1526.22 35.7533 Q1523.91 32.5936 1519.09 32.5936 Q1513.38 32.5936 1510.02 36.4824 Q1506.66 40.3308 1506.66 46.9338 L1506.66 72.576 L1499.16 72.576 L1499.16 27.2059 L1506.66 27.2059 L1506.66 34.2544 Q1509.21 30.082 1512.77 28.0971 Q1516.34 26.1121 1521.24 26.1121 Q1526.18 26.1121 1529.63 28.6237 Q1533.11 31.1352 1534.77 35.9153 Z" fill="#000000" fill-rule="nonzero" fill-opacity="1" /><path clip-path="url(#clip930)" d="M1600.88 49.7694 Q1591.85 49.7694 1588.36 51.8354 Q1584.88 53.9013 1584.88 58.8839 Q1584.88 62.8538 1587.47 65.2034 Q1590.11 67.5124 1594.6 67.5124 Q1600.8 67.5124 1604.53 63.1374 Q1608.29 58.7219 1608.29 51.4303 L1608.29 49.7694 L1600.88 49.7694 M1615.75 46.6907 L1615.75 72.576 L1608.29 72.576 L1608.29 65.6895 Q1605.74 69.8214 1601.93 71.8063 Q1598.13 73.7508 1592.62 73.7508 Q1585.65 73.7508 1581.52 69.8619 Q1577.43 65.9325 1577.43 59.3701 Q1577.43 51.7138 1582.53 47.825 Q1587.68 43.9361 1597.84 43.9361 L1608.29 43.9361 L1608.29 43.2069 Q1608.29 38.0623 1604.89 35.2672 Q1601.53 32.4315 1595.41 32.4315 Q1591.52 32.4315 1587.84 33.3632 Q1584.15 34.295 1580.75 36.1584 L1580.75 29.2718 Q1584.84 27.692 1588.69 26.9223 Q1592.54 26.1121 1596.18 26.1121 Q1606.03 26.1121 1610.89 31.2163 Q1615.75 36.3204 1615.75 46.6907 Z" fill="#000000" fill-rule="nonzero" fill-opacity="1" /><path clip-path="url(#clip930)" d="M1638.47 14.324 L1638.47 27.2059 L1653.83 27.2059 L1653.83 32.9987 L1638.47 32.9987 L1638.47 57.6282 Q1638.47 63.1779 1639.97 64.7578 Q1641.51 66.3376 1646.17 66.3376 L1653.83 66.3376 L1653.83 72.576 L1646.17 72.576 Q1637.54 72.576 1634.26 69.3758 Q1630.98 66.1351 1630.98 57.6282 L1630.98 32.9987 L1625.51 32.9987 L1625.51 27.2059 L1630.98 27.2059 L1630.98 14.324 L1638.47 14.324 Z" fill="#000000" fill-rule="nonzero" fill-opacity="1" /><path clip-path="url(#clip930)" d="M1702.44 48.0275 L1702.44 51.6733 L1668.17 51.6733 Q1668.65 59.3701 1672.78 63.421 Q1676.96 67.4314 1684.37 67.4314 Q1688.66 67.4314 1692.67 66.3781 Q1696.73 65.3249 1700.7 63.2184 L1700.7 70.267 Q1696.69 71.9684 1692.47 72.8596 Q1688.26 73.7508 1683.92 73.7508 Q1673.07 73.7508 1666.71 67.4314 Q1660.39 61.1119 1660.39 50.3365 Q1660.39 39.1965 1666.38 32.6746 Q1672.42 26.1121 1682.63 26.1121 Q1691.78 26.1121 1697.09 32.0264 Q1702.44 37.9003 1702.44 48.0275 M1694.98 45.84 Q1694.9 39.7232 1691.54 36.0774 Q1688.22 32.4315 1682.71 32.4315 Q1676.47 32.4315 1672.7 35.9558 Q1668.98 39.4801 1668.41 45.8805 L1694.98 45.84 Z" fill="#000000" fill-rule="nonzero" fill-opacity="1" /><path clip-path="url(#clip930)" d="M1743.59 28.5427 L1743.59 35.5912 Q1740.43 33.9709 1737.03 33.1607 Q1733.63 32.3505 1729.98 32.3505 Q1724.43 32.3505 1721.64 34.0519 Q1718.88 35.7533 1718.88 39.156 Q1718.88 41.7486 1720.87 43.2475 Q1722.85 44.7058 1728.85 46.0426 L1731.4 46.6097 Q1739.34 48.3111 1742.66 51.4303 Q1746.03 54.509 1746.03 60.0587 Q1746.03 66.3781 1741 70.0644 Q1736.02 73.7508 1727.27 73.7508 Q1723.62 73.7508 1719.65 73.0216 Q1715.72 72.3329 1711.35 70.9151 L1711.35 63.2184 Q1715.48 65.3654 1719.49 66.4591 Q1723.5 67.5124 1727.43 67.5124 Q1732.7 67.5124 1735.53 65.73 Q1738.37 63.9071 1738.37 60.6258 Q1738.37 57.5877 1736.3 55.9673 Q1734.28 54.3469 1727.35 52.8481 L1724.76 52.2405 Q1717.83 50.7821 1714.75 47.7845 Q1711.67 44.7463 1711.67 39.4801 Q1711.67 33.0797 1716.21 29.5959 Q1720.75 26.1121 1729.09 26.1121 Q1733.22 26.1121 1736.87 26.7198 Q1740.52 27.3274 1743.59 28.5427 Z" fill="#000000" fill-rule="nonzero" fill-opacity="1" /><polyline clip-path="url(#clip932)" style="stroke:#ff0000; stroke-linecap:round; stroke-linejoin:round; stroke-width:4; stroke-opacity:1; fill:none" points="2292.13,928.338 1786.94,947.681 1281.75,929.571 776.56,844.859 271.369,641.708 "/>
<polyline clip-path="url(#clip932)" style="stroke:#000000; stroke-linecap:round; stroke-linejoin:round; stroke-width:4; stroke-opacity:1; fill:none" points="2292.13,716.753 1786.94,668.629 1281.75,583.053 776.56,430.874 271.369,160.256 "/>
<polyline clip-path="url(#clip932)" style="stroke:#008000; stroke-linecap:round; stroke-linejoin:round; stroke-width:4; stroke-opacity:1; fill:none" points="2292.13,1386.4 1786.94,1283.6 1281.75,1129.96 776.56,905.404 271.369,571.574 "/>
<polyline clip-path="url(#clip932)" style="stroke:#0000ff; stroke-linecap:round; stroke-linejoin:round; stroke-width:4; stroke-opacity:1; fill:none" points="2292.13,1386.4 1786.94,1283.6 1281.75,1129.96 776.56,905.404 271.369,571.574 "/>
<polyline clip-path="url(#clip932)" style="stroke:#800080; stroke-linecap:round; stroke-linejoin:round; stroke-width:4; stroke-opacity:1; fill:none" points="2292.13,1160.73 1786.94,1071.53 1281.75,935.201 776.56,773.732 271.369,511.283 "/>
<path clip-path="url(#clip930)" d="M1552.18 477.836 L2281.36 477.836 L2281.36 166.796 L1552.18 166.796  Z" fill="#ffffff" fill-rule="evenodd" fill-opacity="1"/>
<polyline clip-path="url(#clip930)" style="stroke:#000000; stroke-linecap:round; stroke-linejoin:round; stroke-width:4; stroke-opacity:1; fill:none" points="1552.18,477.836 2281.36,477.836 2281.36,166.796 1552.18,166.796 1552.18,477.836 "/>
<polyline clip-path="url(#clip930)" style="stroke:#ff0000; stroke-linecap:round; stroke-linejoin:round; stroke-width:4; stroke-opacity:1; fill:none" points="1575.98,218.636 1718.78,218.636 "/>
<path clip-path="url(#clip930)" d="M1762.93 214.967 Q1764.53 212.096 1766.75 210.731 Q1768.97 209.365 1771.98 209.365 Q1776.03 209.365 1778.23 212.212 Q1780.43 215.036 1780.43 220.268 L1780.43 235.916 L1776.15 235.916 L1776.15 220.407 Q1776.15 216.68 1774.83 214.874 Q1773.51 213.069 1770.8 213.069 Q1767.49 213.069 1765.57 215.268 Q1763.65 217.467 1763.65 221.263 L1763.65 235.916 L1759.36 235.916 L1759.36 220.407 Q1759.36 216.657 1758.04 214.874 Q1756.72 213.069 1753.97 213.069 Q1750.71 213.069 1748.79 215.291 Q1746.86 217.49 1746.86 221.263 L1746.86 235.916 L1742.58 235.916 L1742.58 209.99 L1746.86 209.99 L1746.86 214.018 Q1748.32 211.633 1750.36 210.499 Q1752.4 209.365 1755.2 209.365 Q1758.02 209.365 1759.99 210.8 Q1761.98 212.235 1762.93 214.967 Z" fill="#000000" fill-rule="nonzero" fill-opacity="1" /><path clip-path="url(#clip930)" d="M1799.71 238.323 Q1797.91 242.953 1796.19 244.365 Q1794.48 245.777 1791.61 245.777 L1788.21 245.777 L1788.21 242.212 L1790.71 242.212 Q1792.47 242.212 1793.44 241.379 Q1794.41 240.545 1795.59 237.443 L1796.35 235.499 L1785.87 209.99 L1790.38 209.99 L1798.48 230.268 L1806.59 209.99 L1811.1 209.99 L1799.71 238.323 Z" fill="#000000" fill-rule="nonzero" fill-opacity="1" /><path clip-path="url(#clip930)" d="M1845.17 199.897 L1845.17 203.439 L1841.1 203.439 Q1838.81 203.439 1837.9 204.365 Q1837.03 205.291 1837.03 207.698 L1837.03 209.99 L1844.04 209.99 L1844.04 213.3 L1837.03 213.3 L1837.03 235.916 L1832.74 235.916 L1832.74 213.3 L1828.67 213.3 L1828.67 209.99 L1832.74 209.99 L1832.74 208.184 Q1832.74 203.856 1834.76 201.888 Q1836.77 199.897 1841.15 199.897 L1845.17 199.897 Z" fill="#000000" fill-rule="nonzero" fill-opacity="1" /><path clip-path="url(#clip930)" d="M1858.78 212.976 Q1855.36 212.976 1853.37 215.661 Q1851.38 218.323 1851.38 222.976 Q1851.38 227.629 1853.34 230.314 Q1855.34 232.976 1858.78 232.976 Q1862.19 232.976 1864.18 230.291 Q1866.17 227.606 1866.17 222.976 Q1866.17 218.37 1864.18 215.684 Q1862.19 212.976 1858.78 212.976 M1858.78 209.365 Q1864.34 209.365 1867.51 212.976 Q1870.68 216.587 1870.68 222.976 Q1870.68 229.342 1867.51 232.976 Q1864.34 236.587 1858.78 236.587 Q1853.21 236.587 1850.03 232.976 Q1846.89 229.342 1846.89 222.976 Q1846.89 216.587 1850.03 212.976 Q1853.21 209.365 1858.78 209.365 Z" fill="#000000" fill-rule="nonzero" fill-opacity="1" /><path clip-path="url(#clip930)" d="M1892.77 213.971 Q1892.05 213.555 1891.19 213.37 Q1890.36 213.161 1889.34 213.161 Q1885.73 213.161 1883.78 215.522 Q1881.86 217.86 1881.86 222.258 L1881.86 235.916 L1877.58 235.916 L1877.58 209.99 L1881.86 209.99 L1881.86 214.018 Q1883.21 211.657 1885.36 210.522 Q1887.51 209.365 1890.59 209.365 Q1891.03 209.365 1891.56 209.434 Q1892.09 209.481 1892.74 209.596 L1892.77 213.971 Z" fill="#000000" fill-rule="nonzero" fill-opacity="1" /><path clip-path="url(#clip930)" d="M1916.59 214.967 Q1918.18 212.096 1920.4 210.731 Q1922.63 209.365 1925.64 209.365 Q1929.69 209.365 1931.89 212.212 Q1934.08 215.036 1934.08 220.268 L1934.08 235.916 L1929.8 235.916 L1929.8 220.407 Q1929.8 216.68 1928.48 214.874 Q1927.16 213.069 1924.46 213.069 Q1921.15 213.069 1919.22 215.268 Q1917.3 217.467 1917.3 221.263 L1917.3 235.916 L1913.02 235.916 L1913.02 220.407 Q1913.02 216.657 1911.7 214.874 Q1910.38 213.069 1907.63 213.069 Q1904.36 213.069 1902.44 215.291 Q1900.52 217.49 1900.52 221.263 L1900.52 235.916 L1896.24 235.916 L1896.24 209.99 L1900.52 209.99 L1900.52 214.018 Q1901.98 211.633 1904.02 210.499 Q1906.05 209.365 1908.85 209.365 Q1911.68 209.365 1913.65 210.8 Q1915.64 212.235 1916.59 214.967 Z" fill="#000000" fill-rule="nonzero" fill-opacity="1" /><path clip-path="url(#clip930)" d="M1942.14 225.684 L1942.14 209.99 L1946.4 209.99 L1946.4 225.522 Q1946.4 229.203 1947.83 231.055 Q1949.27 232.883 1952.14 232.883 Q1955.59 232.883 1957.58 230.684 Q1959.59 228.485 1959.59 224.689 L1959.59 209.99 L1963.85 209.99 L1963.85 235.916 L1959.59 235.916 L1959.59 231.934 Q1958.04 234.295 1955.98 235.453 Q1953.95 236.587 1951.24 236.587 Q1946.77 236.587 1944.46 233.809 Q1942.14 231.031 1942.14 225.684 M1952.86 209.365 L1952.86 209.365 Z" fill="#000000" fill-rule="nonzero" fill-opacity="1" /><path clip-path="url(#clip930)" d="M1972.63 199.897 L1976.89 199.897 L1976.89 235.916 L1972.63 235.916 L1972.63 199.897 Z" fill="#000000" fill-rule="nonzero" fill-opacity="1" /><path clip-path="url(#clip930)" d="M1997.58 222.883 Q1992.42 222.883 1990.43 224.064 Q1988.44 225.244 1988.44 228.092 Q1988.44 230.36 1989.92 231.703 Q1991.42 233.022 1993.99 233.022 Q1997.53 233.022 1999.66 230.522 Q2001.82 227.999 2001.82 223.832 L2001.82 222.883 L1997.58 222.883 M2006.08 221.124 L2006.08 235.916 L2001.82 235.916 L2001.82 231.981 Q2000.36 234.342 1998.18 235.476 Q1996.01 236.587 1992.86 236.587 Q1988.88 236.587 1986.52 234.365 Q1984.18 232.119 1984.18 228.369 Q1984.18 223.994 1987.09 221.772 Q1990.03 219.55 1995.84 219.55 L2001.82 219.55 L2001.82 219.133 Q2001.82 216.194 1999.87 214.596 Q1997.95 212.976 1994.46 212.976 Q1992.23 212.976 1990.13 213.508 Q1988.02 214.041 1986.08 215.106 L1986.08 211.17 Q1988.41 210.268 1990.61 209.828 Q1992.81 209.365 1994.89 209.365 Q2000.52 209.365 2003.3 212.282 Q2006.08 215.198 2006.08 221.124 Z" fill="#000000" fill-rule="nonzero" fill-opacity="1" /><polyline clip-path="url(#clip930)" style="stroke:#000000; stroke-linecap:round; stroke-linejoin:round; stroke-width:4; stroke-opacity:1; fill:none" points="1575.98,270.476 1718.78,270.476 "/>
<path clip-path="url(#clip930)" d="M1764.29 272.108 L1764.29 287.756 L1760.03 287.756 L1760.03 272.247 Q1760.03 268.566 1758.6 266.737 Q1757.16 264.909 1754.29 264.909 Q1750.85 264.909 1748.85 267.108 Q1746.86 269.307 1746.86 273.103 L1746.86 287.756 L1742.58 287.756 L1742.58 261.83 L1746.86 261.83 L1746.86 265.858 Q1748.39 263.52 1750.45 262.362 Q1752.54 261.205 1755.24 261.205 Q1759.71 261.205 1762 263.983 Q1764.29 266.737 1764.29 272.108 Z" fill="#000000" fill-rule="nonzero" fill-opacity="1" /><path clip-path="url(#clip930)" d="M1782.84 264.816 Q1779.41 264.816 1777.42 267.501 Q1775.43 270.163 1775.43 274.816 Q1775.43 279.469 1777.4 282.154 Q1779.39 284.816 1782.84 284.816 Q1786.24 284.816 1788.23 282.131 Q1790.22 279.446 1790.22 274.816 Q1790.22 270.21 1788.23 267.524 Q1786.24 264.816 1782.84 264.816 M1782.84 261.205 Q1788.39 261.205 1791.56 264.816 Q1794.73 268.427 1794.73 274.816 Q1794.73 281.182 1791.56 284.816 Q1788.39 288.427 1782.84 288.427 Q1777.26 288.427 1774.09 284.816 Q1770.94 281.182 1770.94 274.816 Q1770.94 268.427 1774.09 264.816 Q1777.26 261.205 1782.84 261.205 Z" fill="#000000" fill-rule="nonzero" fill-opacity="1" /><path clip-path="url(#clip930)" d="M1820.98 283.867 L1820.98 297.617 L1816.7 297.617 L1816.7 261.83 L1820.98 261.83 L1820.98 265.765 Q1822.33 263.45 1824.36 262.339 Q1826.42 261.205 1829.27 261.205 Q1833.99 261.205 1836.93 264.955 Q1839.9 268.705 1839.9 274.816 Q1839.9 280.927 1836.93 284.677 Q1833.99 288.427 1829.27 288.427 Q1826.42 288.427 1824.36 287.316 Q1822.33 286.182 1820.98 283.867 M1835.47 274.816 Q1835.47 270.117 1833.53 267.455 Q1831.61 264.77 1828.23 264.77 Q1824.85 264.77 1822.91 267.455 Q1820.98 270.117 1820.98 274.816 Q1820.98 279.515 1822.91 282.2 Q1824.85 284.862 1828.23 284.862 Q1831.61 284.862 1833.53 282.2 Q1835.47 279.515 1835.47 274.816 Z" fill="#000000" fill-rule="nonzero" fill-opacity="1" /><path clip-path="url(#clip930)" d="M1861.98 265.811 Q1861.26 265.395 1860.4 265.21 Q1859.57 265.001 1858.55 265.001 Q1854.94 265.001 1853 267.362 Q1851.08 269.7 1851.08 274.098 L1851.08 287.756 L1846.79 287.756 L1846.79 261.83 L1851.08 261.83 L1851.08 265.858 Q1852.42 263.497 1854.57 262.362 Q1856.72 261.205 1859.8 261.205 Q1860.24 261.205 1860.78 261.274 Q1861.31 261.321 1861.96 261.436 L1861.98 265.811 Z" fill="#000000" fill-rule="nonzero" fill-opacity="1" /><path clip-path="url(#clip930)" d="M1887.58 273.728 L1887.58 275.811 L1868 275.811 Q1868.28 280.209 1870.64 282.524 Q1873.02 284.816 1877.26 284.816 Q1879.71 284.816 1882 284.214 Q1884.32 283.612 1886.59 282.409 L1886.59 286.436 Q1884.29 287.408 1881.89 287.918 Q1879.48 288.427 1877 288.427 Q1870.8 288.427 1867.16 284.816 Q1863.55 281.205 1863.55 275.047 Q1863.55 268.682 1866.98 264.955 Q1870.43 261.205 1876.26 261.205 Q1881.49 261.205 1884.53 264.585 Q1887.58 267.941 1887.58 273.728 M1883.32 272.478 Q1883.28 268.983 1881.35 266.899 Q1879.46 264.816 1876.31 264.816 Q1872.74 264.816 1870.59 266.83 Q1868.46 268.844 1868.14 272.501 L1883.32 272.478 Z" fill="#000000" fill-rule="nonzero" fill-opacity="1" /><path clip-path="url(#clip930)" d="M1907.7 251.737 L1907.7 255.279 L1903.62 255.279 Q1901.33 255.279 1900.43 256.205 Q1899.55 257.131 1899.55 259.538 L1899.55 261.83 L1906.56 261.83 L1906.56 265.14 L1899.55 265.14 L1899.55 287.756 L1895.27 287.756 L1895.27 265.14 L1891.19 265.14 L1891.19 261.83 L1895.27 261.83 L1895.27 260.024 Q1895.27 255.696 1897.28 253.728 Q1899.29 251.737 1903.67 251.737 L1907.7 251.737 Z" fill="#000000" fill-rule="nonzero" fill-opacity="1" /><path clip-path="url(#clip930)" d="M1923.04 274.723 Q1917.88 274.723 1915.89 275.904 Q1913.9 277.084 1913.9 279.932 Q1913.9 282.2 1915.38 283.543 Q1916.89 284.862 1919.46 284.862 Q1923 284.862 1925.13 282.362 Q1927.28 279.839 1927.28 275.672 L1927.28 274.723 L1923.04 274.723 M1931.54 272.964 L1931.54 287.756 L1927.28 287.756 L1927.28 283.821 Q1925.82 286.182 1923.65 287.316 Q1921.47 288.427 1918.32 288.427 Q1914.34 288.427 1911.98 286.205 Q1909.64 283.959 1909.64 280.209 Q1909.64 275.834 1912.56 273.612 Q1915.5 271.39 1921.31 271.39 L1927.28 271.39 L1927.28 270.973 Q1927.28 268.034 1925.34 266.436 Q1923.41 264.816 1919.92 264.816 Q1917.7 264.816 1915.59 265.348 Q1913.48 265.881 1911.54 266.946 L1911.54 263.01 Q1913.88 262.108 1916.08 261.668 Q1918.27 261.205 1920.36 261.205 Q1925.98 261.205 1928.76 264.122 Q1931.54 267.038 1931.54 272.964 Z" fill="#000000" fill-rule="nonzero" fill-opacity="1" /><path clip-path="url(#clip930)" d="M1958.97 262.825 L1958.97 266.807 Q1957.16 265.811 1955.33 265.325 Q1953.53 264.816 1951.68 264.816 Q1947.53 264.816 1945.24 267.455 Q1942.95 270.071 1942.95 274.816 Q1942.95 279.561 1945.24 282.2 Q1947.53 284.816 1951.68 284.816 Q1953.53 284.816 1955.33 284.33 Q1957.16 283.821 1958.97 282.825 L1958.97 286.76 Q1957.19 287.594 1955.27 288.01 Q1953.37 288.427 1951.21 288.427 Q1945.36 288.427 1941.91 284.746 Q1938.46 281.066 1938.46 274.816 Q1938.46 268.473 1941.93 264.839 Q1945.43 261.205 1951.49 261.205 Q1953.46 261.205 1955.33 261.622 Q1957.21 262.015 1958.97 262.825 Z" fill="#000000" fill-rule="nonzero" fill-opacity="1" /><path clip-path="url(#clip930)" d="M1970.59 254.469 L1970.59 261.83 L1979.36 261.83 L1979.36 265.14 L1970.59 265.14 L1970.59 279.214 Q1970.59 282.385 1971.45 283.288 Q1972.33 284.191 1974.99 284.191 L1979.36 284.191 L1979.36 287.756 L1974.99 287.756 Q1970.06 287.756 1968.18 285.927 Q1966.31 284.075 1966.31 279.214 L1966.31 265.14 L1963.18 265.14 L1963.18 261.83 L1966.31 261.83 L1966.31 254.469 L1970.59 254.469 Z" fill="#000000" fill-rule="nonzero" fill-opacity="1" /><path clip-path="url(#clip930)" d="M1995.01 264.816 Q1991.58 264.816 1989.59 267.501 Q1987.6 270.163 1987.6 274.816 Q1987.6 279.469 1989.57 282.154 Q1991.56 284.816 1995.01 284.816 Q1998.41 284.816 2000.4 282.131 Q2002.39 279.446 2002.39 274.816 Q2002.39 270.21 2000.4 267.524 Q1998.41 264.816 1995.01 264.816 M1995.01 261.205 Q2000.57 261.205 2003.74 264.816 Q2006.91 268.427 2006.91 274.816 Q2006.91 281.182 2003.74 284.816 Q2000.57 288.427 1995.01 288.427 Q1989.43 288.427 1986.26 284.816 Q1983.11 281.182 1983.11 274.816 Q1983.11 268.427 1986.26 264.816 Q1989.43 261.205 1995.01 261.205 Z" fill="#000000" fill-rule="nonzero" fill-opacity="1" /><path clip-path="url(#clip930)" d="M2028.99 265.811 Q2028.27 265.395 2027.42 265.21 Q2026.58 265.001 2025.57 265.001 Q2021.95 265.001 2020.01 267.362 Q2018.09 269.7 2018.09 274.098 L2018.09 287.756 L2013.81 287.756 L2013.81 261.83 L2018.09 261.83 L2018.09 265.858 Q2019.43 263.497 2021.58 262.362 Q2023.74 261.205 2026.82 261.205 Q2027.26 261.205 2027.79 261.274 Q2028.32 261.321 2028.97 261.436 L2028.99 265.811 Z" fill="#000000" fill-rule="nonzero" fill-opacity="1" /><polyline clip-path="url(#clip930)" style="stroke:#008000; stroke-linecap:round; stroke-linejoin:round; stroke-width:4; stroke-opacity:1; fill:none" points="1575.98,322.316 1718.78,322.316 "/>
<path clip-path="url(#clip930)" d="M1742.58 305.036 L1747.26 305.036 L1747.26 335.661 L1764.09 335.661 L1764.09 339.596 L1742.58 339.596 L1742.58 305.036 Z" fill="#000000" fill-rule="nonzero" fill-opacity="1" /><path clip-path="url(#clip930)" d="M1790.15 325.568 L1790.15 327.651 L1770.57 327.651 Q1770.85 332.049 1773.21 334.364 Q1775.59 336.656 1779.83 336.656 Q1782.28 336.656 1784.57 336.054 Q1786.89 335.452 1789.16 334.249 L1789.16 338.276 Q1786.86 339.248 1784.46 339.758 Q1782.05 340.267 1779.57 340.267 Q1773.37 340.267 1769.73 336.656 Q1766.12 333.045 1766.12 326.887 Q1766.12 320.522 1769.55 316.795 Q1773 313.045 1778.83 313.045 Q1784.06 313.045 1787.1 316.425 Q1790.15 319.781 1790.15 325.568 M1785.89 324.318 Q1785.85 320.823 1783.92 318.739 Q1782.03 316.656 1778.88 316.656 Q1775.31 316.656 1773.16 318.67 Q1771.03 320.684 1770.71 324.341 L1785.89 324.318 Z" fill="#000000" fill-rule="nonzero" fill-opacity="1" /><path clip-path="url(#clip930)" d="M1813.67 314.434 L1813.67 318.462 Q1811.86 317.536 1809.92 317.073 Q1807.97 316.61 1805.89 316.61 Q1802.72 316.61 1801.12 317.582 Q1799.55 318.554 1799.55 320.499 Q1799.55 321.98 1800.68 322.837 Q1801.82 323.67 1805.24 324.434 L1806.7 324.758 Q1811.24 325.73 1813.14 327.512 Q1815.06 329.272 1815.06 332.443 Q1815.06 336.054 1812.19 338.161 Q1809.34 340.267 1804.34 340.267 Q1802.26 340.267 1799.99 339.85 Q1797.74 339.457 1795.24 338.647 L1795.24 334.249 Q1797.6 335.475 1799.9 336.1 Q1802.19 336.702 1804.43 336.702 Q1807.44 336.702 1809.06 335.684 Q1810.68 334.642 1810.68 332.767 Q1810.68 331.031 1809.5 330.105 Q1808.34 329.179 1804.39 328.323 L1802.91 327.975 Q1798.95 327.142 1797.19 325.429 Q1795.43 323.693 1795.43 320.684 Q1795.43 317.026 1798.02 315.036 Q1800.61 313.045 1805.38 313.045 Q1807.74 313.045 1809.83 313.392 Q1811.91 313.739 1813.67 314.434 Z" fill="#000000" fill-rule="nonzero" fill-opacity="1" /><path clip-path="url(#clip930)" d="M1826.05 306.309 L1826.05 313.67 L1834.83 313.67 L1834.83 316.98 L1826.05 316.98 L1826.05 331.054 Q1826.05 334.225 1826.91 335.128 Q1827.79 336.031 1830.45 336.031 L1834.83 336.031 L1834.83 339.596 L1830.45 339.596 Q1825.52 339.596 1823.65 337.767 Q1821.77 335.915 1821.77 331.054 L1821.77 316.98 L1818.65 316.98 L1818.65 313.67 L1821.77 313.67 L1821.77 306.309 L1826.05 306.309 Z" fill="#000000" fill-rule="nonzero" fill-opacity="1" /><path clip-path="url(#clip930)" d="M1852.21 326.563 Q1847.05 326.563 1845.06 327.744 Q1843.07 328.924 1843.07 331.772 Q1843.07 334.04 1844.55 335.383 Q1846.05 336.702 1848.62 336.702 Q1852.16 336.702 1854.29 334.202 Q1856.45 331.679 1856.45 327.512 L1856.45 326.563 L1852.21 326.563 M1860.71 324.804 L1860.71 339.596 L1856.45 339.596 L1856.45 335.661 Q1854.99 338.022 1852.81 339.156 Q1850.64 340.267 1847.49 340.267 Q1843.51 340.267 1841.15 338.045 Q1838.81 335.799 1838.81 332.049 Q1838.81 327.674 1841.72 325.452 Q1844.66 323.23 1850.47 323.23 L1856.45 323.23 L1856.45 322.813 Q1856.45 319.874 1854.5 318.276 Q1852.58 316.656 1849.09 316.656 Q1846.86 316.656 1844.76 317.188 Q1842.65 317.721 1840.71 318.786 L1840.71 314.85 Q1843.04 313.948 1845.24 313.508 Q1847.44 313.045 1849.53 313.045 Q1855.15 313.045 1857.93 315.962 Q1860.71 318.878 1860.71 324.804 Z" fill="#000000" fill-rule="nonzero" fill-opacity="1" /><path clip-path="url(#clip930)" d="M1891.03 323.948 L1891.03 339.596 L1886.77 339.596 L1886.77 324.087 Q1886.77 320.406 1885.34 318.577 Q1883.9 316.749 1881.03 316.749 Q1877.58 316.749 1875.59 318.948 Q1873.6 321.147 1873.6 324.943 L1873.6 339.596 L1869.32 339.596 L1869.32 313.67 L1873.6 313.67 L1873.6 317.698 Q1875.13 315.36 1877.19 314.202 Q1879.27 313.045 1881.98 313.045 Q1886.45 313.045 1888.74 315.823 Q1891.03 318.577 1891.03 323.948 Z" fill="#000000" fill-rule="nonzero" fill-opacity="1" /><path clip-path="url(#clip930)" d="M1916.59 326.332 Q1916.59 321.702 1914.66 319.156 Q1912.77 316.61 1909.32 316.61 Q1905.89 316.61 1903.97 319.156 Q1902.07 321.702 1902.07 326.332 Q1902.07 330.938 1903.97 333.485 Q1905.89 336.031 1909.32 336.031 Q1912.77 336.031 1914.66 333.485 Q1916.59 330.938 1916.59 326.332 M1920.84 336.378 Q1920.84 342.998 1917.9 346.216 Q1914.96 349.457 1908.9 349.457 Q1906.65 349.457 1904.66 349.11 Q1902.67 348.785 1900.8 348.091 L1900.8 343.948 Q1902.67 344.966 1904.5 345.452 Q1906.33 345.938 1908.23 345.938 Q1912.42 345.938 1914.5 343.739 Q1916.59 341.563 1916.59 337.142 L1916.59 335.036 Q1915.27 337.327 1913.21 338.461 Q1911.15 339.596 1908.27 339.596 Q1903.51 339.596 1900.59 335.961 Q1897.67 332.327 1897.67 326.332 Q1897.67 320.313 1900.59 316.679 Q1903.51 313.045 1908.27 313.045 Q1911.15 313.045 1913.21 314.179 Q1915.27 315.313 1916.59 317.605 L1916.59 313.67 L1920.84 313.67 L1920.84 336.378 Z" fill="#000000" fill-rule="nonzero" fill-opacity="1" /><path clip-path="url(#clip930)" d="M1965.59 306.17 L1965.59 310.73 Q1962.93 309.457 1960.57 308.832 Q1958.21 308.207 1956.01 308.207 Q1952.19 308.207 1950.1 309.688 Q1948.04 311.17 1948.04 313.901 Q1948.04 316.193 1949.41 317.374 Q1950.8 318.531 1954.64 319.249 L1957.46 319.827 Q1962.7 320.823 1965.17 323.346 Q1967.67 325.846 1967.67 330.059 Q1967.67 335.082 1964.29 337.674 Q1960.94 340.267 1954.43 340.267 Q1951.98 340.267 1949.2 339.711 Q1946.45 339.156 1943.48 338.068 L1943.48 333.253 Q1946.33 334.85 1949.06 335.661 Q1951.79 336.471 1954.43 336.471 Q1958.44 336.471 1960.61 334.897 Q1962.79 333.323 1962.79 330.406 Q1962.79 327.86 1961.21 326.424 Q1959.66 324.989 1956.1 324.272 L1953.25 323.716 Q1948.02 322.675 1945.68 320.452 Q1943.34 318.23 1943.34 314.272 Q1943.34 309.688 1946.56 307.05 Q1949.8 304.411 1955.47 304.411 Q1957.9 304.411 1960.43 304.851 Q1962.95 305.29 1965.59 306.17 Z" fill="#000000" fill-rule="nonzero" fill-opacity="1" /><path clip-path="url(#clip930)" d="M1978.99 306.309 L1978.99 313.67 L1987.77 313.67 L1987.77 316.98 L1978.99 316.98 L1978.99 331.054 Q1978.99 334.225 1979.85 335.128 Q1980.73 336.031 1983.39 336.031 L1987.77 336.031 L1987.77 339.596 L1983.39 339.596 Q1978.46 339.596 1976.58 337.767 Q1974.71 335.915 1974.71 331.054 L1974.71 316.98 L1971.58 316.98 L1971.58 313.67 L1974.71 313.67 L1974.71 306.309 L1978.99 306.309 Z" fill="#000000" fill-rule="nonzero" fill-opacity="1" /><path clip-path="url(#clip930)" d="M2005.15 326.563 Q1999.99 326.563 1998 327.744 Q1996.01 328.924 1996.01 331.772 Q1996.01 334.04 1997.49 335.383 Q1998.99 336.702 2001.56 336.702 Q2005.1 336.702 2007.23 334.202 Q2009.39 331.679 2009.39 327.512 L2009.39 326.563 L2005.15 326.563 M2013.64 324.804 L2013.64 339.596 L2009.39 339.596 L2009.39 335.661 Q2007.93 338.022 2005.75 339.156 Q2003.58 340.267 2000.43 340.267 Q1996.45 340.267 1994.08 338.045 Q1991.75 335.799 1991.75 332.049 Q1991.75 327.674 1994.66 325.452 Q1997.6 323.23 2003.41 323.23 L2009.39 323.23 L2009.39 322.813 Q2009.39 319.874 2007.44 318.276 Q2005.52 316.656 2002.02 316.656 Q1999.8 316.656 1997.7 317.188 Q1995.59 317.721 1993.64 318.786 L1993.64 314.85 Q1995.98 313.948 1998.18 313.508 Q2000.38 313.045 2002.46 313.045 Q2008.09 313.045 2010.87 315.962 Q2013.64 318.878 2013.64 324.804 Z" fill="#000000" fill-rule="nonzero" fill-opacity="1" /><path clip-path="url(#clip930)" d="M2026.63 306.309 L2026.63 313.67 L2035.4 313.67 L2035.4 316.98 L2026.63 316.98 L2026.63 331.054 Q2026.63 334.225 2027.49 335.128 Q2028.37 336.031 2031.03 336.031 L2035.4 336.031 L2035.4 339.596 L2031.03 339.596 Q2026.1 339.596 2024.22 337.767 Q2022.35 335.915 2022.35 331.054 L2022.35 316.98 L2019.22 316.98 L2019.22 313.67 L2022.35 313.67 L2022.35 306.309 L2026.63 306.309 Z" fill="#000000" fill-rule="nonzero" fill-opacity="1" /><polyline clip-path="url(#clip930)" style="stroke:#0000ff; stroke-linecap:round; stroke-linejoin:round; stroke-width:4; stroke-opacity:1; fill:none" points="1575.98,374.156 1718.78,374.156 "/>
<path clip-path="url(#clip930)" d="M1761.49 369.445 L1761.49 355.417 L1765.75 355.417 L1765.75 391.436 L1761.49 391.436 L1761.49 387.547 Q1760.15 389.862 1758.09 390.996 Q1756.05 392.107 1753.18 392.107 Q1748.48 392.107 1745.52 388.357 Q1742.58 384.607 1742.58 378.496 Q1742.58 372.385 1745.52 368.635 Q1748.48 364.885 1753.18 364.885 Q1756.05 364.885 1758.09 366.019 Q1760.15 367.13 1761.49 369.445 M1746.98 378.496 Q1746.98 383.195 1748.9 385.88 Q1750.85 388.542 1754.22 388.542 Q1757.6 388.542 1759.55 385.88 Q1761.49 383.195 1761.49 378.496 Q1761.49 373.797 1759.55 371.135 Q1757.6 368.45 1754.22 368.45 Q1750.85 368.45 1748.9 371.135 Q1746.98 373.797 1746.98 378.496 Z" fill="#000000" fill-rule="nonzero" fill-opacity="1" /><path clip-path="url(#clip930)" d="M1796.7 377.408 L1796.7 379.491 L1777.12 379.491 Q1777.4 383.889 1779.76 386.204 Q1782.14 388.496 1786.38 388.496 Q1788.83 388.496 1791.12 387.894 Q1793.44 387.292 1795.71 386.089 L1795.71 390.116 Q1793.41 391.088 1791.01 391.598 Q1788.6 392.107 1786.12 392.107 Q1779.92 392.107 1776.28 388.496 Q1772.67 384.885 1772.67 378.727 Q1772.67 372.362 1776.1 368.635 Q1779.55 364.885 1785.38 364.885 Q1790.61 364.885 1793.65 368.265 Q1796.7 371.621 1796.7 377.408 M1792.44 376.158 Q1792.4 372.663 1790.47 370.579 Q1788.58 368.496 1785.43 368.496 Q1781.86 368.496 1779.71 370.51 Q1777.58 372.524 1777.26 376.181 L1792.44 376.158 Z" fill="#000000" fill-rule="nonzero" fill-opacity="1" /><path clip-path="url(#clip930)" d="M1822.3 378.496 Q1822.3 373.797 1820.36 371.135 Q1818.44 368.45 1815.06 368.45 Q1811.68 368.45 1809.73 371.135 Q1807.81 373.797 1807.81 378.496 Q1807.81 383.195 1809.73 385.88 Q1811.68 388.542 1815.06 388.542 Q1818.44 388.542 1820.36 385.88 Q1822.3 383.195 1822.3 378.496 M1807.81 369.445 Q1809.16 367.13 1811.19 366.019 Q1813.25 364.885 1816.1 364.885 Q1820.82 364.885 1823.76 368.635 Q1826.72 372.385 1826.72 378.496 Q1826.72 384.607 1823.76 388.357 Q1820.82 392.107 1816.1 392.107 Q1813.25 392.107 1811.19 390.996 Q1809.16 389.862 1807.81 387.547 L1807.81 391.436 L1803.53 391.436 L1803.53 355.417 L1807.81 355.417 L1807.81 369.445 Z" fill="#000000" fill-rule="nonzero" fill-opacity="1" /><path clip-path="url(#clip930)" d="M1833.78 365.51 L1838.04 365.51 L1838.04 391.436 L1833.78 391.436 L1833.78 365.51 M1833.78 355.417 L1838.04 355.417 L1838.04 360.811 L1833.78 360.811 L1833.78 355.417 Z" fill="#000000" fill-rule="nonzero" fill-opacity="1" /><path clip-path="url(#clip930)" d="M1858.74 378.403 Q1853.58 378.403 1851.59 379.584 Q1849.59 380.764 1849.59 383.612 Q1849.59 385.88 1851.08 387.223 Q1852.58 388.542 1855.15 388.542 Q1858.69 388.542 1860.82 386.042 Q1862.97 383.519 1862.97 379.352 L1862.97 378.403 L1858.74 378.403 M1867.23 376.644 L1867.23 391.436 L1862.97 391.436 L1862.97 387.501 Q1861.52 389.862 1859.34 390.996 Q1857.16 392.107 1854.02 392.107 Q1850.03 392.107 1847.67 389.885 Q1845.34 387.639 1845.34 383.889 Q1845.34 379.514 1848.25 377.292 Q1851.19 375.07 1857 375.07 L1862.97 375.07 L1862.97 374.653 Q1862.97 371.714 1861.03 370.116 Q1859.11 368.496 1855.61 368.496 Q1853.39 368.496 1851.28 369.028 Q1849.18 369.561 1847.23 370.626 L1847.23 366.69 Q1849.57 365.788 1851.77 365.348 Q1853.97 364.885 1856.05 364.885 Q1861.68 364.885 1864.46 367.802 Q1867.23 370.718 1867.23 376.644 Z" fill="#000000" fill-rule="nonzero" fill-opacity="1" /><path clip-path="url(#clip930)" d="M1892.53 366.274 L1892.53 370.302 Q1890.73 369.376 1888.78 368.913 Q1886.84 368.45 1884.76 368.45 Q1881.59 368.45 1879.99 369.422 Q1878.41 370.394 1878.41 372.339 Q1878.41 373.82 1879.55 374.677 Q1880.68 375.51 1884.11 376.274 L1885.57 376.598 Q1890.1 377.57 1892 379.352 Q1893.92 381.112 1893.92 384.283 Q1893.92 387.894 1891.05 390.001 Q1888.21 392.107 1883.21 392.107 Q1881.12 392.107 1878.85 391.69 Q1876.61 391.297 1874.11 390.487 L1874.11 386.089 Q1876.47 387.315 1878.76 387.94 Q1881.05 388.542 1883.3 388.542 Q1886.31 388.542 1887.93 387.524 Q1889.55 386.482 1889.55 384.607 Q1889.55 382.871 1888.37 381.945 Q1887.21 381.019 1883.25 380.163 L1881.77 379.815 Q1877.81 378.982 1876.05 377.269 Q1874.29 375.533 1874.29 372.524 Q1874.29 368.866 1876.89 366.876 Q1879.48 364.885 1884.25 364.885 Q1886.61 364.885 1888.69 365.232 Q1890.78 365.579 1892.53 366.274 Z" fill="#000000" fill-rule="nonzero" fill-opacity="1" /><path clip-path="url(#clip930)" d="M1922.88 377.408 L1922.88 379.491 L1903.3 379.491 Q1903.58 383.889 1905.94 386.204 Q1908.32 388.496 1912.56 388.496 Q1915.01 388.496 1917.3 387.894 Q1919.62 387.292 1921.89 386.089 L1921.89 390.116 Q1919.59 391.088 1917.19 391.598 Q1914.78 392.107 1912.3 392.107 Q1906.1 392.107 1902.46 388.496 Q1898.85 384.885 1898.85 378.727 Q1898.85 372.362 1902.28 368.635 Q1905.73 364.885 1911.56 364.885 Q1916.79 364.885 1919.83 368.265 Q1922.88 371.621 1922.88 377.408 M1918.62 376.158 Q1918.58 372.663 1916.65 370.579 Q1914.76 368.496 1911.61 368.496 Q1908.04 368.496 1905.89 370.51 Q1903.76 372.524 1903.44 376.181 L1918.62 376.158 Z" fill="#000000" fill-rule="nonzero" fill-opacity="1" /><path clip-path="url(#clip930)" d="M1946.93 369.445 L1946.93 355.417 L1951.19 355.417 L1951.19 391.436 L1946.93 391.436 L1946.93 387.547 Q1945.59 389.862 1943.53 390.996 Q1941.49 392.107 1938.62 392.107 Q1933.92 392.107 1930.96 388.357 Q1928.02 384.607 1928.02 378.496 Q1928.02 372.385 1930.96 368.635 Q1933.92 364.885 1938.62 364.885 Q1941.49 364.885 1943.53 366.019 Q1945.59 367.13 1946.93 369.445 M1932.42 378.496 Q1932.42 383.195 1934.34 385.88 Q1936.28 388.542 1939.66 388.542 Q1943.04 388.542 1944.99 385.88 Q1946.93 383.195 1946.93 378.496 Q1946.93 373.797 1944.99 371.135 Q1943.04 368.45 1939.66 368.45 Q1936.28 368.45 1934.34 371.135 Q1932.42 373.797 1932.42 378.496 Z" fill="#000000" fill-rule="nonzero" fill-opacity="1" /><path clip-path="url(#clip930)" d="M1975.22 356.876 L1979.89 356.876 L1979.89 387.501 L1996.72 387.501 L1996.72 391.436 L1975.22 391.436 L1975.22 356.876 Z" fill="#000000" fill-rule="nonzero" fill-opacity="1" /><path clip-path="url(#clip930)" d="M2022.79 377.408 L2022.79 379.491 L2003.2 379.491 Q2003.48 383.889 2005.84 386.204 Q2008.23 388.496 2012.46 388.496 Q2014.92 388.496 2017.21 387.894 Q2019.52 387.292 2021.79 386.089 L2021.79 390.116 Q2019.5 391.088 2017.09 391.598 Q2014.69 392.107 2012.21 392.107 Q2006.01 392.107 2002.37 388.496 Q1998.76 384.885 1998.76 378.727 Q1998.76 372.362 2002.19 368.635 Q2005.64 364.885 2011.47 364.885 Q2016.7 364.885 2019.73 368.265 Q2022.79 371.621 2022.79 377.408 M2018.53 376.158 Q2018.48 372.663 2016.56 370.579 Q2014.66 368.496 2011.52 368.496 Q2007.95 368.496 2005.8 370.51 Q2003.67 372.524 2003.34 376.181 L2018.53 376.158 Z" fill="#000000" fill-rule="nonzero" fill-opacity="1" /><path clip-path="url(#clip930)" d="M2046.31 366.274 L2046.31 370.302 Q2044.5 369.376 2042.56 368.913 Q2040.61 368.45 2038.53 368.45 Q2035.36 368.45 2033.76 369.422 Q2032.19 370.394 2032.19 372.339 Q2032.19 373.82 2033.32 374.677 Q2034.45 375.51 2037.88 376.274 L2039.34 376.598 Q2043.88 377.57 2045.77 379.352 Q2047.7 381.112 2047.7 384.283 Q2047.7 387.894 2044.83 390.001 Q2041.98 392.107 2036.98 392.107 Q2034.89 392.107 2032.63 391.69 Q2030.38 391.297 2027.88 390.487 L2027.88 386.089 Q2030.24 387.315 2032.53 387.94 Q2034.83 388.542 2037.07 388.542 Q2040.08 388.542 2041.7 387.524 Q2043.32 386.482 2043.32 384.607 Q2043.32 382.871 2042.14 381.945 Q2040.98 381.019 2037.02 380.163 L2035.54 379.815 Q2031.58 378.982 2029.83 377.269 Q2028.07 375.533 2028.07 372.524 Q2028.07 368.866 2030.66 366.876 Q2033.25 364.885 2038.02 364.885 Q2040.38 364.885 2042.46 365.232 Q2044.55 365.579 2046.31 366.274 Z" fill="#000000" fill-rule="nonzero" fill-opacity="1" /><path clip-path="url(#clip930)" d="M2058.69 358.149 L2058.69 365.51 L2067.46 365.51 L2067.46 368.82 L2058.69 368.82 L2058.69 382.894 Q2058.69 386.065 2059.55 386.968 Q2060.43 387.871 2063.09 387.871 L2067.46 387.871 L2067.46 391.436 L2063.09 391.436 Q2058.16 391.436 2056.28 389.607 Q2054.41 387.755 2054.41 382.894 L2054.41 368.82 L2051.28 368.82 L2051.28 365.51 L2054.41 365.51 L2054.41 358.149 L2058.69 358.149 Z" fill="#000000" fill-rule="nonzero" fill-opacity="1" /><path clip-path="url(#clip930)" d="M2084.85 378.403 Q2079.69 378.403 2077.7 379.584 Q2075.7 380.764 2075.7 383.612 Q2075.7 385.88 2077.19 387.223 Q2078.69 388.542 2081.26 388.542 Q2084.8 388.542 2086.93 386.042 Q2089.08 383.519 2089.08 379.352 L2089.08 378.403 L2084.85 378.403 M2093.34 376.644 L2093.34 391.436 L2089.08 391.436 L2089.08 387.501 Q2087.63 389.862 2085.45 390.996 Q2083.27 392.107 2080.13 392.107 Q2076.14 392.107 2073.78 389.885 Q2071.45 387.639 2071.45 383.889 Q2071.45 379.514 2074.36 377.292 Q2077.3 375.07 2083.11 375.07 L2089.08 375.07 L2089.08 374.653 Q2089.08 371.714 2087.14 370.116 Q2085.22 368.496 2081.72 368.496 Q2079.5 368.496 2077.39 369.028 Q2075.29 369.561 2073.34 370.626 L2073.34 366.69 Q2075.68 365.788 2077.88 365.348 Q2080.08 364.885 2082.16 364.885 Q2087.79 364.885 2090.57 367.802 Q2093.34 370.718 2093.34 376.644 Z" fill="#000000" fill-rule="nonzero" fill-opacity="1" /><path clip-path="url(#clip930)" d="M2123.67 375.788 L2123.67 391.436 L2119.41 391.436 L2119.41 375.927 Q2119.41 372.246 2117.97 370.417 Q2116.54 368.589 2113.67 368.589 Q2110.22 368.589 2108.23 370.788 Q2106.24 372.987 2106.24 376.783 L2106.24 391.436 L2101.95 391.436 L2101.95 365.51 L2106.24 365.51 L2106.24 369.538 Q2107.76 367.2 2109.82 366.042 Q2111.91 364.885 2114.62 364.885 Q2119.08 364.885 2121.38 367.663 Q2123.67 370.417 2123.67 375.788 Z" fill="#000000" fill-rule="nonzero" fill-opacity="1" /><path clip-path="url(#clip930)" d="M2149.22 378.172 Q2149.22 373.542 2147.3 370.996 Q2145.4 368.45 2141.95 368.45 Q2138.53 368.45 2136.61 370.996 Q2134.71 373.542 2134.71 378.172 Q2134.71 382.778 2136.61 385.325 Q2138.53 387.871 2141.95 387.871 Q2145.4 387.871 2147.3 385.325 Q2149.22 382.778 2149.22 378.172 M2153.48 388.218 Q2153.48 394.838 2150.54 398.056 Q2147.6 401.297 2141.54 401.297 Q2139.29 401.297 2137.3 400.95 Q2135.31 400.625 2133.44 399.931 L2133.44 395.788 Q2135.31 396.806 2137.14 397.292 Q2138.97 397.778 2140.87 397.778 Q2145.06 397.778 2147.14 395.579 Q2149.22 393.403 2149.22 388.982 L2149.22 386.876 Q2147.9 389.167 2145.84 390.301 Q2143.78 391.436 2140.91 391.436 Q2136.14 391.436 2133.23 387.801 Q2130.31 384.167 2130.31 378.172 Q2130.31 372.153 2133.23 368.519 Q2136.14 364.885 2140.91 364.885 Q2143.78 364.885 2145.84 366.019 Q2147.9 367.153 2149.22 369.445 L2149.22 365.51 L2153.48 365.51 L2153.48 388.218 Z" fill="#000000" fill-rule="nonzero" fill-opacity="1" /><polyline clip-path="url(#clip930)" style="stroke:#800080; stroke-linecap:round; stroke-linejoin:round; stroke-width:4; stroke-opacity:1; fill:none" points="1575.98,425.996 1718.78,425.996 "/>
<path clip-path="url(#clip930)" d="M1761.49 421.285 L1761.49 407.257 L1765.75 407.257 L1765.75 443.276 L1761.49 443.276 L1761.49 439.387 Q1760.15 441.702 1758.09 442.836 Q1756.05 443.947 1753.18 443.947 Q1748.48 443.947 1745.52 440.197 Q1742.58 436.447 1742.58 430.336 Q1742.58 424.225 1745.52 420.475 Q1748.48 416.725 1753.18 416.725 Q1756.05 416.725 1758.09 417.859 Q1760.15 418.97 1761.49 421.285 M1746.98 430.336 Q1746.98 435.035 1748.9 437.72 Q1750.85 440.382 1754.22 440.382 Q1757.6 440.382 1759.55 437.72 Q1761.49 435.035 1761.49 430.336 Q1761.49 425.637 1759.55 422.975 Q1757.6 420.29 1754.22 420.29 Q1750.85 420.29 1748.9 422.975 Q1746.98 425.637 1746.98 430.336 Z" fill="#000000" fill-rule="nonzero" fill-opacity="1" /><path clip-path="url(#clip930)" d="M1796.7 429.248 L1796.7 431.331 L1777.12 431.331 Q1777.4 435.729 1779.76 438.044 Q1782.14 440.336 1786.38 440.336 Q1788.83 440.336 1791.12 439.734 Q1793.44 439.132 1795.71 437.929 L1795.71 441.956 Q1793.41 442.928 1791.01 443.438 Q1788.6 443.947 1786.12 443.947 Q1779.92 443.947 1776.28 440.336 Q1772.67 436.725 1772.67 430.567 Q1772.67 424.202 1776.1 420.475 Q1779.55 416.725 1785.38 416.725 Q1790.61 416.725 1793.65 420.105 Q1796.7 423.461 1796.7 429.248 M1792.44 427.998 Q1792.4 424.503 1790.47 422.419 Q1788.58 420.336 1785.43 420.336 Q1781.86 420.336 1779.71 422.35 Q1777.58 424.364 1777.26 428.021 L1792.44 427.998 Z" fill="#000000" fill-rule="nonzero" fill-opacity="1" /><path clip-path="url(#clip930)" d="M1822.3 430.336 Q1822.3 425.637 1820.36 422.975 Q1818.44 420.29 1815.06 420.29 Q1811.68 420.29 1809.73 422.975 Q1807.81 425.637 1807.81 430.336 Q1807.81 435.035 1809.73 437.72 Q1811.68 440.382 1815.06 440.382 Q1818.44 440.382 1820.36 437.72 Q1822.3 435.035 1822.3 430.336 M1807.81 421.285 Q1809.16 418.97 1811.19 417.859 Q1813.25 416.725 1816.1 416.725 Q1820.82 416.725 1823.76 420.475 Q1826.72 424.225 1826.72 430.336 Q1826.72 436.447 1823.76 440.197 Q1820.82 443.947 1816.1 443.947 Q1813.25 443.947 1811.19 442.836 Q1809.16 441.702 1807.81 439.387 L1807.81 443.276 L1803.53 443.276 L1803.53 407.257 L1807.81 407.257 L1807.81 421.285 Z" fill="#000000" fill-rule="nonzero" fill-opacity="1" /><path clip-path="url(#clip930)" d="M1833.78 417.35 L1838.04 417.35 L1838.04 443.276 L1833.78 443.276 L1833.78 417.35 M1833.78 407.257 L1838.04 407.257 L1838.04 412.651 L1833.78 412.651 L1833.78 407.257 Z" fill="#000000" fill-rule="nonzero" fill-opacity="1" /><path clip-path="url(#clip930)" d="M1858.74 430.243 Q1853.58 430.243 1851.59 431.424 Q1849.59 432.604 1849.59 435.452 Q1849.59 437.72 1851.08 439.063 Q1852.58 440.382 1855.15 440.382 Q1858.69 440.382 1860.82 437.882 Q1862.97 435.359 1862.97 431.192 L1862.97 430.243 L1858.74 430.243 M1867.23 428.484 L1867.23 443.276 L1862.97 443.276 L1862.97 439.341 Q1861.52 441.702 1859.34 442.836 Q1857.16 443.947 1854.02 443.947 Q1850.03 443.947 1847.67 441.725 Q1845.34 439.479 1845.34 435.729 Q1845.34 431.354 1848.25 429.132 Q1851.19 426.91 1857 426.91 L1862.97 426.91 L1862.97 426.493 Q1862.97 423.554 1861.03 421.956 Q1859.11 420.336 1855.61 420.336 Q1853.39 420.336 1851.28 420.868 Q1849.18 421.401 1847.23 422.466 L1847.23 418.53 Q1849.57 417.628 1851.77 417.188 Q1853.97 416.725 1856.05 416.725 Q1861.68 416.725 1864.46 419.642 Q1867.23 422.558 1867.23 428.484 Z" fill="#000000" fill-rule="nonzero" fill-opacity="1" /><path clip-path="url(#clip930)" d="M1892.53 418.114 L1892.53 422.142 Q1890.73 421.216 1888.78 420.753 Q1886.84 420.29 1884.76 420.29 Q1881.59 420.29 1879.99 421.262 Q1878.41 422.234 1878.41 424.179 Q1878.41 425.66 1879.55 426.517 Q1880.68 427.35 1884.11 428.114 L1885.57 428.438 Q1890.1 429.41 1892 431.192 Q1893.92 432.952 1893.92 436.123 Q1893.92 439.734 1891.05 441.841 Q1888.21 443.947 1883.21 443.947 Q1881.12 443.947 1878.85 443.53 Q1876.61 443.137 1874.11 442.327 L1874.11 437.929 Q1876.47 439.155 1878.76 439.78 Q1881.05 440.382 1883.3 440.382 Q1886.31 440.382 1887.93 439.364 Q1889.55 438.322 1889.55 436.447 Q1889.55 434.711 1888.37 433.785 Q1887.21 432.859 1883.25 432.003 L1881.77 431.655 Q1877.81 430.822 1876.05 429.109 Q1874.29 427.373 1874.29 424.364 Q1874.29 420.706 1876.89 418.716 Q1879.48 416.725 1884.25 416.725 Q1886.61 416.725 1888.69 417.072 Q1890.78 417.419 1892.53 418.114 Z" fill="#000000" fill-rule="nonzero" fill-opacity="1" /><path clip-path="url(#clip930)" d="M1922.88 429.248 L1922.88 431.331 L1903.3 431.331 Q1903.58 435.729 1905.94 438.044 Q1908.32 440.336 1912.56 440.336 Q1915.01 440.336 1917.3 439.734 Q1919.62 439.132 1921.89 437.929 L1921.89 441.956 Q1919.59 442.928 1917.19 443.438 Q1914.78 443.947 1912.3 443.947 Q1906.1 443.947 1902.46 440.336 Q1898.85 436.725 1898.85 430.567 Q1898.85 424.202 1902.28 420.475 Q1905.73 416.725 1911.56 416.725 Q1916.79 416.725 1919.83 420.105 Q1922.88 423.461 1922.88 429.248 M1918.62 427.998 Q1918.58 424.503 1916.65 422.419 Q1914.76 420.336 1911.61 420.336 Q1908.04 420.336 1905.89 422.35 Q1903.76 424.364 1903.44 428.021 L1918.62 427.998 Z" fill="#000000" fill-rule="nonzero" fill-opacity="1" /><path clip-path="url(#clip930)" d="M1946.93 421.285 L1946.93 407.257 L1951.19 407.257 L1951.19 443.276 L1946.93 443.276 L1946.93 439.387 Q1945.59 441.702 1943.53 442.836 Q1941.49 443.947 1938.62 443.947 Q1933.92 443.947 1930.96 440.197 Q1928.02 436.447 1928.02 430.336 Q1928.02 424.225 1930.96 420.475 Q1933.92 416.725 1938.62 416.725 Q1941.49 416.725 1943.53 417.859 Q1945.59 418.97 1946.93 421.285 M1932.42 430.336 Q1932.42 435.035 1934.34 437.72 Q1936.28 440.382 1939.66 440.382 Q1943.04 440.382 1944.99 437.72 Q1946.93 435.035 1946.93 430.336 Q1946.93 425.637 1944.99 422.975 Q1943.04 420.29 1939.66 420.29 Q1936.28 420.29 1934.34 422.975 Q1932.42 425.637 1932.42 430.336 Z" fill="#000000" fill-rule="nonzero" fill-opacity="1" /><path clip-path="url(#clip930)" d="M1986.82 430.243 Q1981.65 430.243 1979.66 431.424 Q1977.67 432.604 1977.67 435.452 Q1977.67 437.72 1979.15 439.063 Q1980.66 440.382 1983.23 440.382 Q1986.77 440.382 1988.9 437.882 Q1991.05 435.359 1991.05 431.192 L1991.05 430.243 L1986.82 430.243 M1995.31 428.484 L1995.31 443.276 L1991.05 443.276 L1991.05 439.341 Q1989.59 441.702 1987.42 442.836 Q1985.24 443.947 1982.09 443.947 Q1978.11 443.947 1975.75 441.725 Q1973.41 439.479 1973.41 435.729 Q1973.41 431.354 1976.33 429.132 Q1979.27 426.91 1985.08 426.91 L1991.05 426.91 L1991.05 426.493 Q1991.05 423.554 1989.11 421.956 Q1987.19 420.336 1983.69 420.336 Q1981.47 420.336 1979.36 420.868 Q1977.26 421.401 1975.31 422.466 L1975.31 418.53 Q1977.65 417.628 1979.85 417.188 Q1982.05 416.725 1984.13 416.725 Q1989.76 416.725 1992.53 419.642 Q1995.31 422.558 1995.31 428.484 Z" fill="#000000" fill-rule="nonzero" fill-opacity="1" /><path clip-path="url(#clip930)" d="M2001.03 417.35 L2005.54 417.35 L2013.64 439.109 L2021.75 417.35 L2026.26 417.35 L2016.54 443.276 L2010.75 443.276 L2001.03 417.35 Z" fill="#000000" fill-rule="nonzero" fill-opacity="1" /><path clip-path="url(#clip930)" d="M2054.32 429.248 L2054.32 431.331 L2034.73 431.331 Q2035.01 435.729 2037.37 438.044 Q2039.76 440.336 2043.99 440.336 Q2046.45 440.336 2048.74 439.734 Q2051.05 439.132 2053.32 437.929 L2053.32 441.956 Q2051.03 442.928 2048.62 443.438 Q2046.21 443.947 2043.74 443.947 Q2037.53 443.947 2033.9 440.336 Q2030.29 436.725 2030.29 430.567 Q2030.29 424.202 2033.71 420.475 Q2037.16 416.725 2043 416.725 Q2048.23 416.725 2051.26 420.105 Q2054.32 423.461 2054.32 429.248 M2050.06 427.998 Q2050.01 424.503 2048.09 422.419 Q2046.19 420.336 2043.04 420.336 Q2039.48 420.336 2037.33 422.35 Q2035.2 424.364 2034.87 428.021 L2050.06 427.998 Z" fill="#000000" fill-rule="nonzero" fill-opacity="1" /><path clip-path="url(#clip930)" d="M2081.01 451.146 L2081.01 454.456 L2056.38 454.456 L2056.38 451.146 L2081.01 451.146 Z" fill="#000000" fill-rule="nonzero" fill-opacity="1" /><path clip-path="url(#clip930)" d="M2098.14 407.257 L2098.14 410.799 L2094.06 410.799 Q2091.77 410.799 2090.87 411.725 Q2089.99 412.651 2089.99 415.058 L2089.99 417.35 L2097 417.35 L2097 420.66 L2089.99 420.66 L2089.99 443.276 L2085.7 443.276 L2085.7 420.66 L2081.63 420.66 L2081.63 417.35 L2085.7 417.35 L2085.7 415.544 Q2085.7 411.216 2087.72 409.248 Q2089.73 407.257 2094.11 407.257 L2098.14 407.257 Z" fill="#000000" fill-rule="nonzero" fill-opacity="1" /><path clip-path="url(#clip930)" d="M2101.7 417.35 L2105.96 417.35 L2105.96 443.276 L2101.7 443.276 L2101.7 417.35 M2101.7 407.257 L2105.96 407.257 L2105.96 412.651 L2101.7 412.651 L2101.7 407.257 Z" fill="#000000" fill-rule="nonzero" fill-opacity="1" /><path clip-path="url(#clip930)" d="M2129.89 421.331 Q2129.18 420.915 2128.32 420.73 Q2127.49 420.521 2126.47 420.521 Q2122.86 420.521 2120.91 422.882 Q2118.99 425.22 2118.99 429.618 L2118.99 443.276 L2114.71 443.276 L2114.71 417.35 L2118.99 417.35 L2118.99 421.378 Q2120.33 419.017 2122.49 417.882 Q2124.64 416.725 2127.72 416.725 Q2128.16 416.725 2128.69 416.794 Q2129.22 416.841 2129.87 416.956 L2129.89 421.331 Z" fill="#000000" fill-rule="nonzero" fill-opacity="1" /><path clip-path="url(#clip930)" d="M2150.89 418.114 L2150.89 422.142 Q2149.08 421.216 2147.14 420.753 Q2145.19 420.29 2143.11 420.29 Q2139.94 420.29 2138.34 421.262 Q2136.77 422.234 2136.77 424.179 Q2136.77 425.66 2137.9 426.517 Q2139.04 427.35 2142.46 428.114 L2143.92 428.438 Q2148.46 429.41 2150.36 431.192 Q2152.28 432.952 2152.28 436.123 Q2152.28 439.734 2149.41 441.841 Q2146.56 443.947 2141.56 443.947 Q2139.48 443.947 2137.21 443.53 Q2134.96 443.137 2132.46 442.327 L2132.46 437.929 Q2134.82 439.155 2137.12 439.78 Q2139.41 440.382 2141.65 440.382 Q2144.66 440.382 2146.28 439.364 Q2147.9 438.322 2147.9 436.447 Q2147.9 434.711 2146.72 433.785 Q2145.57 432.859 2141.61 432.003 L2140.13 431.655 Q2136.17 430.822 2134.41 429.109 Q2132.65 427.373 2132.65 424.364 Q2132.65 420.706 2135.24 418.716 Q2137.83 416.725 2142.6 416.725 Q2144.96 416.725 2147.05 417.072 Q2149.13 417.419 2150.89 418.114 Z" fill="#000000" fill-rule="nonzero" fill-opacity="1" /><path clip-path="url(#clip930)" d="M2163.27 409.989 L2163.27 417.35 L2172.05 417.35 L2172.05 420.66 L2163.27 420.66 L2163.27 434.734 Q2163.27 437.905 2164.13 438.808 Q2165.01 439.711 2167.67 439.711 L2172.05 439.711 L2172.05 443.276 L2167.67 443.276 Q2162.74 443.276 2160.87 441.447 Q2158.99 439.595 2158.99 434.734 L2158.99 420.66 L2155.87 420.66 L2155.87 417.35 L2158.99 417.35 L2158.99 409.989 L2163.27 409.989 Z" fill="#000000" fill-rule="nonzero" fill-opacity="1" /><path clip-path="url(#clip930)" d="M2197.35 451.146 L2197.35 454.456 L2172.72 454.456 L2172.72 451.146 L2197.35 451.146 Z" fill="#000000" fill-rule="nonzero" fill-opacity="1" /><path clip-path="url(#clip930)" d="M2222.9 427.628 L2222.9 443.276 L2218.64 443.276 L2218.64 427.767 Q2218.64 424.086 2217.21 422.257 Q2215.77 420.429 2212.9 420.429 Q2209.45 420.429 2207.46 422.628 Q2205.47 424.827 2205.47 428.623 L2205.47 443.276 L2201.19 443.276 L2201.19 407.257 L2205.47 407.257 L2205.47 421.378 Q2207 419.04 2209.06 417.882 Q2211.14 416.725 2213.85 416.725 Q2218.32 416.725 2220.61 419.503 Q2222.9 422.257 2222.9 427.628 Z" fill="#000000" fill-rule="nonzero" fill-opacity="1" /><path clip-path="url(#clip930)" d="M2231.4 417.35 L2235.66 417.35 L2235.66 443.276 L2231.4 443.276 L2231.4 417.35 M2231.4 407.257 L2235.66 407.257 L2235.66 412.651 L2231.4 412.651 L2231.4 407.257 Z" fill="#000000" fill-rule="nonzero" fill-opacity="1" /><path clip-path="url(#clip930)" d="M2248.78 409.989 L2248.78 417.35 L2257.56 417.35 L2257.56 420.66 L2248.78 420.66 L2248.78 434.734 Q2248.78 437.905 2249.64 438.808 Q2250.52 439.711 2253.18 439.711 L2257.56 439.711 L2257.56 443.276 L2253.18 443.276 Q2248.25 443.276 2246.37 441.447 Q2244.5 439.595 2244.5 434.734 L2244.5 420.66 L2241.37 420.66 L2241.37 417.35 L2244.5 417.35 L2244.5 409.989 L2248.78 409.989 Z" fill="#000000" fill-rule="nonzero" fill-opacity="1" /></svg>
